<?xml version="1.0" encoding="utf-8"?>
<!-- Generator: Adobe Illustrator 28.1.0, SVG Export Plug-In . SVG Version: 6.00 Build 0)  -->
<svg version="1.1" id="uuid-edb6776a-daf9-499c-b6ff-4f31ab853eb8"
	 xmlns="http://www.w3.org/2000/svg" xmlns:xlink="http://www.w3.org/1999/xlink" x="0px" y="0px" viewBox="0 0 464.9 890.1"
	 style="enable-background:new 0 0 464.9 890.1;" xml:space="preserve">
<style type="text/css">
	.st0{fill:#FFFFFF;stroke:#DDDDDD;stroke-miterlimit:10;}
	.st1{fill-rule:evenodd;clip-rule:evenodd;fill:#0D0D0D;}
	.st2{fill:#FFFFFF;stroke:#231815;}
</style>
<g>
	<circle class="st0" cx="230.4" cy="198.8" r="49.6"/>
	<path class="st1" d="M263.7,185c2.1-6,1.2-12.3-3-16.5l0,0c-4.2-4.2-10.6-5.1-16.5-3c-2.7-5.7-7.9-9.6-13.8-9.6l0,0
		c-5.9,0-11.1,3.9-13.8,9.6c-5.9-2.2-12.3-1.2-16.5,3l0,0c-4.2,4.2-5.1,10.6-3,16.5c-5.7,2.7-9.6,7.8-9.6,13.8l0,0
		c0,5.9,3.9,11.1,9.6,13.8c-2.2,5.9-1.2,12.3,3,16.5l0,0c4.2,4.2,10.6,5.1,16.5,3c2.7,5.7,7.9,9.6,13.8,9.6l0,0
		c5.9,0,11.1-3.9,13.8-9.6c5.9,2.1,12.3,1.2,16.5-3s5.1-10.6,3-16.5c5.7-2.7,9.6-7.9,9.6-13.8l0,0
		C273.3,192.9,269.4,187.7,263.7,185L263.7,185z M257.3,171.9L257.3,171.9c3,3,3.9,7.5,2.7,11.9c-1.7-0.4-3.5-0.7-5.3-0.7h-0.4
		c0.1-2.3-0.5-4.5-2.1-6.1c-1.6-1.6-3.8-2.3-6.1-2.1v-0.4c0-1.9-0.2-3.6-0.7-5.3C249.8,168,254.3,168.8,257.3,171.9L257.3,171.9
		L257.3,171.9z M255.8,206.7c1.2,1.2,2.1,2.5,2.8,3.8c-1.5,0.4-3,0.7-4.7,0.7h-0.4c-0.5-1.2-1.3-2.4-2.3-3.4l-0.6-0.6h0.9
		c1.4,0,2.8-0.3,4.1-0.8L255.8,206.7L255.8,206.7L255.8,206.7z M242.1,227.1c-1.4-0.7-2.6-1.7-3.8-2.9l-0.3-0.3
		c0.5-1.2,0.8-2.6,0.8-4.1v-0.9l0.6,0.6c1,1,2.2,1.8,3.4,2.3v0.4C242.7,224,242.5,225.6,242.1,227.1L242.1,227.1L242.1,227.1z
		 M218,222.4v-0.4c1.2-0.5,2.4-1.3,3.4-2.3l0.6-0.6v0.9c0,1.4,0.3,2.8,0.8,4.1l-0.3,0.3c-1.2,1.2-2.4,2.1-3.8,2.8
		C218.2,225.6,218,224,218,222.4L218,222.4L218,222.4z M206.8,211.2c-1.7,0-3.2-0.2-4.7-0.7c0.7-1.3,1.7-2.6,2.8-3.8l0.3-0.3
		c1.2,0.5,2.6,0.8,4.1,0.8h0.9l-0.6,0.6c-1,1-1.8,2.2-2.3,3.4C207.3,211.2,206.8,211.2,206.8,211.2z M205,190.9
		c-1.2-1.2-2.1-2.5-2.8-3.8c1.5-0.4,3.1-0.7,4.7-0.7h0.4c0.5,1.2,1.3,2.4,2.3,3.4l0.6,0.6h-0.9c-1.4,0-2.8,0.3-4.1,0.8
		C205.3,191.2,205,190.9,205,190.9z M218.7,170.6c1.4,0.7,2.6,1.7,3.8,2.9l0.3,0.3c-0.5,1.2-0.8,2.6-0.8,4.1v0.9l-0.6-0.6
		c-1-1-2.2-1.8-3.4-2.3v-0.4C218,173.6,218.2,172.1,218.7,170.6L218.7,170.6L218.7,170.6z M242.7,175.3v0.4
		c-1.2,0.5-2.4,1.3-3.4,2.3l-0.6,0.6v-0.9c0-1.5-0.3-2.8-0.8-4.1l0.3-0.3c1.2-1.2,2.4-2.1,3.8-2.9
		C242.5,172.1,242.7,173.6,242.7,175.3L242.7,175.3L242.7,175.3z M248.1,190.5h-1.9v-4h5.2c-0.4,0.9-1,1.8-1.8,2.6
		C249.5,189.1,248.1,190.5,248.1,190.5z M223.9,214.6l-0.2,0.2v-0.2L223.9,214.6L223.9,214.6L223.9,214.6L223.9,214.6z M236.8,183
		l0.2-0.2v0.2L236.8,183L236.8,183L236.8,183L236.8,183z M233.4,211.2l-1.8-1.8l2.2-2.2h3.2v2.5l-1.5,1.5H233.4L233.4,211.2z
		 M225.2,211.2l-1.5-1.5v-2.5h3.2l2.2,2.2l-1.8,1.8L225.2,211.2L225.2,211.2z M227.4,186.4l1.8,1.8l-2.2,2.2h-3.2v-2.5l1.5-1.5
		H227.4L227.4,186.4z M235.5,186.4l1.5,1.5v2.5h-3.2l-2.2-2.2l1.8-1.8H235.5L235.5,186.4z M242.7,195.8l-1.8,1.8l-2.2-2.2v-3.2h2.5
		l1.5,1.5C242.7,193.7,242.7,195.8,242.7,195.8z M233.1,205.4h-5.5l-3.9-3.9v-5.5l3.9-3.9h5.5l3.9,3.9v5.5L233.1,205.4z M237,204
		v1.5h-1.5L237,204z M231.4,207.1l-1,1l-1-1H231.4z M223.7,204l1.5,1.5h-1.5V204z M222,199.8l-1-1l1-1
		C222,197.8,222,199.8,222,199.8z M223.7,193.7v-1.5h1.5L223.7,193.7z M229.3,190.5l1-1l1,1H229.3z M237,193.7l-1.5-1.5h1.5V193.7z
		 M238.7,197.8l1,1l-1,1C238.7,199.8,238.7,197.8,238.7,197.8z M238.7,190.5v-0.8l0.8,0.8H238.7z M230.4,187l-0.6-0.6h1.2L230.4,187
		z M222,190.5h-0.8l0.8-0.8V190.5z M219.5,192.2h2.5v3.2l-2.2,2.2l-1.8-1.8v-2.1C218,193.7,219.5,192.2,219.5,192.2z M214.6,200.5
		l-1.7-1.7l1.7-1.7V200.5L214.6,200.5L214.6,200.5z M218,198.2l0.6,0.6l-0.6,0.6C218,199.4,218,198.2,218,198.2z M218,201.8l1.8-1.8
		l2.2,2.2v3.2h-2.5l-1.5-1.5C218,203.9,218,201.8,218,201.8z M222,207.1v0.8l-0.8-0.8H222z M230.4,210.6l0.6,0.6h-1.2L230.4,210.6z
		 M238.7,207.1h0.8l-0.8,0.8V207.1z M241.2,205.4h-2.5v-3.2l2.2-2.2l1.8,1.8v2.1C242.7,203.9,241.2,205.4,241.2,205.4z M242.1,198.8
		l0.6-0.6v1.2C242.7,199.4,242.1,198.8,242.1,198.8z M246.1,197.1l1.7,1.7l-1.7,1.7V197.1L246.1,197.1L246.1,197.1z M240.3,186.4
		h2.4v2.4L240.3,186.4z M238.7,183.1v-1.9l1.4-1.4c0.8-0.8,1.7-1.4,2.6-1.8v5.2H238.7z M228.6,183.1l1.7-1.7l1.7,1.7H228.6
		L228.6,183.1L228.6,183.1z M223.8,183.1h-0.1v-0.2L223.8,183.1L223.8,183.1L223.8,183.1L223.8,183.1z M222,183.1h-4v-5.2
		c0.9,0.4,1.8,1,2.6,1.8l1.4,1.4V183.1z M220.4,186.4l-2.4,2.4v-2.4H220.4z M214.6,192.3L214.6,192.3l-0.2-0.1L214.6,192.3
		L214.6,192.3L214.6,192.3L214.6,192.3z M213.3,193.6l-2.9,2.9l-3.7-3.7c1-0.4,2-0.6,3.2-0.6h2L213.3,193.6L213.3,193.6L213.3,193.6
		z M213.3,204.1l-1.4,1.4h-2c-1.1,0-2.2-0.2-3.2-0.6l3.7-3.7L213.3,204.1L213.3,204.1L213.3,204.1z M214.5,205.3L214.5,205.3
		l0.1,0.2h-0.2L214.5,205.3L214.5,205.3L214.5,205.3z M220.4,211.2H218v-2.4L220.4,211.2z M222,214.6v1.9l-1.4,1.4
		c-0.8,0.8-1.7,1.4-2.6,1.8v-5.2C218,214.6,222,214.6,222,214.6z M232.1,214.6l-1.7,1.7l-1.7-1.7H232.1L232.1,214.6L232.1,214.6z
		 M236.9,214.6h0.1v0.2L236.9,214.6L236.9,214.6L236.9,214.6L236.9,214.6z M238.7,214.6h4v5.2c-0.9-0.4-1.8-1-2.6-1.8l-1.4-1.4
		C238.7,216.5,238.7,214.6,238.7,214.6z M240.3,211.2l2.4-2.4v2.4H240.3z M246.1,205.3L246.1,205.3l0.2,0.1L246.1,205.3L246.1,205.3
		L246.1,205.3L246.1,205.3z M247.4,204.1l2.9-2.8l3.7,3.7c-1,0.4-2,0.6-3.2,0.6h-2L247.4,204.1L247.4,204.1L247.4,204.1z
		 M247.4,193.6l1.4-1.4h2c1.1,0,2.2,0.2,3.2,0.6l-3.7,3.7L247.4,193.6L247.4,193.6L247.4,193.6z M246.2,192.4L246.2,192.4l-0.1-0.2
		h0.2L246.2,192.4L246.2,192.4L246.2,192.4z M246.1,183.1v-5.9c1.6,0,3.1,0.6,4.2,1.7s1.7,2.6,1.7,4.2L246.1,183.1L246.1,183.1
		L246.1,183.1z M237,178.4v2l-1.4,1.4l-2.9-2.9l3.7-3.7C236.8,176.2,237,177.3,237,178.4L237,178.4L237,178.4z M230.4,176.5
		l-4.2-4.2c1.1-1.1,2.6-1.8,4.2-1.8s3,0.7,4.2,1.8L230.4,176.5z M228,178.9l-2.9,2.9l-1.4-1.4v-2c0-1.1,0.2-2.2,0.6-3.2L228,178.9
		L228,178.9L228,178.9z M214.6,183.1h-5.9c0-1.6,0.6-3.1,1.7-4.2s2.6-1.7,4.2-1.7L214.6,183.1L214.6,183.1L214.6,183.1z
		 M214.6,186.4v4h-1.9l-1.4-1.4c-0.8-0.8-1.4-1.7-1.8-2.6C209.4,186.4,214.6,186.4,214.6,186.4z M208.1,198.8l-4.2,4.2
		c-1.1-1.1-1.8-2.6-1.8-4.2s0.7-3,1.8-4.2L208.1,198.8z M211.3,208.5l1.4-1.4h1.9v4h-5.2C209.9,210.2,210.5,209.3,211.3,208.5z
		 M214.6,214.6v5.9c-1.6,0-3.1-0.6-4.2-1.7c-1.1-1.1-1.7-2.6-1.7-4.2L214.6,214.6L214.6,214.6L214.6,214.6z M223.7,219.2v-2l1.4-1.4
		l2.9,2.8l-3.7,3.7C223.9,221.4,223.7,220.3,223.7,219.2L223.7,219.2L223.7,219.2z M230.4,221.1l4.2,4.2c-1.1,1.1-2.6,1.8-4.2,1.8
		s-3-0.7-4.2-1.8L230.4,221.1z M232.8,218.7l2.9-2.8l1.4,1.4v2c0,1.1-0.2,2.2-0.6,3.2L232.8,218.7L232.8,218.7L232.8,218.7z
		 M246.1,214.6h5.9c0,1.6-0.6,3.1-1.7,4.2c-1.1,1.1-2.6,1.7-4.2,1.7L246.1,214.6L246.1,214.6L246.1,214.6z M246.1,211.2v-4h1.9
		l1.4,1.4c0.8,0.8,1.4,1.7,1.8,2.6C251.3,211.2,246.1,211.2,246.1,211.2z M252.6,198.8l4.2-4.2c1.1,1.1,1.8,2.6,1.8,4.2
		s-0.7,3-1.8,4.2L252.6,198.8z M255.4,191.2c-1.2-0.5-2.6-0.8-4.1-0.8h-0.9l0.6-0.6c1-1,1.8-2.2,2.3-3.4h0.4c1.6,0,3.2,0.2,4.7,0.7
		c-0.7,1.4-1.7,2.6-2.8,3.8L255.4,191.2L255.4,191.2L255.4,191.2z M230.4,160.7L230.4,160.7c4.3,0,8.1,2.6,10.3,6.5
		c-1.5,0.9-2.9,2-4.2,3.3l-0.2,0.2c-1.5-1.7-3.5-2.8-5.8-2.8s-4.3,1.1-5.8,2.8l-0.2-0.2c-1.3-1.3-2.7-2.4-4.2-3.3
		C222.3,163.3,226.1,160.7,230.4,160.7L230.4,160.7L230.4,160.7L230.4,160.7z M203.4,171.9L203.4,171.9c3-3,7.5-3.9,11.9-2.7
		c-0.4,1.7-0.7,3.5-0.7,5.3v0.4c-2.3-0.2-4.5,0.5-6.1,2.1c-1.6,1.6-2.3,3.8-2.1,6.1H206c-1.8,0-3.6,0.2-5.3,0.7
		C199.5,179.4,200.4,174.9,203.4,171.9L203.4,171.9L203.4,171.9z M192.2,198.8L192.2,198.8c0-4.3,2.6-8.1,6.5-10.3
		c0.9,1.5,2,2.9,3.3,4.2l0.2,0.2c-1.7,1.5-2.8,3.5-2.8,5.8s1.1,4.3,2.8,5.8l-0.2,0.2c-1.3,1.3-2.4,2.7-3.3,4.2
		C194.8,206.9,192.2,203.1,192.2,198.8C192.2,198.8,192.2,198.8,192.2,198.8z M203.4,225.8L203.4,225.8c-3-3-3.9-7.5-2.7-11.9
		c1.7,0.4,3.5,0.7,5.3,0.7h0.4c-0.1,2.3,0.5,4.5,2.1,6.1c1.6,1.6,3.8,2.3,6.1,2.1v0.4c0,1.9,0.2,3.6,0.7,5.3
		C210.9,229.7,206.4,228.8,203.4,225.8L203.4,225.8L203.4,225.8z M230.4,236.9L230.4,236.9c-4.3,0-8.1-2.6-10.3-6.5
		c1.5-0.9,2.9-2,4.2-3.3l0.2-0.2c1.5,1.7,3.5,2.8,5.8,2.8s4.3-1.1,5.8-2.8l0.2,0.2c1.3,1.3,2.7,2.4,4.2,3.3
		C238.4,234.4,234.6,236.9,230.4,236.9L230.4,236.9L230.4,236.9L230.4,236.9z M257.3,225.8L257.3,225.8c-3,3-7.5,3.9-11.9,2.7
		c0.4-1.7,0.7-3.5,0.7-5.3v-0.4c2.3,0.2,4.5-0.5,6.1-2.1c1.6-1.6,2.3-3.8,2.1-6.1h0.4c1.9,0,3.6-0.2,5.3-0.7
		C261.2,218.2,260.4,222.7,257.3,225.8L257.3,225.8L257.3,225.8z M268.5,198.8c0,4.3-2.6,8.1-6.5,10.3c-0.9-1.5-2-2.9-3.3-4.2
		l-0.2-0.2c1.7-1.5,2.8-3.5,2.8-5.8s-1.1-4.3-2.8-5.8l0.2-0.2c1.3-1.3,2.4-2.7,3.3-4.2C265.9,190.8,268.5,194.5,268.5,198.8
		L268.5,198.8C268.5,198.8,268.5,198.8,268.5,198.8z"/>
	<g>
		<path d="M97.3,302.1c-1.9,0-3.6-0.3-5.1-0.9c-1.5-0.6-2.8-1.4-3.8-2.6c-1-1.1-1.8-2.5-2.4-4.1c-0.5-1.6-0.8-3.5-0.8-5.6
			s0.3-3.9,1-5.6c0.6-1.6,1.5-3,2.6-4.1c1.1-1.1,2.4-2,3.9-2.5c1.5-0.6,3.1-0.9,4.8-0.9c1,0,2,0.1,2.8,0.2c0.8,0.2,1.6,0.3,2.2,0.5
			c0.6,0.2,1.1,0.4,1.6,0.6c0.4,0.2,0.7,0.4,0.9,0.5l-1.3,3.7c-0.6-0.4-1.4-0.7-2.5-1c-1.1-0.3-2.2-0.5-3.5-0.5
			c-1.1,0-2.1,0.2-3,0.6c-0.9,0.4-1.8,0.9-2.4,1.7c-0.7,0.8-1.2,1.7-1.6,2.8s-0.6,2.4-0.6,3.9c0,1.3,0.2,2.5,0.4,3.6
			c0.3,1.1,0.8,2.1,1.4,2.9c0.6,0.8,1.4,1.4,2.4,1.9c1,0.5,2.1,0.7,3.5,0.7c1.6,0,2.9-0.2,3.9-0.5c1-0.3,1.8-0.6,2.3-0.9l1.2,3.7
			c-0.3,0.2-0.7,0.4-1.2,0.6c-0.5,0.2-1.1,0.4-1.8,0.6c-0.7,0.2-1.4,0.3-2.3,0.4C99.2,302,98.2,302,97.3,302.1L97.3,302.1
			L97.3,302.1z"/>
		<path d="M109,301.5v-27.3l4.4-0.7v9.4c0.5-0.2,1-0.3,1.7-0.4s1.3-0.2,1.9-0.2c1.5,0,2.8,0.2,3.8,0.6c1,0.4,1.8,1,2.4,1.8
			s1,1.7,1.3,2.7s0.4,2.2,0.4,3.5v10.6h-4.4v-9.9c0-1-0.1-1.9-0.2-2.6c-0.1-0.7-0.3-1.3-0.7-1.7c-0.3-0.4-0.7-0.8-1.2-1
			c-0.5-0.2-1.1-0.3-1.9-0.3c-0.6,0-1.2,0.1-1.8,0.2s-1.1,0.2-1.3,0.3v15C113.4,301.5,109,301.5,109,301.5z"/>
		<path d="M136.3,282.1c1.5,0,2.7,0.2,3.7,0.5c1,0.4,1.8,0.9,2.4,1.5c0.6,0.6,1,1.4,1.3,2.4s0.4,1.9,0.4,3v11.5
			c-0.7,0.1-1.7,0.3-3.1,0.5c-1.4,0.2-2.9,0.3-4.6,0.3c-1.1,0-2.2-0.1-3.1-0.3s-1.7-0.6-2.4-1.1c-0.7-0.5-1.2-1.1-1.6-1.9
			c-0.4-0.8-0.6-1.7-0.6-2.9s0.2-2,0.6-2.8c0.4-0.8,1-1.4,1.7-1.8c0.7-0.5,1.6-0.8,2.5-1c0.9-0.2,1.9-0.3,3-0.3c0.5,0,1,0,1.5,0.1
			s1.1,0.2,1.7,0.3v-0.7c0-0.5-0.1-1-0.2-1.5c-0.1-0.5-0.3-0.9-0.6-1.2s-0.7-0.6-1.2-0.8s-1.1-0.3-1.9-0.3c-1,0-1.9,0.1-2.8,0.2
			c-0.8,0.1-1.5,0.3-2.1,0.5l-0.5-3.5c0.6-0.2,1.4-0.4,2.4-0.6C134,282.2,135.1,282.1,136.3,282.1L136.3,282.1L136.3,282.1z
			 M136.7,298.4c1.4,0,2.4-0.1,3.1-0.2v-4.8c-0.2-0.1-0.6-0.1-1.1-0.2c-0.5-0.1-1-0.1-1.5-0.1c-0.5,0-1,0-1.5,0.1
			c-0.5,0.1-0.9,0.2-1.3,0.4c-0.4,0.2-0.7,0.5-1,0.8c-0.2,0.4-0.4,0.8-0.4,1.3c0,1,0.3,1.8,1,2.1S135.6,298.4,136.7,298.4z"/>
		<path d="M149.1,277.6l4.4-0.7v5.7h6.7v3.6h-6.7v7.7c0,1.5,0.2,2.6,0.7,3.2c0.5,0.6,1.3,1,2.5,1c0.8,0,1.5-0.1,2.1-0.2
			c0.6-0.2,1.1-0.3,1.5-0.5l0.7,3.5c-0.5,0.2-1.2,0.4-2,0.7c-0.8,0.2-1.8,0.3-2.9,0.3c-1.3,0-2.5-0.2-3.4-0.5
			c-0.9-0.4-1.6-0.9-2.2-1.6c-0.5-0.7-0.9-1.5-1.1-2.5c-0.2-1-0.3-2.1-0.3-3.3L149.1,277.6L149.1,277.6L149.1,277.6z"/>
		<path d="M189.1,279.3c0.4,1.3,0.8,2.7,1.2,4.1c0.4,1.4,0.9,2.8,1.4,4.2c0.5,1.4,0.9,2.8,1.4,4.2c0.5,1.4,0.9,2.6,1.3,3.9
			c0.4-1.3,0.7-2.7,1.1-4.2s0.7-3.1,1-4.8c0.3-1.6,0.7-3.3,1-5c0.3-1.7,0.6-3.4,0.9-5.1h4.7c-0.8,4.5-1.8,8.9-2.8,13.1
			s-2.2,8.2-3.5,12h-4.4c-1.9-4.9-3.7-10.2-5.4-15.9c-0.9,2.9-1.8,5.7-2.7,8.3c-0.9,2.6-1.8,5.2-2.8,7.6h-4.3
			c-1.3-3.8-2.5-7.8-3.5-12s-1.9-8.5-2.8-13.1h4.9c0.3,1.6,0.6,3.3,0.9,5c0.3,1.7,0.7,3.4,1,5c0.4,1.6,0.7,3.2,1.1,4.8
			c0.4,1.5,0.7,3,1.1,4.3c0.5-1.2,0.9-2.5,1.4-3.9c0.5-1.4,0.9-2.8,1.4-4.2c0.5-1.4,0.9-2.8,1.3-4.2c0.4-1.4,0.8-2.8,1.2-4.1
			L189.1,279.3L189.1,279.3z"/>
		<path d="M223.1,292c0,1.5-0.2,2.9-0.6,4.1c-0.4,1.2-1.1,2.3-1.8,3.1c-0.8,0.9-1.8,1.5-2.9,2s-2.4,0.7-3.7,0.7s-2.6-0.2-3.7-0.7
			c-1.1-0.5-2.1-1.2-2.8-2c-0.8-0.9-1.4-1.9-1.9-3.1c-0.4-1.2-0.7-2.6-0.7-4.1c0-1.5,0.2-2.9,0.7-4.1s1.1-2.3,1.9-3.1s1.8-1.5,2.9-2
			s2.3-0.7,3.6-0.7s2.6,0.2,3.7,0.7s2.1,1.1,2.9,2c0.8,0.9,1.4,1.9,1.9,3.1S223.1,290.5,223.1,292L223.1,292L223.1,292z M218.7,292
			c0-1.9-0.4-3.4-1.2-4.5c-0.8-1.1-1.9-1.6-3.4-1.6s-2.6,0.5-3.4,1.6c-0.8,1.1-1.2,2.6-1.2,4.5s0.4,3.4,1.2,4.5
			c0.8,1.1,1.9,1.7,3.4,1.7s2.6-0.5,3.4-1.7C218.3,295.5,218.7,294,218.7,292z"/>
		<path d="M238.4,286.6c-0.4-0.1-0.9-0.2-1.5-0.4s-1.4-0.2-2.2-0.2c-0.5,0-1,0.1-1.5,0.1c-0.5,0.1-0.9,0.2-1.1,0.2v15.1h-4.4v-18
			c0.8-0.3,1.9-0.6,3.2-0.9c1.3-0.3,2.7-0.4,4.2-0.4c0.3,0,0.6,0,1,0c0.4,0,0.8,0.1,1.2,0.1s0.8,0.1,1.1,0.2
			c0.4,0.1,0.6,0.2,0.9,0.2L238.4,286.6L238.4,286.6L238.4,286.6z"/>
		<path d="M246.6,290c0.6-0.6,1.1-1.2,1.8-1.9s1.2-1.3,1.8-2c0.6-0.7,1.2-1.3,1.7-1.9c0.5-0.6,1-1.1,1.4-1.6h5.2
			c-1.2,1.4-2.5,2.8-3.8,4.2c-1.3,1.4-2.7,2.9-4,4.2c0.7,0.6,1.5,1.3,2.3,2.2c0.8,0.9,1.6,1.8,2.3,2.7c0.8,1,1.4,1.9,2.1,2.9
			c0.6,1,1.2,1.9,1.6,2.7h-5.1c-0.4-0.8-0.9-1.5-1.5-2.4s-1.2-1.6-1.8-2.4c-0.6-0.8-1.3-1.5-2-2.2c-0.7-0.7-1.3-1.3-2-1.8v8.7h-4.4
			v-27.3l4.4-0.7L246.6,290L246.6,290L246.6,290z"/>
		<path d="M266.9,298.4c1.2,0,2-0.1,2.5-0.4s0.8-0.8,0.8-1.4c0-0.6-0.3-1.1-0.9-1.5s-1.5-0.9-2.8-1.3c-0.8-0.3-1.5-0.6-2.2-0.9
			c-0.7-0.3-1.2-0.7-1.7-1.1c-0.5-0.4-0.9-1-1.1-1.6c-0.3-0.6-0.4-1.4-0.4-2.3c0-1.7,0.6-3.1,1.9-4.1c1.3-1,3-1.5,5.2-1.5
			c1.1,0,2.2,0.1,3.2,0.3c1,0.2,1.8,0.4,2.3,0.6l-0.8,3.5c-0.5-0.2-1.1-0.4-1.8-0.6c-0.8-0.2-1.6-0.3-2.6-0.3
			c-0.9,0-1.6,0.1-2.2,0.5c-0.6,0.3-0.8,0.8-0.8,1.4c0,0.3,0.1,0.6,0.2,0.8c0.1,0.2,0.3,0.5,0.6,0.7c0.3,0.2,0.6,0.4,1.1,0.6
			c0.4,0.2,1,0.4,1.6,0.6c1,0.4,1.9,0.8,2.6,1.1c0.7,0.4,1.3,0.8,1.8,1.3c0.5,0.5,0.8,1,1,1.6s0.3,1.3,0.3,2.2c0,1.8-0.7,3.2-2,4.1
			c-1.3,0.9-3.2,1.4-5.7,1.4c-1.7,0-3-0.1-4-0.4c-1-0.3-1.7-0.5-2.1-0.7l0.8-3.6c0.6,0.3,1.4,0.5,2.3,0.8
			C264.7,298.2,265.7,298.3,266.9,298.4L266.9,298.4L266.9,298.4z"/>
		<path d="M278.4,277.6l4.4-0.7v5.7h6.7v3.6h-6.7v7.7c0,1.5,0.2,2.6,0.7,3.2c0.5,0.6,1.3,1,2.5,1c0.8,0,1.5-0.1,2.1-0.2
			c0.6-0.2,1.1-0.3,1.5-0.5l0.7,3.5c-0.5,0.2-1.2,0.4-2,0.7c-0.8,0.2-1.8,0.3-2.9,0.3c-1.4,0-2.5-0.2-3.4-0.5
			c-0.9-0.4-1.6-0.9-2.1-1.6c-0.5-0.7-0.9-1.5-1.1-2.5c-0.2-1-0.3-2.1-0.3-3.3L278.4,277.6L278.4,277.6L278.4,277.6z"/>
		<path d="M300,282.1c1.4,0,2.7,0.2,3.6,0.5c1,0.4,1.8,0.9,2.4,1.5c0.6,0.6,1,1.4,1.3,2.4s0.4,1.9,0.4,3v11.5
			c-0.7,0.1-1.7,0.3-3,0.5c-1.4,0.2-2.9,0.3-4.6,0.3c-1.1,0-2.2-0.1-3.1-0.3s-1.7-0.6-2.4-1.1c-0.7-0.5-1.2-1.1-1.6-1.9
			c-0.4-0.8-0.6-1.7-0.6-2.9s0.2-2,0.6-2.8c0.4-0.8,1-1.4,1.7-1.8c0.7-0.5,1.6-0.8,2.5-1c0.9-0.2,1.9-0.3,3-0.3c0.5,0,1,0,1.5,0.1
			s1.1,0.2,1.7,0.3v-0.7c0-0.5-0.1-1-0.2-1.5s-0.3-0.9-0.6-1.2c-0.3-0.4-0.7-0.6-1.2-0.8c-0.5-0.2-1.1-0.3-1.9-0.3
			c-1,0-1.9,0.1-2.8,0.2c-0.8,0.1-1.5,0.3-2.1,0.5l-0.5-3.5c0.6-0.2,1.4-0.4,2.4-0.6C297.7,282.2,298.8,282.1,300,282.1L300,282.1
			L300,282.1z M300.4,298.4c1.4,0,2.4-0.1,3.1-0.2v-4.8c-0.2-0.1-0.6-0.1-1-0.2c-0.5-0.1-1-0.1-1.5-0.1c-0.5,0-1,0-1.5,0.1
			c-0.5,0.1-0.9,0.2-1.3,0.4c-0.4,0.2-0.7,0.5-1,0.8c-0.2,0.4-0.4,0.8-0.4,1.3c0,1,0.3,1.8,1,2.1S299.3,298.4,300.4,298.4
			L300.4,298.4L300.4,298.4z"/>
		<path d="M312.8,277.6l4.4-0.7v5.7h6.7v3.6h-6.7v7.7c0,1.5,0.2,2.6,0.7,3.2c0.5,0.6,1.3,1,2.5,1c0.8,0,1.5-0.1,2.1-0.2
			c0.6-0.2,1.1-0.3,1.5-0.5l0.7,3.5c-0.5,0.2-1.2,0.4-2,0.7c-0.8,0.2-1.8,0.3-2.9,0.3c-1.4,0-2.5-0.2-3.4-0.5
			c-0.9-0.4-1.6-0.9-2.1-1.6c-0.5-0.7-0.9-1.5-1.1-2.5c-0.2-1-0.3-2.1-0.3-3.3L312.8,277.6L312.8,277.6L312.8,277.6z"/>
		<path d="M333,277.1c0,0.8-0.3,1.5-0.8,1.9c-0.5,0.5-1.2,0.7-1.9,0.7s-1.4-0.2-1.9-0.7c-0.5-0.5-0.8-1.1-0.8-1.9
			c0-0.8,0.3-1.5,0.8-2c0.5-0.5,1.2-0.7,1.9-0.7s1.4,0.2,1.9,0.7C332.8,275.6,333,276.2,333,277.1z M332.5,301.5h-4.4v-18.9h4.4
			V301.5z"/>
		<path d="M355.2,292c0,1.5-0.2,2.9-0.6,4.1c-0.4,1.2-1,2.3-1.8,3.1c-0.8,0.9-1.8,1.5-2.9,2s-2.4,0.7-3.7,0.7s-2.6-0.2-3.7-0.7
			c-1.1-0.5-2.1-1.2-2.9-2c-0.8-0.9-1.4-1.9-1.9-3.1c-0.5-1.2-0.7-2.6-0.7-4.1c0-1.5,0.2-2.9,0.7-4.1c0.4-1.2,1.1-2.3,1.9-3.1
			s1.8-1.5,2.9-2c1.1-0.5,2.3-0.7,3.6-0.7s2.5,0.2,3.7,0.7c1.1,0.5,2.1,1.1,2.9,2c0.8,0.9,1.4,1.9,1.9,3.1
			C355,289.2,355.2,290.5,355.2,292L355.2,292z M350.7,292c0-1.9-0.4-3.4-1.2-4.5c-0.8-1.1-1.9-1.6-3.4-1.6s-2.6,0.5-3.4,1.6
			c-0.8,1.1-1.2,2.6-1.2,4.5s0.4,3.4,1.2,4.5c0.8,1.1,1.9,1.7,3.4,1.7s2.6-0.5,3.4-1.7C350.3,295.5,350.7,294,350.7,292z"/>
		<path d="M359.7,283.2c0.8-0.2,1.9-0.5,3.3-0.7s2.8-0.3,4.5-0.3c1.5,0,2.8,0.2,3.9,0.6c1,0.4,1.9,1,2.5,1.8c0.6,0.8,1,1.7,1.3,2.8
			c0.2,1.1,0.4,2.2,0.4,3.5v10.6h-4.4v-9.9c0-1-0.1-1.9-0.2-2.6c-0.1-0.7-0.4-1.3-0.6-1.7c-0.3-0.5-0.7-0.8-1.2-1
			c-0.5-0.2-1.1-0.3-1.9-0.3c-0.5,0-1.1,0-1.7,0.1s-1,0.1-1.3,0.2v15.2h-4.4V283.2L359.7,283.2L359.7,283.2z"/>
	</g>
</g>
<path class="st2" d="M-118.2,983.3V438.4c35.4,0,35.4-29.9,70.8-29.9c37.2,0,37.2,1.8,74.3,1.8c41.3,0,41.3-0.9,82.7-0.9
	c51.9,0,51.9,47.5,103.8,47.5c48.6,0,48.6,2.2,97.2,2.2s48.6,4.8,97.2,4.8c33.6,0,33.6,2.2,67.3,2.2c35.8,0,35.8-46.6,71.7-46.6
	c38,0,38,41.8,76.1,41.8c47.7,0,47.7-4,95.4-4l41.3-18.9v544.9H-118.2z"/>
<path class="st2" d="M-118.2,983.3l4.8-529.1c31.9,0,31.9-28.6,63.8-28.6c30.1,0,30.1,5.7,60.2,5.7c34.3,0,34.3,44.9,68.6,44.9
	c27.9,0,27.9-4.8,55.9-4.8c30.8,0,30.8-34.3,61.6-34.3c26.4,0,26.4,44.9,52.8,44.9c35.8,0,35.8-4.4,71.7-4.4
	c50.6,0,50.6-49.3,101.1-49.3c25.9,0,25.9,3.1,51.9,3.1c37.8,0,37.8,48.8,75.6,48.8c39.4,0,39.4,1.8,78.7,1.8
	c39.4,0,39.4-10.6,78.7-10.6l52.3-17.2v529.1H-118.2z"/>
<path class="st2" d="M-118.2,983.3l9.7-512.8c51.9,0,51.9-24.2,103.8-24.2c48.8,0,48.8-4.4,97.6-4.4c33.9,0,33.9,12.3,67.7,12.3
	c45.7,0,45.7-6.6,91.5-6.6c45.3,0,45.3-3.1,90.6-3.1c29.7,0,29.7,41.8,59.4,41.8c40.9,0,40.9-46.2,81.8-46.2
	c40.5,0,40.5,2.6,80.9,2.6c34.3,0,34.3,8.4,68.6,8.4c27.5,0,27.5-10.1,55-10.1l71.2,29.5v512.8H-118.2z"/>
<path class="st2" d="M-118.2,983.3l14.5-497c36.3,0,36.3-18,72.6-18c40,0,40,41.8,80,41.8c26.4,0,26.4-5.3,52.8-5.3
	c44.9,0,44.9,2.6,89.7,2.6c44,0,44-44.4,88-44.4c42.7,0,42.7-0.9,85.3-0.9c37.4,0,37.4,51,74.8,51c35.4,0,35.4-42.7,70.8-42.7
	c27.5,0,27.5-0.4,55-0.4c45.1,0,45.1-4,90.2-4l104.2,20.2v497H-118.2z"/>
<path class="st2" d="M-118.2,983.3l19.4-480.7c26.4,0,26.4,29.5,52.8,29.5c44.9,0,44.9-57.2,89.7-57.2c46.8,0,46.8,48.8,93.7,48.8
	c28.8,0,28.8,9.2,57.6,9.2c49.3,0,49.3,0,98.5,0c47.3,0,47.3-11.9,94.6-11.9c38,0,38-1.8,76.1-1.8c28.8,0,28.8-39.1,57.6-39.1
	c50.6,0,50.6,44,101.1,44c51.7,0,51.7-37.4,103.3-37.4l33.4,15.8v480.7H-118.2z"/>
<path class="st2" d="M-118.2,983.3L-94,518.9c34.1,0,34.1-18.9,68.2-18.9c26.8,0,26.8-10.6,53.7-10.6c31.7,0,31.7,58.5,63.3,58.5
	c38,0,38-10.6,76.1-10.6c31.7,0,31.7,11,63.3,11c41.1,0,41.1-3.5,82.2-3.5c44.9,0,44.9-50.6,89.7-50.6s44.9-0.9,89.7-0.9
	c27.5,0,27.5,0.9,55,0.9c46.6,0,46.6,0,93.2,0l119.2,24.6v464.4H-118.2z"/>
<path class="st2" d="M-118.2,983.3l29-448.6c32.1,0,32.1-18.9,64.2-18.9c32.5,0,32.5,36.5,65.1,36.5c29.2,0,29.2,7.9,58.5,7.9
	c42.4,0,42.4-42.7,84.9-42.7c27.5,0,27.5-10.6,55-10.6c39.4,0,39.4,47.5,78.7,47.5c47.5,0,47.5-0.9,95-0.9
	c32.3,0,32.3-39.6,64.6-39.6c44,0,44,0.9,88,0.9c27,0,27,4,54.1,4c49.5,0,49.5-11.9,99-11.9l41.8,27.7v448.6H-118.2z"/>
<path class="st2" d="M-118.2,983.3L-84.4,551c25.9,0,25.9,16.3,51.9,16.3c37.6,0,37.6-39.6,75.2-39.6c48.2,0,48.2-1.8,96.3-1.8
	c50.1,0,50.1,41.8,100.3,41.8c42.4,0,42.4,13.6,84.9,13.6c33.2,0,33.2-56.7,66.4-56.7c33.9,0,33.9,2.6,67.7,2.6
	c30.1,0,30.1-5.7,60.2-5.7c27.9,0,27.9,9.2,55.9,9.2c46.4,0,46.4,49.7,92.8,49.7l92.4-29.5v432.3H-118.2z"/>
<path class="st2" d="M-118.2,983.3l38.7-416c29.2,0,29.2-25.1,58.5-25.1c49.5,0,49.5,46.2,99,46.2c45.7,0,45.7-47.1,91.5-47.1
	c43.3,0,43.3,4.8,86.6,4.8c28.8,0,28.8,5.7,57.6,5.7c37.2,0,37.2-7.9,74.3-7.9c47.1,0,47.1-0.4,94.1-0.4c27.5,0,27.5,6.6,55,6.6
	c46.4,0,46.4-2.2,92.8-2.2c26.8,0,26.8,40.9,53.7,40.9l76.1-21.5v416H-118.2z"/>
<path class="st2" d="M-118.2,983.3l43.5-400.2c40,0,40-29,80-29c50.8,0,50.8,50.1,101.6,50.1c37.8,0,37.8-4.8,75.6-4.8
	c30.3,0,30.3,3.5,60.7,3.5c38.3,0,38.3,2.2,76.5,2.2c43.1,0,43.1-43.1,86.2-43.1c31,0,31,5.3,62,5.3c26.8,0,26.8-9.2,53.7-9.2
	c42.4,0,42.4,49.3,84.9,49.3c44.9,0,44.9-4.4,89.7-4.4l63.3-19.8v400.2H-118.2z"/>
<path class="st2" d="M-118.2,983.3l48.4-383.9c42.9,0,42.9,29,85.8,29c48.2,0,48.2-53.7,96.3-53.7c26.4,0,26.4-4.8,52.8-4.8
	c25.9,0,25.9,59.8,51.9,59.8c34.1,0,34.1-7.9,68.2-7.9c51.7,0,51.7-44.9,103.3-44.9c29.9,0,29.9-4,59.8-4
	c39.6,0,39.6,47.5,79.2,47.5c35.2,0,35.2-46.2,70.4-46.2c31.2,0,31.2,49.3,62.4,49.3l99.4-24.2v383.9H-118.2z"/>
<path class="st2" d="M-118.2,983.3L-65,615.6c46.2,0,46.2,22.9,92.4,22.9c43.1,0,43.1-0.9,86.2-0.9c32.3,0,32.3-37.4,64.6-37.4
	c40.5,0,40.5,30.8,80.9,30.8c41.6,0,41.6-35.6,83.1-35.6c27.9,0,27.9,2.6,55.9,2.6c49.9,0,49.9-9.2,99.8-9.2
	c33.4,0,33.4,9.7,66.8,9.7c34.5,0,34.5-2.2,69-2.2l125.8,19.4v367.7H-118.2z"/>
<path class="st2" d="M-118.2,983.3l58.1-351.8c34.1,0,34.1,19.4,68.2,19.4c43.3,0,43.3-3.5,86.6-3.5c39.8,0,39.8,0.4,79.6,0.4
	c42.7,0,42.7-33,85.3-33c46,0,46,36.1,91.9,36.1c43.5,0,43.5,7,87.1,7c26.8,0,26.8-46.6,53.7-46.6c35.2,0,35.2-2.2,70.4-2.2
	c51.2,0,51.2,46.6,102.5,46.6l94.6-24.2v351.8H-118.2z"/>
<path class="st2" d="M-118.2,983.3l62.9-335.6c47.1,0,47.1,18.9,94.1,18.9c26.8,0,26.8-47.1,53.7-47.1c42.4,0,42.4,52.8,84.9,52.8
	c35,0,35-41.8,69.9-41.8c44.6,0,44.6-4.4,89.3-4.4c27,0,27,47.5,54.1,47.5c37.8,0,37.8-46.2,75.6-46.2c38.9,0,38.9,49.7,77.8,49.7
	c47.3,0,47.3-14.1,94.6-14.1l120.9-15.4v335.6H-118.2z"/>
<path class="st2" d="M-118.2,983.3L-50.5,664c41.3,0,41.3-21.1,82.7-21.1c41.1,0,41.1,49.3,82.2,49.3c49.7,0,49.7-45.7,99.4-45.7
	c33,0,33-6.6,66-6.6c27.3,0,27.3-1.3,54.5-1.3c32.1,0,32.1,47.1,64.2,47.1c43.1,0,43.1,1.8,86.2,1.8c27.9,0,27.9-52.8,55.9-52.8
	c47.7,0,47.7,11.4,95.4,11.4l123.6,18v319.3H-118.2z"/>
<path class="st2" d="M-118.2,983.3l72.6-303.4c28.6,0,28.6,18.5,57.2,18.5c41.8,0,41.8-35.2,83.6-35.2c51.7,0,51.7,37.4,103.3,37.4
	c43.5,0,43.5-42.2,87.1-42.2c45.7,0,45.7,51.5,91.5,51.5c38.7,0,38.7-55.9,77.4-55.9c40.9,0,40.9,53.7,81.8,53.7
	c46,0,46-11.9,91.9-11.9c38.5,0,38.5-42.7,77-42.7l54.5,26.8v303.4H-118.2z"/>
<path class="st2" d="M-118.2,983.3l77.4-287.2c43.8,0,43.8,29.9,87.5,29.9c32.3,0,32.3,0.4,64.6,0.4s32.3-14.5,64.6-14.5
	c35.8,0,35.8,6.6,71.7,6.6c47.9,0,47.9-52.3,95.9-52.3c44.2,0,44.2,55.9,88.4,55.9c41.3,0,41.3-0.4,82.7-0.4
	c51.9,0,51.9-3.5,103.8-3.5c51,0,51-39.6,102-39.6l39.1,17.6v287.2H-118.2z"/>
<path class="st2" d="M-118.2,983.3L-36,712.4c46.6,0,46.6,16.3,93.2,16.3c30.6,0,30.6,5.7,61.1,5.7c36.7,0,36.7-41.3,73.4-41.3
	c40,0,40-5.3,80-5.3c34.5,0,34.5,6.6,69,6.6c26.2,0,26.2,33.4,52.3,33.4c32.3,0,32.3-37.8,64.6-37.8c35.8,0,35.8,4.4,71.7,4.4
	c26.6,0,26.6,41.3,53.2,41.3c26.4,0,26.4-52.8,52.8-52.8l124,29.5v270.9H-118.2z"/>
<path class="st2" d="M-118.2,983.3l87.1-255.1c50.1,0,50.1-19.4,100.3-19.4c27.9,0,27.9,42.2,55.9,42.2c38.9,0,38.9,1.3,77.8,1.3
	c34.7,0,34.7-7,69.5-7c28.1,0,28.1-43.5,56.3-43.5c44.6,0,44.6,47.9,89.3,47.9c30.8,0,30.8-44,61.6-44c44.2,0,44.2-6.2,88.4-6.2
	c49.3,0,49.3,5.7,98.5,5.7l93.2,22.9v255.1H-118.2z"/>
<path class="st2" d="M-118.2,983.3l91.9-238.8c47.5,0,47.5-15.4,95-15.4c44.2,0,44.2-8.4,88.4-8.4c39.8,0,39.8-6.2,79.6-6.2
	c27.9,0,27.9,47.5,55.9,47.5c35,0,35-1.3,69.9-1.3c37.8,0,37.8,4,75.6,4c47.5,0,47.5,2.2,95,2.2c31.7,0,31.7-0.9,63.3-0.9
	c51.7,0,51.7-3.1,103.3-3.1l59.8-18.5v238.8H-118.2z"/>
<path class="st2" d="M-118.2,983.3l96.8-222.5c33.4,0,33.4,28.1,66.8,28.1c41.8,0,41.8-12.8,83.6-12.8c51.7,0,51.7-31.2,103.3-31.2
	c42.2,0,42.2-0.4,84.4-0.4c38.3,0,38.3,34.3,76.5,34.3c51,0,51,12.3,102,12.3c35.4,0,35.4-11,70.8-11c39.1,0,39.1,11,78.3,11
	l115.2-30.3v222.5H-118.2z"/>
<path class="st2" d="M-118.2,983.3l101.6-206.7c32.3,0,32.3,18,64.6,18c41.8,0,41.8-35.6,83.6-35.6c51.9,0,51.9,41.8,103.8,41.8
	c30.3,0,30.3-41.8,60.7-41.8c38,0,38-11,76.1-11c33.9,0,33.9,54.1,67.7,54.1c42.9,0,42.9-50.6,85.8-50.6c41.6,0,41.6,54.5,83.1,54.5
	c51.9,0,51.9-52.3,103.8-52.3l47.1,22.9v206.7H-118.2z"/>
<path class="st2" d="M-118.2,983.3l106.4-190.4c29.9,0,29.9-20.2,59.8-20.2c33.4,0,33.4,50.1,66.8,50.1c27.9,0,27.9-0.9,55.9-0.9
	c43.1,0,43.1-4.8,86.2-4.8c40.2,0,40.2-51,80.5-51c43.1,0,43.1-2.2,86.2-2.2c34.7,0,34.7-1.3,69.5-1.3c45.5,0,45.5,4,91,4
	c37.4,0,37.4,2.2,74.8,2.2l100.7,24.2v190.4H-118.2z"/>
<path class="st2" d="M-118.2,983.3L-7,809.1c27.5,0,27.5-29.5,55-29.5c31.4,0,31.4,48.4,62.9,48.4c27.7,0,27.7,2.6,55.4,2.6
	c48.4,0,48.4,0.9,96.8,0.9c42,0,42-2.6,84-2.6c32.8,0,32.8,10.1,65.5,10.1c49.9,0,49.9-8.4,99.8-8.4c42.2,0,42.2-38.7,84.4-38.7
	c47.5,0,47.5,36.1,95,36.1l67.7-18.9v174.2H-118.2z"/>
<path class="st2" d="M-118.2,983.3L-2.1,824.9c37.4,0,37.4-28.6,74.8-28.6c48.6,0,48.6,2.6,97.2,2.6c47.3,0,47.3,53.7,94.6,53.7
	c45.3,0,45.3-9.7,90.6-9.7c41.3,0,41.3-43.1,82.7-43.1c31.7,0,31.7,40.9,63.3,40.9c44.9,0,44.9,11.9,89.7,11.9
	c32.3,0,32.3-10.1,64.6-10.1l104.2-17.6v158.3H-118.2z"/>
<path class="st2" d="M-118.2,983.3l120.9-142c34.7,0,34.7-15.4,69.5-15.4c29.5,0,29.5-6.6,58.9-6.6c41.3,0,41.3,6.2,82.7,6.2
	c38.5,0,38.5,33,77,33c36.9,0,36.9-47.5,73.9-47.5c31,0,31,51,62,51c48.6,0,48.6-0.4,97.2-0.4c33.4,0,33.4-36.9,66.8-36.9
	c43.1,0,43.1-13.6,86.2-13.6l82.7,30.3v142H-118.2z"/>
<path class="st2" d="M-118.2,983.3L7.6,857.5c35,0,35,21.1,69.9,21.1c42,0,42-44.9,84-44.9c34.3,0,34.3,1.8,68.6,1.8
	c42.2,0,42.2,50.6,84.4,50.6c26.4,0,26.4-51.5,52.8-51.5c34.5,0,34.5,51.9,69,51.9c27,0,27-58.9,54.1-58.9c36.9,0,36.9,5.3,73.9,5.3
	c49.5,0,49.5,51.9,99,51.9l96.3-27.3v125.8H-118.2z"/>
</svg>
