<?xml version="1.0" encoding="UTF-8"?>
<svg id="uuid-edb6776a-daf9-499c-b6ff-4f31ab853eb8" data-name="图层 1" xmlns="http://www.w3.org/2000/svg" viewBox="0 0 97.38 97.38">
  <rect x=".5" y=".5" width="96.38" height="96.38" rx="11.34" ry="11.34" style="fill: #fff; stroke: #fff; stroke-miterlimit: 10;"/>
  <path d="M81.98,34.9c2.15-5.95,1.24-12.34-2.96-16.54h0c-4.2-4.2-10.6-5.11-16.54-2.96-2.69-5.72-7.85-9.6-13.79-9.6h0c-5.94,0-11.11,3.88-13.79,9.6-5.95-2.15-12.34-1.24-16.54,2.96h0c-4.2,4.2-5.11,10.6-2.96,16.54-5.72,2.69-9.6,7.85-9.6,13.79h0c0,5.94,3.88,11.11,9.6,13.79-2.15,5.95-1.24,12.34,2.96,16.54h0c4.2,4.2,10.6,5.11,16.54,2.96,2.69,5.72,7.85,9.6,13.79,9.6h0c5.94,0,11.11-3.88,13.79-9.6,5.95,2.15,12.34,1.24,16.54-2.96,4.2-4.2,5.11-10.6,2.96-16.54,5.72-2.69,9.6-7.85,9.6-13.79h0c0-5.94-3.88-11.11-9.6-13.79ZM75.65,21.73h0c3.04,3.04,3.88,7.53,2.68,11.87-1.69-.43-3.48-.67-5.33-.67h-.36c.15-2.27-.54-4.46-2.14-6.06s-3.79-2.29-6.06-2.14v-.36c0-1.85-.24-3.64-.67-5.33,4.34-1.2,8.84-.36,11.87,2.68ZM74.08,56.59c1.16,1.16,2.11,2.45,2.85,3.8-1.48.43-3.05.67-4.7.67h-.45c-.54-1.21-1.32-2.37-2.34-3.4l-.64-.64h.9c1.45,0,2.82-.27,4.06-.75l.32.32ZM60.39,76.93c-1.35-.74-2.63-1.69-3.8-2.85l-.32-.32c.48-1.24.75-2.61.75-4.06v-.9l.64.64c1.02,1.02,2.19,1.8,3.4,2.34v.45c0,1.65-.24,3.22-.67,4.7ZM36.32,72.23v-.45c1.21-.54,2.37-1.32,3.4-2.34l.64-.64v.9c0,1.45.27,2.82.75,4.06l-.32.32c-1.16,1.16-2.45,2.11-3.8,2.85-.43-1.48-.67-3.05-.67-4.7ZM25.15,61.06c-1.65,0-3.22-.24-4.7-.67.74-1.35,1.69-2.63,2.85-3.8l.32-.32c1.24.48,2.61.75,4.06.75h.9l-.64.64c-1.02,1.02-1.8,2.19-2.34,3.4h-.45ZM23.3,40.79c-1.16-1.16-2.11-2.45-2.85-3.8,1.48-.43,3.05-.67,4.7-.67h.45c.54,1.21,1.32,2.37,2.34,3.4l.64.64h-.9c-1.45,0-2.82.27-4.06.75l-.32-.32ZM36.99,20.45c1.35.74,2.63,1.69,3.8,2.85l.32.32c-.48,1.24-.75,2.61-.75,4.06v.9l-.64-.64c-1.02-1.02-2.19-1.8-3.4-2.34v-.45c0-1.65.24-3.22.67-4.7ZM61.06,25.15v.45c-1.21.54-2.37,1.32-3.4,2.34l-.64.64v-.9c0-1.45-.27-2.82-.75-4.06l.32-.32c1.16-1.16,2.45-2.11,3.8-2.85.43,1.48.67,3.05.67,4.7ZM66.39,40.36h-1.94v-4.03h5.17c-.43.94-1.04,1.84-1.83,2.63l-1.4,1.4ZM42.23,64.51l-.16.16v-.23h.1l.07.07ZM55.15,32.87l.16-.16v.23h-.1l-.07-.07ZM51.69,61.06l-1.79-1.79,2.24-2.24h3.17v2.53l-1.5,1.5h-2.12ZM43.57,61.06l-1.5-1.5v-2.53h3.17l2.24,2.24-1.79,1.79h-2.12ZM45.69,36.32l1.79,1.79-2.24,2.24h-3.17v-2.53l1.5-1.5h2.12ZM53.81,36.32l1.5,1.5v2.53h-3.17l-2.24-2.24,1.79-1.79h2.12ZM61.06,45.69l-1.79,1.79-2.24-2.24v-3.17h2.53l1.5,1.5v2.12ZM51.43,55.31h-5.49l-3.88-3.88v-5.49l3.88-3.88h5.49l3.88,3.88v5.49l-3.88,3.88ZM55.31,53.85v1.46h-1.46l1.46-1.46ZM49.72,57.02l-1.03,1.03-1.03-1.03h2.06ZM42.07,53.85l1.46,1.46h-1.46v-1.46ZM40.36,49.72l-1.03-1.03,1.03-1.03v2.06ZM42.07,43.53v-1.46h1.46l-1.46,1.46ZM47.66,40.36l1.03-1.03,1.03,1.03h-2.06ZM55.31,43.53l-1.46-1.46h1.46v1.46ZM57.02,47.66l1.03,1.03-1.03,1.03v-2.06ZM57.02,40.36v-.82l.82.82h-.82ZM48.69,36.9l-.58-.58h1.16l-.58.58ZM40.36,40.36h-.82l.82-.82v.82ZM37.82,42.07h2.53v3.17l-2.24,2.24-1.79-1.79v-2.12l1.5-1.5ZM32.93,50.42l-1.73-1.73,1.73-1.73v3.47ZM36.32,48.11l.58.58-.58.58v-1.16ZM36.32,51.69l1.79-1.79,2.24,2.24v3.17h-2.53l-1.5-1.5v-2.12ZM40.36,57.02v.82l-.82-.82h.82ZM48.69,60.47l.58.58h-1.16l.58-.58ZM57.02,57.02h.82l-.82.82v-.82ZM59.56,55.31h-2.53v-3.17l2.24-2.24,1.79,1.79v2.12l-1.5,1.5ZM60.47,48.69l.58-.58v1.16l-.58-.58ZM64.45,46.96l1.73,1.73-1.73,1.73v-3.47ZM58.61,36.32h2.45v2.45l-2.45-2.45ZM57.02,32.93v-1.94l1.4-1.4c.8-.8,1.7-1.4,2.63-1.83v5.17h-4.03ZM46.96,32.93l1.73-1.73,1.73,1.73h-3.47ZM42.16,32.93h-.1v-.23l.16.16-.07.07ZM40.36,32.93h-4.03v-5.17c.94.43,1.84,1.04,2.63,1.83l1.4,1.4v1.94ZM38.77,36.32l-2.45,2.45v-2.45h2.45ZM32.93,42.16l-.07.07-.16-.16h.23v.1ZM31.65,43.44l-2.85,2.85-3.66-3.66c.97-.36,2.03-.57,3.16-.57h1.98l1.37,1.37ZM31.65,53.94l-1.37,1.37h-1.98c-1.12,0-2.19-.21-3.16-.57l3.66-3.66,2.85,2.85ZM32.87,55.15l.07.07v.1h-.23l.16-.16ZM38.77,61.06h-2.45v-2.45l2.45,2.45ZM40.36,64.45v1.94l-1.4,1.4c-.8.8-1.7,1.4-2.63,1.83v-5.17h4.03ZM50.42,64.45l-1.73,1.73-1.73-1.73h3.47ZM55.22,64.45h.1v.23l-.16-.16.07-.07ZM57.02,64.45h4.03v5.17c-.94-.43-1.84-1.04-2.63-1.83l-1.4-1.4v-1.94ZM58.6,61.06l2.45-2.45v2.45h-2.45ZM64.45,55.22l.07-.07.16.16h-.23v-.1ZM65.72,53.94l2.85-2.85,3.66,3.66c-.97.36-2.03.57-3.16.57h-1.98l-1.37-1.37ZM65.72,43.44l1.37-1.37h1.98c1.12,0,2.19.21,3.16.57l-3.66,3.66-2.85-2.85ZM64.51,42.23l-.07-.07v-.1h.23l-.16.16ZM64.45,32.93v-5.9c1.58.03,3.06.6,4.18,1.71s1.68,2.61,1.71,4.18h-5.9ZM55.31,28.3v1.98l-1.37,1.37-2.85-2.85,3.66-3.66c.36.97.57,2.03.57,3.16ZM48.69,26.41l-4.17-4.17c1.14-1.09,2.59-1.75,4.17-1.75s3.03.66,4.17,1.75l-4.17,4.17ZM46.29,28.8l-2.85,2.85-1.37-1.37v-1.98c0-1.12.21-2.19.57-3.16l3.66,3.66ZM32.93,32.93h-5.9c.03-1.58.6-3.06,1.71-4.18s2.61-1.68,4.18-1.71v5.9ZM32.93,36.32v4.03h-1.94l-1.4-1.4c-.8-.8-1.4-1.7-1.83-2.63h5.17ZM26.41,48.69l-4.17,4.17c-1.09-1.14-1.75-2.59-1.75-4.17s.66-3.03,1.75-4.17l4.17,4.17ZM29.59,58.42l1.4-1.4h1.94v4.03h-5.17c.43-.94,1.04-1.84,1.83-2.63ZM32.93,64.45v5.9c-1.58-.03-3.06-.6-4.18-1.71s-1.68-2.61-1.71-4.18h5.9ZM42.07,69.07v-1.98l1.37-1.37,2.85,2.85-3.66,3.66c-.36-.97-.57-2.03-.57-3.16ZM48.69,70.97l4.17,4.17c-1.14,1.09-2.59,1.75-4.17,1.75s-3.03-.66-4.17-1.75l4.17-4.17ZM51.09,68.58l2.85-2.85,1.37,1.37v1.98c0,1.12-.21,2.19-.57,3.16l-3.66-3.66ZM64.45,64.45h5.9c-.03,1.58-.6,3.06-1.71,4.18s-2.61,1.68-4.18,1.71v-5.9ZM64.45,61.06v-4.03h1.94l1.4,1.4c.8.8,1.4,1.7,1.83,2.63h-5.17ZM70.97,48.69l4.17-4.17c1.09,1.14,1.75,2.59,1.75,4.17s-.66,3.03-1.75,4.17l-4.17-4.17ZM73.76,41.1c-1.24-.48-2.61-.75-4.06-.75h-.9l.64-.64c1.02-1.02,1.8-2.19,2.34-3.4h.45c1.65,0,3.22.24,4.7.67-.74,1.35-1.69,2.63-2.85,3.8l-.32.32ZM48.69,10.56h0c4.29,0,8.07,2.58,10.29,6.5-1.5.89-2.93,1.99-4.24,3.3l-.25.25c-1.5-1.71-3.54-2.77-5.79-2.77s-4.29,1.06-5.79,2.77l-.25-.25c-1.31-1.31-2.74-2.41-4.24-3.3,2.22-3.92,6-6.5,10.29-6.5ZM21.73,21.73h0c3.04-3.04,7.53-3.88,11.87-2.68-.43,1.69-.67,3.48-.67,5.33v.36c-2.27-.15-4.46.54-6.06,2.14s-2.29,3.79-2.14,6.06h-.36c-1.85,0-3.64.24-5.33.67-1.2-4.34-.36-8.84,2.68-11.87ZM10.56,48.69h0c0-4.29,2.58-8.07,6.5-10.29.89,1.5,1.99,2.93,3.3,4.24l.25.25c-1.71,1.5-2.77,3.54-2.77,5.79s1.06,4.29,2.77,5.79l-.25.25c-1.31,1.31-2.41,2.74-3.3,4.24-3.92-2.22-6.5-6-6.5-10.29ZM21.73,75.65h0c-3.04-3.04-3.88-7.53-2.68-11.87,1.69.43,3.48.67,5.33.67h.36c-.15,2.27.54,4.46,2.14,6.06s3.79,2.29,6.06,2.14v.36c0,1.85.24,3.64.67,5.33-4.34,1.2-8.84.36-11.87-2.68ZM48.69,86.82h0c-4.29,0-8.07-2.58-10.29-6.5,1.5-.89,2.93-1.99,4.24-3.3l.25-.25c1.5,1.71,3.54,2.77,5.79,2.77s4.29-1.06,5.79-2.77l.25.25c1.31,1.31,2.74,2.41,4.24,3.3-2.22,3.92-6,6.5-10.29,6.5ZM75.65,75.65h0c-3.04,3.04-7.53,3.88-11.87,2.68.43-1.69.67-3.48.67-5.33v-.36c2.27.15,4.46-.54,6.06-2.14s2.29-3.79,2.14-6.06h.36c1.85,0,3.64-.24,5.33-.67,1.2,4.34.36,8.84-2.68,11.87ZM86.82,48.69c0,4.29-2.58,8.07-6.5,10.29-.89-1.5-1.99-2.93-3.3-4.24l-.25-.25c1.71-1.5,2.77-3.54,2.77-5.79s-1.06-4.29-2.77-5.79l.25-.25c1.31-1.31,2.41-2.74,3.3-4.24,3.92,2.22,6.5,6,6.5,10.29h0Z" style="fill: #0d0d0d; fill-rule: evenodd; stroke-width: 0px;"/>
</svg>