<?xml version="1.0" encoding="UTF-8"?>
<svg id="uuid-edb6776a-daf9-499c-b6ff-4f31ab853eb8" xmlns="http://www.w3.org/2000/svg" viewBox="0 0 506.48 94.54">
  <defs>
    <style>
      .cls-1, .cls-2 {
        stroke-width: 0px;
      }

      .cls-2 {
        fill: #0d0d0d;
        fill-rule: evenodd;
      }

      .cls-3 {
        fill: #fff;
        stroke: #ddd;
        stroke-miterlimit: 10;
      }
    </style>
  </defs>
  <circle class="cls-3" cx="47.27" cy="47.27" r="46.77"/>
  <path class="cls-2" d="M78.71,34.25c2.03-5.62,1.17-11.66-2.8-15.62h0c-3.97-3.97-10.01-4.83-15.62-2.8-2.54-5.4-7.41-9.07-13.02-9.07h0c-5.61,0-10.49,3.66-13.02,9.07-5.62-2.03-11.66-1.17-15.62,2.8h0c-3.97,3.97-4.83,10.01-2.8,15.62-5.4,2.54-9.07,7.41-9.07,13.02h0c0,5.61,3.66,10.49,9.07,13.02-2.03,5.62-1.17,11.66,2.8,15.62h0c3.97,3.97,10.01,4.83,15.62,2.8,2.54,5.4,7.41,9.07,13.02,9.07h0c5.61,0,10.49-3.66,13.02-9.07,5.62,2.03,11.66,1.17,15.62-2.8s4.83-10.01,2.8-15.62c5.4-2.54,9.07-7.41,9.07-13.02h0c0-5.61-3.66-10.49-9.07-13.02ZM72.74,21.81h0c2.87,2.87,3.66,7.11,2.53,11.21-1.6-.41-3.29-.63-5.03-.63h-.34c.14-2.14-.51-4.21-2.02-5.72s-3.58-2.16-5.72-2.02v-.34c0-1.75-.23-3.44-.63-5.03,4.1-1.13,8.35-.34,11.21,2.53h0ZM71.25,54.73c1.1,1.1,1.99,2.31,2.69,3.59-1.4.41-2.88.63-4.44.63h-.43c-.51-1.14-1.25-2.24-2.21-3.21l-.6-.6h.85c1.37,0,2.66-.26,3.83-.71,0,0,.3.3.3.3ZM58.32,73.94c-1.28-.7-2.48-1.6-3.59-2.69l-.3-.3c.45-1.17.71-2.47.71-3.83v-.85l.6.6c.96.96,2.07,1.7,3.21,2.21v.43c0,1.56-.23,3.04-.63,4.44ZM35.59,69.51v-.43c1.14-.51,2.24-1.25,3.21-2.21l.6-.6v.85c0,1.37.26,2.66.71,3.83l-.3.3c-1.1,1.1-2.31,1.99-3.59,2.69-.41-1.4-.63-2.88-.63-4.44ZM25.04,58.96c-1.56,0-3.04-.23-4.44-.63.7-1.28,1.6-2.48,2.69-3.59l.3-.3c1.17.45,2.47.71,3.83.71h.85l-.6.6c-.96.96-1.7,2.07-2.21,3.21,0,0-.43,0-.43,0ZM23.29,39.81c-1.1-1.1-1.99-2.31-2.69-3.59,1.4-.41,2.88-.63,4.44-.63h.43c.51,1.14,1.25,2.24,2.21,3.21l.6.6h-.85c-1.37,0-2.66.26-3.83.71,0,0-.3-.3-.3-.3ZM36.22,20.6c1.28.7,2.48,1.6,3.59,2.69l.3.3c-.45,1.17-.71,2.47-.71,3.83v.85l-.6-.6c-.96-.96-2.07-1.7-3.21-2.21v-.43c0-1.56.23-3.04.63-4.44ZM58.96,25.04v.43c-1.14.51-2.24,1.25-3.21,2.21l-.6.6v-.85c0-1.37-.26-2.66-.71-3.83l.3-.3c1.1-1.1,2.31-1.99,3.59-2.69.41,1.4.63,2.88.63,4.44ZM63.99,39.4h-1.83v-3.81h4.88c-.41.89-.98,1.74-1.73,2.48,0,0-1.32,1.32-1.32,1.32ZM41.17,62.21l-.15.15v-.22h.09l.07.07h0ZM53.37,32.33l.15-.15v.22h-.09l-.07-.07h0ZM50.11,58.96l-1.69-1.69,2.12-2.12h2.99v2.39l-1.42,1.42s-2,0-2,0ZM42.44,58.96l-1.42-1.42v-2.39h2.99l2.12,2.12-1.69,1.69s-2,0-2,0ZM44.44,35.59l1.69,1.69-2.12,2.12h-2.99v-2.39l1.42-1.42s2,0,2,0ZM52.11,35.59l1.42,1.42v2.39h-2.99l-2.12-2.12,1.69-1.69s2,0,2,0ZM58.96,44.44l-1.69,1.69-2.12-2.12v-2.99h2.39l1.42,1.42s0,2,0,2ZM49.86,53.52h-5.19l-3.66-3.66v-5.19l3.66-3.66h5.19l3.66,3.66v5.19l-3.66,3.66ZM53.52,52.15v1.38h-1.38l1.38-1.38ZM48.24,55.14l-.97.97-.97-.97s1.95,0,1.95,0ZM41.02,52.15l1.38,1.38h-1.38v-1.38ZM39.4,48.24l-.97-.97.97-.97s0,1.95,0,1.95ZM41.02,42.4v-1.38h1.38l-1.38,1.38ZM46.3,39.4l.97-.97.97.97s-1.95,0-1.95,0ZM53.52,42.4l-1.38-1.38h1.38v1.38ZM55.14,46.3l.97.97-.97.97s0-1.95,0-1.95ZM55.14,39.4v-.77l.77.77h-.77ZM47.27,36.14l-.55-.55h1.1s-.55.55-.55.55ZM39.4,39.4h-.77l.77-.77v.77ZM37,41.02h2.39v2.99l-2.12,2.12-1.69-1.69v-2s1.42-1.42,1.42-1.42ZM32.39,48.91l-1.63-1.63,1.63-1.63v3.28h0ZM35.59,46.72l.55.55-.55.55v-1.1ZM35.59,50.11l1.69-1.69,2.12,2.12v2.99h-2.39l-1.42-1.42s0-2,0-2ZM39.4,55.14v.77l-.77-.77h.77ZM47.27,58.4l.55.55h-1.1s.55-.55.55-.55ZM55.14,55.14h.77l-.77.77v-.77ZM57.54,53.52h-2.39v-2.99l2.12-2.12,1.69,1.69v2l-1.42,1.42ZM58.4,47.27l.55-.55v1.1s-.55-.55-.55-.55ZM62.16,45.64l1.63,1.63-1.63,1.63v-3.28h0ZM56.64,35.59h2.31v2.31l-2.31-2.31ZM55.14,32.39v-1.83l1.32-1.32c.76-.76,1.61-1.32,2.48-1.73v4.88h-3.81ZM45.64,32.39l1.63-1.63,1.63,1.63h-3.28,0ZM41.1,32.39h-.09v-.22l.15.15-.07.07h0ZM39.4,32.39h-3.81v-4.88c.89.41,1.74.98,2.48,1.73l1.32,1.32s0,1.83,0,1.83ZM37.9,35.59l-2.31,2.31v-2.31h2.31ZM32.39,41.1l-.07.07-.15-.15h.22v.09h0ZM31.18,42.31l-2.69,2.69-3.46-3.46c.92-.34,1.92-.54,2.98-.54h1.87l1.29,1.29h0ZM31.18,52.23l-1.29,1.29h-1.87c-1.06,0-2.07-.2-2.98-.54l3.46-3.46,2.69,2.69h0ZM32.33,53.37l.07.07v.09h-.22l.15-.15h0ZM37.9,58.96h-2.31v-2.31l2.31,2.31ZM39.4,62.16v1.83l-1.32,1.32c-.76.76-1.61,1.32-2.48,1.73v-4.88s3.81,0,3.81,0ZM48.91,62.16l-1.63,1.63-1.63-1.63h3.28,0ZM53.44,62.16h.09v.22l-.15-.15.07-.07h0ZM55.14,62.16h3.81v4.88c-.89-.41-1.74-.98-2.48-1.73l-1.32-1.32s0-1.83,0-1.83ZM56.63,58.96l2.31-2.31v2.31h-2.31ZM62.16,53.44l.07-.07.15.15h-.22v-.09h0ZM63.36,52.23l2.69-2.69,3.46,3.46c-.92.34-1.92.54-2.98.54h-1.87l-1.29-1.29h0ZM63.36,42.31l1.29-1.29h1.87c1.06,0,2.07.2,2.98.54l-3.46,3.46-2.69-2.69h0ZM62.21,41.17l-.07-.07v-.09h.22l-.15.15h0ZM62.16,32.39v-5.57c1.49.03,2.89.57,3.95,1.62s1.59,2.47,1.62,3.95h-5.57,0ZM53.52,28.01v1.87l-1.29,1.29-2.69-2.69,3.46-3.46c.34.92.54,1.92.54,2.98h0ZM47.27,26.23l-3.94-3.94c1.08-1.03,2.45-1.65,3.94-1.65s2.86.62,3.94,1.65c0,0-3.94,3.94-3.94,3.94ZM45,28.49l-2.69,2.69-1.29-1.29v-1.87c0-1.06.2-2.07.54-2.98l3.46,3.46h0ZM32.39,32.39h-5.57c.03-1.49.57-2.89,1.62-3.95s2.47-1.59,3.95-1.62v5.57h0ZM32.39,35.59v3.81h-1.83l-1.32-1.32c-.76-.76-1.32-1.61-1.73-2.48,0,0,4.88,0,4.88,0ZM26.23,47.27l-3.94,3.94c-1.03-1.08-1.65-2.45-1.65-3.94s.62-2.86,1.65-3.94c0,0,3.94,3.94,3.94,3.94ZM29.23,56.46l1.32-1.32h1.83v3.81h-4.88c.41-.89.98-1.74,1.73-2.48ZM32.39,62.16v5.57c-1.49-.03-2.89-.57-3.95-1.62s-1.59-2.47-1.62-3.95h5.57,0ZM41.02,66.52v-1.87l1.29-1.29,2.69,2.69-3.46,3.46c-.34-.92-.54-1.92-.54-2.98,0,0,0,0,0,0ZM47.27,68.32l3.94,3.94c-1.08,1.03-2.45,1.65-3.94,1.65s-2.86-.62-3.94-1.65c0,0,3.94-3.94,3.94-3.94ZM49.54,66.06l2.69-2.69,1.29,1.29v1.87c0,1.06-.2,2.07-.54,2.98l-3.46-3.46s0,0,0,0ZM62.16,62.16h5.57c-.03,1.49-.57,2.89-1.62,3.95s-2.47,1.59-3.95,1.62v-5.57h0ZM62.16,58.96v-3.81h1.83l1.32,1.32c.76.76,1.32,1.61,1.73,2.48,0,0-4.88,0-4.88,0ZM68.32,47.27l3.94-3.94c1.03,1.08,1.65,2.45,1.65,3.94s-.62,2.86-1.65,3.94c0,0-3.94-3.94-3.94-3.94ZM70.95,40.1c-1.17-.45-2.47-.71-3.83-.71h-.85l.6-.6c.96-.96,1.7-2.07,2.21-3.21h.43c1.56,0,3.04.23,4.44.63-.7,1.28-1.6,2.48-2.69,3.59,0,0-.3.3-.3.3ZM47.27,11.26h0c4.05,0,7.62,2.44,9.72,6.14-1.42.84-2.77,1.88-4,3.12l-.24.24c-1.42-1.62-3.34-2.62-5.47-2.62s-4.05,1-5.47,2.62l-.24-.24c-1.24-1.24-2.59-2.28-4-3.12,2.1-3.7,5.67-6.14,9.72-6.14,0,0-.02,0-.02,0ZM21.81,21.81h0c2.87-2.87,7.11-3.66,11.21-2.53-.41,1.6-.63,3.29-.63,5.03v.34c-2.14-.14-4.21.51-5.72,2.02s-2.16,3.58-2.02,5.72h-.34c-1.75,0-3.44.23-5.03.63-1.13-4.1-.34-8.35,2.53-11.21h0ZM11.26,47.27h0c0-4.05,2.44-7.62,6.14-9.72.84,1.42,1.88,2.77,3.12,4l.24.24c-1.62,1.42-2.62,3.34-2.62,5.47s1,4.05,2.62,5.47l-.24.24c-1.24,1.24-2.28,2.59-3.12,4-3.7-2.1-6.14-5.67-6.14-9.72,0,0,0,.02,0,.02ZM21.81,72.74h0c-2.87-2.87-3.66-7.11-2.53-11.21,1.6.41,3.29.63,5.03.63h.34c-.14,2.14.51,4.21,2.02,5.72s3.58,2.16,5.72,2.02v.34c0,1.75.23,3.44.63,5.03-4.1,1.13-8.35.34-11.21-2.53h0ZM47.27,83.29h0c-4.05,0-7.62-2.44-9.72-6.14,1.42-.84,2.77-1.88,4-3.12l.24-.24c1.42,1.62,3.34,2.62,5.47,2.62s4.05-1,5.47-2.62l.24.24c1.24,1.24,2.59,2.28,4,3.12-2.1,3.7-5.67,6.14-9.72,6.14h.02ZM72.74,72.74h0c-2.87,2.87-7.11,3.66-11.21,2.53.41-1.6.63-3.29.63-5.03v-.34c2.14.14,4.21-.51,5.72-2.02s2.16-3.58,2.02-5.72h.34c1.75,0,3.44-.23,5.03-.63,1.13,4.1.34,8.35-2.53,11.21h0ZM83.29,47.27c0,4.05-2.44,7.62-6.14,9.72-.84-1.42-1.88-2.77-3.12-4l-.24-.24c1.62-1.42,2.62-3.34,2.62-5.47s-1-4.05-2.62-5.47l.24-.24c1.24-1.24,2.28-2.59,3.12-4,3.7,2.1,6.14,5.67,6.14,9.72h0v-.02Z"/>
  <g>
    <path class="cls-1" d="M133.27,65.95c-2.52,0-4.78-.39-6.79-1.16s-3.7-1.91-5.09-3.42c-1.39-1.5-2.46-3.34-3.2-5.5s-1.11-4.65-1.11-7.46.43-5.3,1.28-7.46c.86-2.17,2.03-4,3.51-5.5,1.49-1.5,3.23-2.64,5.23-3.42s4.15-1.16,6.45-1.16c1.39,0,2.65.11,3.78.32s2.12.44,2.96.7c.84.26,1.53.53,2.08.82.55.29.94.5,1.16.63l-1.79,4.99c-.78-.48-1.88-.95-3.32-1.38s-3-.65-4.68-.65c-1.45,0-2.81.25-4.07.75s-2.35,1.25-3.27,2.25-1.64,2.26-2.16,3.78-.78,3.28-.78,5.28c0,1.78.2,3.41.61,4.9s1.03,2.77,1.87,3.85,1.91,1.92,3.2,2.52c1.29.6,2.84.9,4.65.9,2.17,0,3.93-.22,5.28-.65s2.41-.85,3.15-1.24l1.65,4.99c-.39.26-.91.52-1.58.78-.66.26-1.45.51-2.35.75-.9.24-1.92.44-3.05.58s-2.34.22-3.64.22Z"/>
    <path class="cls-1" d="M148.98,65.22V28.58l5.86-.97v12.55c.65-.23,1.4-.42,2.25-.58s1.7-.24,2.54-.24c2.04,0,3.72.28,5.07.85s2.42,1.36,3.22,2.38,1.38,2.24,1.72,3.66.51,3.01.51,4.75v14.25h-5.86v-13.33c0-1.36-.09-2.51-.27-3.47s-.47-1.73-.87-2.33-.95-1.03-1.62-1.31-1.52-.41-2.52-.41c-.78,0-1.57.08-2.38.24s-1.41.31-1.79.44v20.16h-5.86Z"/>
    <path class="cls-1" d="M185.62,39.24c1.94,0,3.57.24,4.9.73,1.32.48,2.38,1.16,3.17,2.04s1.36,1.93,1.7,3.17c.34,1.24.51,2.61.51,4.1v15.37c-.9.19-2.27.43-4.1.7-1.83.27-3.89.41-6.18.41-1.52,0-2.91-.15-4.17-.44s-2.33-.76-3.22-1.41c-.89-.65-1.58-1.49-2.08-2.52s-.75-2.31-.75-3.83.28-2.68.85-3.68,1.33-1.82,2.3-2.45c.97-.63,2.09-1.08,3.37-1.36s2.61-.41,4-.41c.65,0,1.32.04,2.04.12.71.08,1.47.22,2.28.41v-.97c0-.68-.08-1.32-.24-1.94-.16-.61-.44-1.16-.85-1.62-.4-.47-.94-.83-1.6-1.09-.66-.26-1.49-.39-2.5-.39-1.36,0-2.6.1-3.73.29s-2.05.42-2.76.68l-.73-4.75c.74-.26,1.83-.52,3.25-.78,1.42-.26,2.94-.39,4.56-.39h0ZM186.1,61.1c1.81,0,3.18-.1,4.12-.29v-6.5c-.32-.1-.79-.19-1.41-.29-.61-.1-1.29-.15-2.04-.15-.65,0-1.3.05-1.96.15-.66.1-1.26.27-1.79.53s-.96.62-1.28,1.09c-.32.47-.48,1.06-.48,1.77,0,1.39.44,2.35,1.31,2.88s2.05.8,3.54.8Z"/>
    <path class="cls-1" d="M202.78,33.19l5.86-.97v7.66h9.02v4.9h-9.02v10.32c0,2.04.32,3.49.97,4.36s1.74,1.31,3.3,1.31c1.07,0,2.01-.11,2.84-.34.82-.23,1.48-.44,1.96-.63l.97,4.65c-.68.29-1.57.59-2.67.9s-2.39.46-3.88.46c-1.81,0-3.32-.24-4.53-.73s-2.17-1.19-2.88-2.11-1.21-2.04-1.5-3.34-.44-2.8-.44-4.48v-21.96h0Z"/>
    <path class="cls-1" d="M256.43,35.42c.52,1.74,1.07,3.56,1.65,5.45s1.19,3.78,1.82,5.67,1.26,3.75,1.89,5.57,1.24,3.55,1.82,5.16c.48-1.74.95-3.64,1.41-5.7s.9-4.18,1.36-6.4c.45-2.21.9-4.47,1.33-6.76s.85-4.56,1.24-6.79h6.3c-1.13,6.07-2.39,11.92-3.77,17.52-1.39,5.61-2.93,10.96-4.65,16.07h-5.87c-2.5-6.53-4.93-13.65-7.27-21.38-1.2,3.91-2.41,7.63-3.64,11.15-1.23,3.52-2.46,6.93-3.69,10.23h-5.82c-1.74-5.11-3.3-10.46-4.67-16.07s-2.62-11.45-3.75-17.52h6.54c.39,2.2.8,4.44,1.24,6.74.44,2.29.89,4.55,1.36,6.76.47,2.21.95,4.35,1.43,6.42.48,2.07.97,3.97,1.45,5.72.61-1.65,1.24-3.38,1.87-5.21.63-1.83,1.25-3.68,1.87-5.57s1.2-3.77,1.77-5.65,1.09-3.68,1.58-5.43h5.23Z"/>
    <path class="cls-1" d="M302.09,52.53c0,2-.29,3.83-.87,5.48s-1.41,3.05-2.47,4.22-2.35,2.07-3.85,2.71-3.16.97-4.97.97-3.46-.32-4.94-.97c-1.49-.65-2.76-1.55-3.83-2.71s-1.9-2.57-2.5-4.22-.9-3.47-.9-5.48.3-3.82.9-5.45,1.44-3.03,2.52-4.19,2.37-2.06,3.85-2.69,3.12-.95,4.9-.95,3.42.32,4.92.95,2.79,1.53,3.85,2.69c1.07,1.16,1.9,2.56,2.5,4.19s.9,3.45.9,5.45ZM296.08,52.53c0-2.52-.54-4.52-1.62-5.99s-2.59-2.21-4.53-2.21-3.45.74-4.53,2.21-1.62,3.47-1.62,5.99.54,4.57,1.62,6.06,2.59,2.23,4.53,2.23,3.45-.74,4.53-2.23,1.62-3.51,1.62-6.06Z"/>
    <path class="cls-1" d="M322.6,45.16c-.48-.16-1.16-.33-2.01-.51s-1.85-.27-2.98-.27c-.65,0-1.33.06-2.06.19s-1.24.24-1.53.34v20.31h-5.86v-24.14c1.13-.42,2.54-.82,4.24-1.19,1.7-.37,3.58-.56,5.65-.56.39,0,.84.02,1.36.07.52.05,1.03.11,1.55.19.52.08,1.02.18,1.5.29.48.11.87.22,1.16.32l-1.02,4.94h0Z"/>
    <path class="cls-1" d="M333.55,49.76c.74-.78,1.53-1.61,2.38-2.5s1.66-1.78,2.47-2.67,1.58-1.74,2.3-2.57,1.35-1.54,1.87-2.16h6.93c-1.62,1.81-3.31,3.68-5.11,5.62-1.79,1.94-3.59,3.83-5.39,5.67.97.81,1.98,1.79,3.05,2.93s2.09,2.37,3.09,3.66,1.93,2.59,2.8,3.88c.87,1.29,1.6,2.49,2.17,3.59h-6.79c-.58-1-1.25-2.05-2.01-3.15s-1.58-2.17-2.45-3.2-1.76-2.01-2.67-2.93-1.79-1.7-2.67-2.35v11.63h-5.86V28.58l5.86-.97v22.15h0Z"/>
    <path class="cls-1" d="M360.74,61.01c1.55,0,2.68-.19,3.39-.56s1.07-1.01,1.07-1.91c0-.84-.38-1.53-1.14-2.08s-2.01-1.15-3.76-1.79c-1.07-.39-2.04-.8-2.93-1.24s-1.66-.95-2.3-1.53c-.65-.58-1.16-1.28-1.53-2.11-.37-.82-.56-1.83-.56-3.03,0-2.33.86-4.16,2.57-5.5s4.04-2.01,6.98-2.01c1.49,0,2.91.14,4.27.41s2.38.54,3.05.8l-1.07,4.75c-.65-.29-1.47-.56-2.47-.8-1-.24-2.17-.36-3.49-.36-1.2,0-2.17.2-2.91.61s-1.11,1.03-1.11,1.87c0,.42.07.79.22,1.11s.4.62.75.9.82.55,1.41.82,1.29.56,2.13.85c1.39.52,2.57,1.03,3.54,1.53s1.77,1.07,2.4,1.7,1.09,1.35,1.38,2.16c.29.81.44,1.78.44,2.91,0,2.42-.9,4.26-2.69,5.5s-4.35,1.87-7.68,1.87c-2.23,0-4.02-.19-5.38-.56s-2.31-.67-2.86-.9l1.02-4.9c.87.36,1.91.69,3.13,1.02s2.59.48,4.14.48h0Z"/>
    <path class="cls-1" d="M376.25,33.19l5.86-.97v7.66h9.02v4.9h-9.02v10.32c0,2.04.32,3.49.97,4.36.65.87,1.74,1.31,3.3,1.31,1.07,0,2.01-.11,2.84-.34.82-.23,1.48-.44,1.96-.63l.97,4.65c-.68.29-1.57.59-2.67.9s-2.39.46-3.88.46c-1.81,0-3.32-.24-4.53-.73s-2.17-1.19-2.88-2.11-1.21-2.04-1.5-3.34-.44-2.8-.44-4.48v-21.96h0Z"/>
    <path class="cls-1" d="M405.24,39.24c1.94,0,3.57.24,4.9.73,1.32.48,2.38,1.16,3.17,2.04.79.87,1.36,1.93,1.7,3.17s.51,2.61.51,4.1v15.37c-.9.19-2.27.43-4.1.7-1.83.27-3.89.41-6.18.41-1.52,0-2.91-.15-4.17-.44s-2.33-.76-3.22-1.41c-.89-.65-1.58-1.49-2.08-2.52s-.75-2.31-.75-3.83.28-2.68.85-3.68c.57-1,1.33-1.82,2.3-2.45s2.09-1.08,3.37-1.36c1.28-.27,2.61-.41,4-.41.65,0,1.32.04,2.04.12.71.08,1.47.22,2.28.41v-.97c0-.68-.08-1.32-.24-1.94-.16-.61-.44-1.16-.85-1.62-.4-.47-.94-.83-1.6-1.09s-1.49-.39-2.5-.39c-1.36,0-2.6.1-3.73.29s-2.05.42-2.76.68l-.73-4.75c.74-.26,1.83-.52,3.25-.78,1.42-.26,2.94-.39,4.56-.39h0ZM405.72,61.1c1.81,0,3.18-.1,4.12-.29v-6.5c-.32-.1-.79-.19-1.41-.29-.61-.1-1.29-.15-2.04-.15-.65,0-1.3.05-1.96.15s-1.26.27-1.79.53-.96.62-1.28,1.09c-.32.47-.48,1.06-.48,1.77,0,1.39.44,2.35,1.31,2.88s2.05.8,3.54.8h0Z"/>
    <path class="cls-1" d="M422.4,33.19l5.86-.97v7.66h9.02v4.9h-9.02v10.32c0,2.04.32,3.49.97,4.36.65.87,1.74,1.31,3.3,1.31,1.07,0,2.01-.11,2.84-.34.82-.23,1.48-.44,1.96-.63l.97,4.65c-.68.29-1.57.59-2.67.9s-2.39.46-3.88.46c-1.81,0-3.32-.24-4.53-.73s-2.17-1.19-2.88-2.11-1.21-2.04-1.5-3.34-.44-2.8-.44-4.48v-21.96h0Z"/>
    <path class="cls-1" d="M449.49,32.46c0,1.1-.36,1.97-1.07,2.62s-1.55.97-2.52.97-1.86-.32-2.57-.97c-.71-.65-1.07-1.52-1.07-2.62s.36-2.02,1.07-2.67,1.57-.97,2.57-.97,1.81.32,2.52.97c.71.65,1.07,1.53,1.07,2.67ZM448.86,65.22h-5.86v-25.35h5.86v25.35Z"/>
    <path class="cls-1" d="M479.24,52.53c0,2-.29,3.83-.87,5.48s-1.41,3.05-2.47,4.22-2.35,2.07-3.85,2.71c-1.5.65-3.16.97-4.97.97s-3.46-.32-4.94-.97c-1.49-.65-2.76-1.55-3.83-2.71s-1.9-2.57-2.5-4.22c-.6-1.65-.9-3.47-.9-5.48s.3-3.82.9-5.45,1.44-3.03,2.52-4.19c1.08-1.16,2.37-2.06,3.85-2.69s3.12-.95,4.9-.95,3.42.32,4.92.95c1.5.63,2.79,1.53,3.85,2.69,1.07,1.16,1.9,2.56,2.5,4.19.6,1.63.9,3.45.9,5.45ZM473.23,52.53c0-2.52-.54-4.52-1.62-5.99s-2.59-2.21-4.53-2.21-3.45.74-4.53,2.21c-1.08,1.47-1.62,3.47-1.62,5.99s.54,4.57,1.62,6.06,2.59,2.23,4.53,2.23,3.45-.74,4.53-2.23c1.08-1.49,1.62-3.51,1.62-6.06Z"/>
    <path class="cls-1" d="M485.3,40.7c1.13-.32,2.6-.63,4.41-.92,1.81-.29,3.81-.44,6.01-.44,2.07,0,3.8.28,5.19.85s2.5,1.36,3.32,2.38c.82,1.02,1.41,2.25,1.74,3.68.34,1.44.51,3.01.51,4.73v14.25h-5.86v-13.33c0-1.36-.09-2.51-.27-3.47-.18-.95-.47-1.73-.87-2.33s-.95-1.03-1.65-1.31-1.54-.41-2.54-.41c-.74,0-1.52.05-2.33.15s-1.41.18-1.79.24v20.45h-5.86v-24.53h0Z"/>
  </g>
</svg>