<?xml version="1.0" encoding="utf-8"?>
<!-- Generator: Adobe Illustrator 28.1.0, SVG Export Plug-In . SVG Version: 6.00 Build 0)  -->
<svg version="1.1" id="uuid-edb6776a-daf9-499c-b6ff-4f31ab853eb8"
	 xmlns="http://www.w3.org/2000/svg" xmlns:xlink="http://www.w3.org/1999/xlink" x="0px" y="0px" viewBox="0 0 512.4 97.4"
	 style="enable-background:new 0 0 512.4 97.4;" xml:space="preserve">
<style type="text/css">
	.st0{fill:#FFFFFF;stroke:#DDDDDD;stroke-miterlimit:10;}
	.st1{fill-rule:evenodd;clip-rule:evenodd;fill:#0D0D0D;}
</style>
<circle class="st0" cx="48.5" cy="48.5" r="46.8"/>
<path class="st1" d="M79.9,35.5c2-5.6,1.2-11.7-2.8-15.6l0,0c-4-4-10-4.8-15.6-2.8C59,11.7,54.1,8,48.5,8l0,0
	c-5.6,0-10.5,3.7-13,9.1c-5.6-2-11.7-1.2-15.6,2.8l0,0c-4,4-4.8,10-2.8,15.6C11.7,38,8,42.9,8,48.5l0,0c0,5.6,3.7,10.5,9.1,13
	c-2,5.6-1.2,11.7,2.8,15.6l0,0c4,4,10,4.8,15.6,2.8c2.5,5.4,7.4,9.1,13,9.1l0,0c5.6,0,10.5-3.7,13-9.1c5.6,2,11.7,1.2,15.6-2.8
	s4.8-10,2.8-15.6c5.4-2.5,9.1-7.4,9.1-13l0,0C89,42.9,85.3,38,79.9,35.5z M74,23L74,23c2.9,2.9,3.7,7.1,2.5,11.2
	c-1.6-0.4-3.3-0.6-5-0.6h-0.3c0.1-2.1-0.5-4.2-2-5.7c-1.5-1.5-3.6-2.2-5.7-2v-0.3c0-1.7-0.2-3.4-0.6-5C66.8,19.4,71.1,20.2,74,23
	L74,23L74,23z M72.5,56c1.1,1.1,2,2.3,2.7,3.6c-1.4,0.4-2.9,0.6-4.4,0.6h-0.4c-0.5-1.1-1.2-2.2-2.2-3.2l-0.6-0.6h0.9
	c1.4,0,2.7-0.3,3.8-0.7C72.2,55.7,72.5,56,72.5,56z M59.6,75.2c-1.3-0.7-2.5-1.6-3.6-2.7l-0.3-0.3c0.5-1.2,0.7-2.5,0.7-3.8v-0.9
	l0.6,0.6c1,1,2.1,1.7,3.2,2.2v0.4C60.2,72.3,60,73.8,59.6,75.2z M36.8,70.7v-0.4c1.1-0.5,2.2-1.2,3.2-2.2l0.6-0.6v0.9
	c0,1.4,0.3,2.7,0.7,3.8L41,72.5c-1.1,1.1-2.3,2-3.6,2.7C37,73.8,36.8,72.3,36.8,70.7z M26.3,60.2c-1.6,0-3-0.2-4.4-0.6
	c0.7-1.3,1.6-2.5,2.7-3.6l0.3-0.3c1.2,0.5,2.5,0.7,3.8,0.7h0.9L28.9,57c-1,1-1.7,2.1-2.2,3.2C26.7,60.2,26.3,60.2,26.3,60.2z
	 M24.5,41c-1.1-1.1-2-2.3-2.7-3.6c1.4-0.4,2.9-0.6,4.4-0.6h0.4c0.5,1.1,1.2,2.2,2.2,3.2l0.6,0.6h-0.9c-1.4,0-2.7,0.3-3.8,0.7
	C24.8,41.3,24.5,41,24.5,41z M37.4,21.8c1.3,0.7,2.5,1.6,3.6,2.7l0.3,0.3c-0.5,1.2-0.7,2.5-0.7,3.8v0.9L40,28.9
	c-1-1-2.1-1.7-3.2-2.2v-0.4C36.8,24.7,37,23.2,37.4,21.8z M60.2,26.3v0.4c-1.1,0.5-2.2,1.2-3.2,2.2l-0.6,0.6v-0.9
	c0-1.4-0.3-2.7-0.7-3.8l0.3-0.3c1.1-1.1,2.3-2,3.6-2.7C60,23.2,60.2,24.7,60.2,26.3z M65.2,40.6h-1.8v-3.8h4.9
	c-0.4,0.9-1,1.7-1.7,2.5C66.5,39.3,65.2,40.6,65.2,40.6z M42.4,63.4l-0.2,0.2v-0.2L42.4,63.4L42.4,63.4L42.4,63.4L42.4,63.4z
	 M54.6,33.6l0.2-0.2v0.2L54.6,33.6L54.6,33.6L54.6,33.6L54.6,33.6z M51.3,60.2l-1.7-1.7l2.1-2.1h3v2.4l-1.4,1.4
	C53.3,60.2,51.3,60.2,51.3,60.2z M43.7,60.2l-1.4-1.4v-2.4h3l2.1,2.1l-1.7,1.7C45.7,60.2,43.7,60.2,43.7,60.2z M45.7,36.8l1.7,1.7
	l-2.1,2.1h-3v-2.4l1.4-1.4C43.7,36.8,45.7,36.8,45.7,36.8z M53.3,36.8l1.4,1.4v2.4h-3l-2.1-2.1l1.7-1.7
	C51.3,36.8,53.3,36.8,53.3,36.8z M60.2,45.7l-1.7,1.7l-2.1-2.1v-3h2.4l1.4,1.4C60.2,43.7,60.2,45.7,60.2,45.7z M51.1,54.8h-5.2
	l-3.7-3.7v-5.2l3.7-3.7h5.2l3.7,3.7v5.2L51.1,54.8z M54.8,53.4v1.4h-1.4L54.8,53.4z M49.5,56.4l-1,1l-1-1
	C47.5,56.4,49.5,56.4,49.5,56.4z M42.2,53.4l1.4,1.4h-1.4V53.4z M40.6,49.5l-1-1l1-1C40.6,47.5,40.6,49.5,40.6,49.5z M42.2,43.6
	v-1.4h1.4L42.2,43.6z M47.5,40.6l1-1l1,1C49.5,40.6,47.5,40.6,47.5,40.6z M54.8,43.6l-1.4-1.4h1.4V43.6z M56.4,47.5l1,1l-1,1
	C56.4,49.5,56.4,47.5,56.4,47.5z M56.4,40.6v-0.8l0.8,0.8H56.4z M48.5,37.4L48,36.8H49C49,36.8,48.5,37.4,48.5,37.4z M40.6,40.6
	h-0.8l0.8-0.8V40.6z M38.2,42.2h2.4v3l-2.1,2.1l-1.7-1.7v-2C36.8,43.7,38.2,42.2,38.2,42.2z M33.6,50.1L32,48.5l1.6-1.6V50.1
	L33.6,50.1L33.6,50.1z M36.8,48l0.5,0.5L36.8,49C36.8,49,36.8,48,36.8,48z M36.8,51.3l1.7-1.7l2.1,2.1v3h-2.4l-1.4-1.4
	C36.8,53.3,36.8,51.3,36.8,51.3z M40.6,56.4v0.8l-0.8-0.8H40.6z M48.5,59.6l0.5,0.5H48C48,60.2,48.5,59.6,48.5,59.6z M56.4,56.4h0.8
	l-0.8,0.8V56.4z M58.8,54.8h-2.4v-3l2.1-2.1l1.7,1.7v2C60.2,53.3,58.8,54.8,58.8,54.8z M59.6,48.5l0.5-0.5V49
	C60.2,49,59.6,48.5,59.6,48.5z M63.4,46.9l1.6,1.6l-1.6,1.6V46.9L63.4,46.9L63.4,46.9z M57.9,36.8h2.3v2.3L57.9,36.8z M56.4,33.6
	v-1.8l1.3-1.3c0.8-0.8,1.6-1.3,2.5-1.7v4.9C60.2,33.6,56.4,33.6,56.4,33.6z M46.9,33.6l1.6-1.6l1.6,1.6H46.9
	C46.9,33.6,46.9,33.6,46.9,33.6z M42.3,33.6L42.3,33.6l-0.1-0.2L42.3,33.6L42.3,33.6L42.3,33.6L42.3,33.6z M40.6,33.6h-3.8v-4.9
	c0.9,0.4,1.7,1,2.5,1.7l1.3,1.3C40.6,31.8,40.6,33.6,40.6,33.6z M39.1,36.8l-2.3,2.3v-2.3H39.1z M33.6,42.3L33.6,42.3l-0.2-0.1
	L33.6,42.3L33.6,42.3L33.6,42.3L33.6,42.3z M32.4,43.5l-2.7,2.7l-3.5-3.5c0.9-0.3,1.9-0.5,3-0.5h1.9L32.4,43.5L32.4,43.5L32.4,43.5z
	 M32.4,53.5l-1.3,1.3h-1.9c-1.1,0-2.1-0.2-3-0.5l3.5-3.5L32.4,53.5L32.4,53.5L32.4,53.5z M33.6,54.6L33.6,54.6l0.1,0.2h-0.2
	L33.6,54.6L33.6,54.6L33.6,54.6z M39.1,60.2h-2.3v-2.3L39.1,60.2z M40.6,63.4v1.8l-1.3,1.3c-0.8,0.8-1.6,1.3-2.5,1.7v-4.9
	C36.8,63.4,40.6,63.4,40.6,63.4z M50.1,63.4L48.5,65l-1.6-1.6H50.1C50.1,63.4,50.1,63.4,50.1,63.4z M54.7,63.4L54.7,63.4l0.1,0.2
	L54.7,63.4L54.7,63.4L54.7,63.4L54.7,63.4z M56.4,63.4h3.8v4.9c-0.9-0.4-1.7-1-2.5-1.7l-1.3-1.3C56.4,65.2,56.4,63.4,56.4,63.4z
	 M57.9,60.2l2.3-2.3v2.3H57.9z M63.4,54.7L63.4,54.7l0.2,0.1L63.4,54.7L63.4,54.7L63.4,54.7L63.4,54.7z M64.6,53.5l2.7-2.7l3.5,3.5
	c-0.9,0.3-1.9,0.5-3,0.5h-1.9L64.6,53.5L64.6,53.5L64.6,53.5z M64.6,43.5l1.3-1.3h1.9c1.1,0,2.1,0.2,3,0.5l-3.5,3.5L64.6,43.5
	L64.6,43.5L64.6,43.5z M63.4,42.4L63.4,42.4l-0.1-0.2h0.2L63.4,42.4L63.4,42.4L63.4,42.4z M63.4,33.6V28c1.5,0,2.9,0.6,3.9,1.6
	c1.1,1,1.6,2.5,1.6,3.9L63.4,33.6L63.4,33.6L63.4,33.6z M54.8,29.2v1.9l-1.3,1.3l-2.7-2.7l3.5-3.5C54.6,27.2,54.8,28.2,54.8,29.2
	C54.8,29.2,54.8,29.2,54.8,29.2z M48.5,27.5l-3.9-3.9c1.1-1,2.4-1.7,3.9-1.7c1.5,0,2.9,0.6,3.9,1.7C52.4,23.5,48.5,27.5,48.5,27.5z
	 M46.2,29.7l-2.7,2.7l-1.3-1.3v-1.9c0-1.1,0.2-2.1,0.5-3L46.2,29.7C46.2,29.7,46.2,29.7,46.2,29.7z M33.6,33.6H28
	c0-1.5,0.6-2.9,1.6-3.9c1-1.1,2.5-1.6,3.9-1.6L33.6,33.6L33.6,33.6L33.6,33.6z M33.6,36.8v3.8h-1.8l-1.3-1.3
	c-0.8-0.8-1.3-1.6-1.7-2.5C28.7,36.8,33.6,36.8,33.6,36.8z M27.5,48.5l-3.9,3.9c-1-1.1-1.7-2.4-1.7-3.9c0-1.5,0.6-2.9,1.7-3.9
	C23.5,44.6,27.5,48.5,27.5,48.5z M30.5,57.7l1.3-1.3h1.8v3.8h-4.9C29.1,59.3,29.7,58.4,30.5,57.7z M33.6,63.4V69
	c-1.5,0-2.9-0.6-3.9-1.6c-1.1-1-1.6-2.5-1.6-3.9L33.6,63.4L33.6,63.4L33.6,63.4z M42.2,67.7v-1.9l1.3-1.3l2.7,2.7l-3.5,3.5
	C42.4,69.8,42.2,68.8,42.2,67.7C42.2,67.7,42.2,67.7,42.2,67.7z M48.5,69.5l3.9,3.9c-1.1,1-2.4,1.7-3.9,1.7c-1.5,0-2.9-0.6-3.9-1.7
	C44.6,73.5,48.5,69.5,48.5,69.5z M50.8,67.3l2.7-2.7l1.3,1.3v1.9c0,1.1-0.2,2.1-0.5,3L50.8,67.3C50.8,67.3,50.8,67.3,50.8,67.3z
	 M63.4,63.4H69c0,1.5-0.6,2.9-1.6,3.9s-2.5,1.6-3.9,1.6L63.4,63.4L63.4,63.4L63.4,63.4z M63.4,60.2v-3.8h1.8l1.3,1.3
	c0.8,0.8,1.3,1.6,1.7,2.5C68.3,60.2,63.4,60.2,63.4,60.2z M69.5,48.5l3.9-3.9c1,1.1,1.7,2.4,1.7,3.9c0,1.5-0.6,2.9-1.7,3.9
	C73.5,52.4,69.5,48.5,69.5,48.5z M72.2,41.3c-1.2-0.5-2.5-0.7-3.8-0.7h-0.9l0.6-0.6c1-1,1.7-2.1,2.2-3.2h0.4c1.6,0,3,0.2,4.4,0.6
	c-0.7,1.3-1.6,2.5-2.7,3.6C72.5,41,72.2,41.3,72.2,41.3z M48.5,12.5L48.5,12.5c4.1,0,7.6,2.4,9.7,6.1c-1.4,0.8-2.8,1.9-4,3.1L54,22
	c-1.4-1.6-3.3-2.6-5.5-2.6s-4.1,1-5.5,2.6l-0.2-0.2c-1.2-1.2-2.6-2.3-4-3.1C40.9,14.9,44.5,12.5,48.5,12.5
	C48.5,12.5,48.5,12.5,48.5,12.5z M23,23L23,23c2.9-2.9,7.1-3.7,11.2-2.5c-0.4,1.6-0.6,3.3-0.6,5v0.3c-2.1-0.1-4.2,0.5-5.7,2
	s-2.2,3.6-2,5.7h-0.3c-1.7,0-3.4,0.2-5,0.6C19.4,30.2,20.2,25.9,23,23L23,23L23,23z M12.5,48.5L12.5,48.5c0-4.1,2.4-7.6,6.1-9.7
	c0.8,1.4,1.9,2.8,3.1,4L22,43c-1.6,1.4-2.6,3.3-2.6,5.5s1,4.1,2.6,5.5l-0.2,0.2c-1.2,1.2-2.3,2.6-3.1,4
	C14.9,56.1,12.5,52.5,12.5,48.5C12.5,48.5,12.5,48.5,12.5,48.5z M23,74L23,74c-2.9-2.9-3.7-7.1-2.5-11.2c1.6,0.4,3.3,0.6,5,0.6h0.3
	c-0.1,2.1,0.5,4.2,2,5.7s3.6,2.2,5.7,2v0.3c0,1.7,0.2,3.4,0.6,5C30.2,77.6,25.9,76.8,23,74L23,74L23,74z M48.5,84.5L48.5,84.5
	c-4.1,0-7.6-2.4-9.7-6.1c1.4-0.8,2.8-1.9,4-3.1L43,75c1.4,1.6,3.3,2.6,5.5,2.6c2.1,0,4.1-1,5.5-2.6l0.2,0.2c1.2,1.2,2.6,2.3,4,3.1
	C56.1,82.1,52.5,84.5,48.5,84.5L48.5,84.5z M74,74L74,74c-2.9,2.9-7.1,3.7-11.2,2.5c0.4-1.6,0.6-3.3,0.6-5v-0.3
	c2.1,0.1,4.2-0.5,5.7-2c1.5-1.5,2.2-3.6,2-5.7h0.3c1.7,0,3.4-0.2,5-0.6C77.6,66.8,76.8,71.1,74,74L74,74L74,74z M84.5,48.5
	c0,4.1-2.4,7.6-6.1,9.7c-0.8-1.4-1.9-2.8-3.1-4L75,54c1.6-1.4,2.6-3.3,2.6-5.5s-1-4.1-2.6-5.5l0.2-0.2c1.2-1.2,2.3-2.6,3.1-4
	C82.1,40.9,84.5,44.5,84.5,48.5L84.5,48.5L84.5,48.5z"/>
<g>
	<path d="M134.5,67.2c-2.5,0-4.8-0.4-6.8-1.2c-2-0.8-3.7-1.9-5.1-3.4c-1.4-1.5-2.5-3.3-3.2-5.5c-0.7-2.2-1.1-4.7-1.1-7.5
		c0-2.8,0.4-5.3,1.3-7.5c0.9-2.2,2-4,3.5-5.5c1.5-1.5,3.2-2.6,5.2-3.4c2-0.8,4.2-1.2,6.4-1.2c1.4,0,2.6,0.1,3.8,0.3
		c1.1,0.2,2.1,0.4,3,0.7c0.8,0.3,1.5,0.5,2.1,0.8c0.5,0.3,0.9,0.5,1.2,0.6l-1.8,5c-0.8-0.5-1.9-0.9-3.3-1.4c-1.4-0.4-3-0.7-4.7-0.7
		c-1.5,0-2.8,0.3-4.1,0.8s-2.4,1.3-3.3,2.3c-0.9,1-1.6,2.3-2.2,3.8s-0.8,3.3-0.8,5.3c0,1.8,0.2,3.4,0.6,4.9c0.4,1.5,1,2.8,1.9,3.9
		c0.8,1.1,1.9,1.9,3.2,2.5c1.3,0.6,2.8,0.9,4.7,0.9c2.2,0,3.9-0.2,5.3-0.7c1.4-0.4,2.4-0.8,3.2-1.2l1.6,5c-0.4,0.3-0.9,0.5-1.6,0.8
		s-1.4,0.5-2.4,0.8s-1.9,0.4-3.1,0.6C137,67.1,135.8,67.2,134.5,67.2z"/>
	<path d="M150.2,66.5V29.8l5.9-1v12.6c0.6-0.2,1.4-0.4,2.3-0.6s1.7-0.2,2.5-0.2c2,0,3.7,0.3,5.1,0.8c1.3,0.6,2.4,1.4,3.2,2.4
		s1.4,2.2,1.7,3.7c0.3,1.4,0.5,3,0.5,4.8v14.3h-5.9V53.1c0-1.4-0.1-2.5-0.3-3.5c-0.2-1-0.5-1.7-0.9-2.3c-0.4-0.6-0.9-1-1.6-1.3
		c-0.7-0.3-1.5-0.4-2.5-0.4c-0.8,0-1.6,0.1-2.4,0.2c-0.8,0.2-1.4,0.3-1.8,0.4v20.2H150.2L150.2,66.5z"/>
	<path d="M186.8,40.5c1.9,0,3.6,0.2,4.9,0.7c1.3,0.5,2.4,1.2,3.2,2c0.8,0.9,1.4,1.9,1.7,3.2s0.5,2.6,0.5,4.1v15.4
		c-0.9,0.2-2.3,0.4-4.1,0.7c-1.8,0.3-3.9,0.4-6.2,0.4c-1.5,0-2.9-0.1-4.2-0.4c-1.3-0.3-2.3-0.8-3.2-1.4s-1.6-1.5-2.1-2.5
		c-0.5-1-0.8-2.3-0.8-3.8c0-1.5,0.3-2.7,0.8-3.7c0.6-1,1.3-1.8,2.3-2.4c1-0.6,2.1-1.1,3.4-1.4c1.3-0.3,2.6-0.4,4-0.4
		c0.6,0,1.3,0,2,0.1c0.7,0.1,1.5,0.2,2.3,0.4v-1c0-0.7-0.1-1.3-0.2-1.9c-0.2-0.6-0.4-1.2-0.8-1.6c-0.4-0.5-0.9-0.8-1.6-1.1
		c-0.7-0.3-1.5-0.4-2.5-0.4c-1.4,0-2.6,0.1-3.7,0.3c-1.1,0.2-2.1,0.4-2.8,0.7l-0.7-4.8c0.7-0.3,1.8-0.5,3.2-0.8
		C183.7,40.6,185.2,40.5,186.8,40.5L186.8,40.5z M187.3,62.3c1.8,0,3.2-0.1,4.1-0.3v-6.5c-0.3-0.1-0.8-0.2-1.4-0.3
		c-0.6-0.1-1.3-0.1-2-0.1c-0.6,0-1.3,0-2,0.1s-1.3,0.3-1.8,0.5s-1,0.6-1.3,1.1c-0.3,0.5-0.5,1.1-0.5,1.8c0,1.4,0.4,2.4,1.3,2.9
		C184.7,62.1,185.8,62.3,187.3,62.3z"/>
	<path d="M204,34.4l5.9-1v7.7h9V46h-9v10.3c0,2,0.3,3.5,1,4.4s1.7,1.3,3.3,1.3c1.1,0,2-0.1,2.8-0.3s1.5-0.4,2-0.6l1,4.7
		c-0.7,0.3-1.6,0.6-2.7,0.9s-2.4,0.5-3.9,0.5c-1.8,0-3.3-0.2-4.5-0.7c-1.2-0.5-2.2-1.2-2.9-2.1c-0.7-0.9-1.2-2-1.5-3.3
		c-0.3-1.3-0.4-2.8-0.4-4.5L204,34.4L204,34.4z"/>
	<path d="M257.7,36.6c0.5,1.7,1.1,3.6,1.6,5.5c0.6,1.9,1.2,3.8,1.8,5.7c0.6,1.9,1.3,3.7,1.9,5.6c0.6,1.8,1.2,3.5,1.8,5.2
		c0.5-1.7,1-3.6,1.4-5.7c0.5-2.1,0.9-4.2,1.4-6.4c0.5-2.2,0.9-4.5,1.3-6.8c0.4-2.3,0.8-4.6,1.2-6.8h6.3c-1.1,6.1-2.4,11.9-3.8,17.5
		c-1.4,5.6-2.9,11-4.6,16.1h-5.9c-2.5-6.5-4.9-13.7-7.3-21.4c-1.2,3.9-2.4,7.6-3.6,11.1c-1.2,3.5-2.5,6.9-3.7,10.2h-5.8
		c-1.7-5.1-3.3-10.5-4.7-16.1s-2.6-11.4-3.7-17.5h6.5c0.4,2.2,0.8,4.4,1.2,6.7c0.4,2.3,0.9,4.5,1.4,6.8c0.5,2.2,0.9,4.4,1.4,6.4
		c0.5,2.1,1,4,1.5,5.7c0.6-1.6,1.2-3.4,1.9-5.2c0.6-1.8,1.3-3.7,1.9-5.6c0.6-1.9,1.2-3.8,1.8-5.6c0.6-1.9,1.1-3.7,1.6-5.4
		L257.7,36.6L257.7,36.6z"/>
	<path d="M303.3,53.8c0,2-0.3,3.8-0.9,5.5c-0.6,1.6-1.4,3.1-2.5,4.2c-1.1,1.2-2.4,2.1-3.9,2.7s-3.2,1-5,1s-3.5-0.3-4.9-1
		c-1.5-0.6-2.8-1.6-3.8-2.7c-1.1-1.2-1.9-2.6-2.5-4.2c-0.6-1.6-0.9-3.5-0.9-5.5c0-2,0.3-3.8,0.9-5.5c0.6-1.6,1.4-3,2.5-4.2
		s2.4-2.1,3.9-2.7c1.5-0.6,3.1-0.9,4.9-0.9s3.4,0.3,4.9,0.9c1.5,0.6,2.8,1.5,3.9,2.7c1.1,1.2,1.9,2.6,2.5,4.2
		C303,49.9,303.3,51.8,303.3,53.8z M297.3,53.8c0-2.5-0.5-4.5-1.6-6c-1.1-1.5-2.6-2.2-4.5-2.2s-3.4,0.7-4.5,2.2
		c-1.1,1.5-1.6,3.5-1.6,6c0,2.5,0.5,4.6,1.6,6.1c1.1,1.5,2.6,2.2,4.5,2.2s3.4-0.7,4.5-2.2C296.8,58.3,297.3,56.3,297.3,53.8z"/>
	<path d="M323.8,46.4c-0.5-0.2-1.2-0.3-2-0.5c-0.9-0.2-1.8-0.3-3-0.3c-0.6,0-1.3,0.1-2.1,0.2c-0.7,0.1-1.2,0.2-1.5,0.3v20.3h-5.9
		V42.3c1.1-0.4,2.5-0.8,4.2-1.2c1.7-0.4,3.6-0.6,5.6-0.6c0.4,0,0.8,0,1.4,0.1s1,0.1,1.6,0.2s1,0.2,1.5,0.3c0.5,0.1,0.9,0.2,1.2,0.3
		L323.8,46.4L323.8,46.4z"/>
	<path d="M334.8,51c0.7-0.8,1.5-1.6,2.4-2.5c0.8-0.9,1.7-1.8,2.5-2.7c0.8-0.9,1.6-1.7,2.3-2.6c0.7-0.8,1.3-1.5,1.9-2.2h6.9
		c-1.6,1.8-3.3,3.7-5.1,5.6c-1.8,1.9-3.6,3.8-5.4,5.7c1,0.8,2,1.8,3,2.9c1.1,1.1,2.1,2.4,3.1,3.7c1,1.3,1.9,2.6,2.8,3.9
		c0.9,1.3,1.6,2.5,2.2,3.6h-6.8c-0.6-1-1.3-2.1-2-3.2c-0.8-1.1-1.6-2.2-2.4-3.2c-0.9-1-1.8-2-2.7-2.9c-0.9-0.9-1.8-1.7-2.7-2.4v11.6
		h-5.9V29.8l5.9-1L334.8,51L334.8,51z"/>
	<path d="M362,62.2c1.6,0,2.7-0.2,3.4-0.6s1.1-1,1.1-1.9c0-0.8-0.4-1.5-1.1-2.1c-0.8-0.5-2-1.1-3.8-1.8c-1.1-0.4-2-0.8-2.9-1.2
		c-0.9-0.4-1.7-0.9-2.3-1.5c-0.6-0.6-1.2-1.3-1.5-2.1c-0.4-0.8-0.6-1.8-0.6-3c0-2.3,0.9-4.2,2.6-5.5c1.7-1.3,4-2,7-2
		c1.5,0,2.9,0.1,4.3,0.4c1.4,0.3,2.4,0.5,3.1,0.8l-1.1,4.8c-0.6-0.3-1.5-0.6-2.5-0.8c-1-0.2-2.2-0.4-3.5-0.4c-1.2,0-2.2,0.2-2.9,0.6
		s-1.1,1-1.1,1.9c0,0.4,0.1,0.8,0.2,1.1c0.1,0.3,0.4,0.6,0.8,0.9c0.4,0.3,0.8,0.5,1.4,0.8c0.6,0.3,1.3,0.6,2.1,0.8
		c1.4,0.5,2.6,1,3.5,1.5s1.8,1.1,2.4,1.7c0.6,0.6,1.1,1.3,1.4,2.2c0.3,0.8,0.4,1.8,0.4,2.9c0,2.4-0.9,4.3-2.7,5.5s-4.4,1.9-7.7,1.9
		c-2.2,0-4-0.2-5.4-0.6c-1.4-0.4-2.3-0.7-2.9-0.9l1-4.9c0.9,0.4,1.9,0.7,3.1,1C359,62.1,360.4,62.2,362,62.2L362,62.2z"/>
	<path d="M377.5,34.4l5.9-1v7.7h9V46h-9v10.3c0,2,0.3,3.5,1,4.4c0.6,0.9,1.7,1.3,3.3,1.3c1.1,0,2-0.1,2.8-0.3s1.5-0.4,2-0.6l1,4.7
		c-0.7,0.3-1.6,0.6-2.7,0.9c-1.1,0.3-2.4,0.5-3.9,0.5c-1.8,0-3.3-0.2-4.5-0.7s-2.2-1.2-2.9-2.1c-0.7-0.9-1.2-2-1.5-3.3
		c-0.3-1.3-0.4-2.8-0.4-4.5L377.5,34.4L377.5,34.4z"/>
	<path d="M406.5,40.5c1.9,0,3.6,0.2,4.9,0.7c1.3,0.5,2.4,1.2,3.2,2c0.8,0.9,1.4,1.9,1.7,3.2s0.5,2.6,0.5,4.1v15.4
		c-0.9,0.2-2.3,0.4-4.1,0.7c-1.8,0.3-3.9,0.4-6.2,0.4c-1.5,0-2.9-0.1-4.2-0.4c-1.3-0.3-2.3-0.8-3.2-1.4c-0.9-0.6-1.6-1.5-2.1-2.5
		c-0.5-1-0.8-2.3-0.8-3.8c0-1.5,0.3-2.7,0.8-3.7c0.6-1,1.3-1.8,2.3-2.4s2.1-1.1,3.4-1.4c1.3-0.3,2.6-0.4,4-0.4c0.6,0,1.3,0,2,0.1
		c0.7,0.1,1.5,0.2,2.3,0.4v-1c0-0.7-0.1-1.3-0.2-1.9c-0.2-0.6-0.4-1.2-0.8-1.6c-0.4-0.5-0.9-0.8-1.6-1.1c-0.7-0.3-1.5-0.4-2.5-0.4
		c-1.4,0-2.6,0.1-3.7,0.3c-1.1,0.2-2.1,0.4-2.8,0.7l-0.7-4.8c0.7-0.3,1.8-0.5,3.2-0.8C403.3,40.6,404.9,40.5,406.5,40.5L406.5,40.5z
		 M407,62.3c1.8,0,3.2-0.1,4.1-0.3v-6.5c-0.3-0.1-0.8-0.2-1.4-0.3s-1.3-0.1-2-0.1c-0.6,0-1.3,0-2,0.1c-0.7,0.1-1.3,0.3-1.8,0.5
		s-1,0.6-1.3,1.1c-0.3,0.5-0.5,1.1-0.5,1.8c0,1.4,0.4,2.4,1.3,2.9C404.3,62.1,405.5,62.3,407,62.3L407,62.3z"/>
	<path d="M423.6,34.4l5.9-1v7.7h9V46h-9v10.3c0,2,0.3,3.5,1,4.4c0.6,0.9,1.7,1.3,3.3,1.3c1.1,0,2-0.1,2.8-0.3s1.5-0.4,2-0.6l1,4.7
		c-0.7,0.3-1.6,0.6-2.7,0.9c-1.1,0.3-2.4,0.5-3.9,0.5c-1.8,0-3.3-0.2-4.5-0.7c-1.2-0.5-2.2-1.2-2.9-2.1c-0.7-0.9-1.2-2-1.5-3.3
		s-0.4-2.8-0.4-4.5L423.6,34.4L423.6,34.4z"/>
	<path d="M450.7,33.7c0,1.1-0.4,2-1.1,2.6s-1.6,1-2.5,1s-1.9-0.3-2.6-1c-0.7-0.6-1.1-1.5-1.1-2.6c0-1.1,0.4-2,1.1-2.7
		c0.7-0.6,1.6-1,2.6-1s1.8,0.3,2.5,1S450.7,32.6,450.7,33.7z M450.1,66.5h-5.9V41.1h5.9V66.5z"/>
	<path d="M480.5,53.8c0,2-0.3,3.8-0.9,5.5s-1.4,3.1-2.5,4.2c-1.1,1.2-2.4,2.1-3.9,2.7c-1.5,0.6-3.2,1-5,1s-3.5-0.3-4.9-1
		c-1.5-0.6-2.8-1.6-3.8-2.7c-1.1-1.2-1.9-2.6-2.5-4.2c-0.6-1.6-0.9-3.5-0.9-5.5c0-2,0.3-3.8,0.9-5.5c0.6-1.6,1.4-3,2.5-4.2
		c1.1-1.2,2.4-2.1,3.9-2.7c1.5-0.6,3.1-0.9,4.9-0.9s3.4,0.3,4.9,0.9c1.5,0.6,2.8,1.5,3.9,2.7c1.1,1.2,1.9,2.6,2.5,4.2
		C480.2,49.9,480.5,51.8,480.5,53.8z M474.5,53.8c0-2.5-0.5-4.5-1.6-6c-1.1-1.5-2.6-2.2-4.5-2.2s-3.4,0.7-4.5,2.2
		c-1.1,1.5-1.6,3.5-1.6,6c0,2.5,0.5,4.6,1.6,6.1c1.1,1.5,2.6,2.2,4.5,2.2s3.4-0.7,4.5-2.2C473.9,58.3,474.5,56.3,474.5,53.8z"/>
	<path d="M486.5,41.9c1.1-0.3,2.6-0.6,4.4-0.9c1.8-0.3,3.8-0.4,6-0.4c2.1,0,3.8,0.3,5.2,0.8c1.4,0.6,2.5,1.4,3.3,2.4
		c0.8,1,1.4,2.2,1.7,3.7c0.3,1.4,0.5,3,0.5,4.7v14.3h-5.9V53.1c0-1.4-0.1-2.5-0.3-3.5c-0.2-1-0.5-1.7-0.9-2.3c-0.4-0.6-1-1-1.6-1.3
		c-0.7-0.3-1.5-0.4-2.5-0.4c-0.7,0-1.5,0-2.3,0.1s-1.4,0.2-1.8,0.2v20.5h-5.9L486.5,41.9L486.5,41.9z"/>
</g>
</svg>
