<?xml version="1.0" encoding="UTF-8"?>
<svg id="uuid-edb6776a-daf9-499c-b6ff-4f31ab853eb8" xmlns="http://www.w3.org/2000/svg" viewBox="0 0 290.28 134.14">
  <defs>
    <style>
      .cls-1, .cls-2 {
        stroke-width: 0px;
      }

      .cls-2 {
        fill: #0d0d0d;
        fill-rule: evenodd;
      }

      .cls-3 {
        fill: #fff;
        stroke: #fff;
        stroke-miterlimit: 10;
      }
    </style>
  </defs>
  <rect class="cls-3" x="96.95" y=".5" width="96.38" height="96.38" rx="11.34" ry="11.34"/>
  <path class="cls-2" d="M178.43,34.9c2.15-5.95,1.24-12.34-2.96-16.54h0c-4.2-4.2-10.6-5.11-16.54-2.96-2.69-5.72-7.85-9.6-13.79-9.6h0c-5.94,0-11.11,3.88-13.79,9.6-5.95-2.15-12.34-1.24-16.54,2.96h0c-4.2,4.2-5.11,10.6-2.96,16.54-5.72,2.69-9.6,7.85-9.6,13.79h0c0,5.94,3.88,11.11,9.6,13.79-2.15,5.95-1.24,12.34,2.96,16.54h0c4.2,4.2,10.6,5.11,16.54,2.96,2.69,5.72,7.85,9.6,13.79,9.6h0c5.94,0,11.11-3.88,13.79-9.6,5.95,2.15,12.34,1.24,16.54-2.96s5.11-10.6,2.96-16.54c5.72-2.69,9.6-7.85,9.6-13.79h0c0-5.94-3.88-11.11-9.6-13.79ZM172.1,21.73h0c3.04,3.04,3.88,7.53,2.68,11.87-1.69-.43-3.48-.67-5.33-.67h-.36c.15-2.27-.54-4.46-2.14-6.06s-3.79-2.29-6.06-2.14v-.36c0-1.85-.24-3.64-.67-5.33,4.34-1.2,8.84-.36,11.87,2.68h0ZM170.53,56.59c1.16,1.16,2.11,2.45,2.85,3.8-1.48.43-3.05.67-4.7.67h-.45c-.54-1.21-1.32-2.37-2.34-3.4l-.64-.64h.9c1.45,0,2.82-.27,4.06-.75,0,0,.32.32.32.32ZM156.84,76.93c-1.35-.74-2.63-1.69-3.8-2.85l-.32-.32c.48-1.24.75-2.61.75-4.06v-.9l.64.64c1.02,1.02,2.19,1.8,3.4,2.34v.45c0,1.65-.24,3.22-.67,4.7ZM132.77,72.23v-.45c1.21-.54,2.37-1.32,3.4-2.34l.64-.64v.9c0,1.45.27,2.82.75,4.06l-.32.32c-1.16,1.16-2.45,2.11-3.8,2.85-.43-1.48-.67-3.05-.67-4.7ZM121.6,61.06c-1.65,0-3.22-.24-4.7-.67.74-1.35,1.69-2.63,2.85-3.8l.32-.32c1.24.48,2.61.75,4.06.75h.9l-.64.64c-1.02,1.02-1.8,2.19-2.34,3.4,0,0-.45,0-.45,0ZM119.75,40.79c-1.16-1.16-2.11-2.45-2.85-3.8,1.48-.43,3.05-.67,4.7-.67h.45c.54,1.21,1.32,2.37,2.34,3.4l.64.64h-.9c-1.45,0-2.82.27-4.06.75,0,0-.32-.32-.32-.32ZM133.44,20.45c1.35.74,2.63,1.69,3.8,2.85l.32.32c-.48,1.24-.75,2.61-.75,4.06v.9l-.64-.64c-1.02-1.02-2.19-1.8-3.4-2.34v-.45c0-1.65.24-3.22.67-4.7ZM157.51,25.15v.45c-1.21.54-2.37,1.32-3.4,2.34l-.64.64v-.9c0-1.45-.27-2.82-.75-4.06l.32-.32c1.16-1.16,2.45-2.11,3.8-2.85.43,1.48.67,3.05.67,4.7ZM162.84,40.36h-1.94v-4.03h5.17c-.43.94-1.04,1.84-1.83,2.63,0,0-1.4,1.4-1.4,1.4ZM138.68,64.51l-.16.16v-.23h.1l.07.07h0ZM151.6,32.87l.16-.16v.23h-.1l-.07-.07h0ZM148.14,61.06l-1.79-1.79,2.24-2.24h3.17v2.53l-1.5,1.5s-2.12,0-2.12,0ZM140.02,61.06l-1.5-1.5v-2.53h3.17l2.24,2.24-1.79,1.79s-2.12,0-2.12,0ZM142.14,36.32l1.79,1.79-2.24,2.24h-3.17v-2.53l1.5-1.5s2.12,0,2.12,0ZM150.26,36.32l1.5,1.5v2.53h-3.17l-2.24-2.24,1.79-1.79s2.12,0,2.12,0ZM157.51,45.69l-1.79,1.79-2.24-2.24v-3.17h2.53l1.5,1.5s0,2.12,0,2.12ZM147.88,55.31h-5.49l-3.88-3.88v-5.49l3.88-3.88h5.49l3.88,3.88v5.49l-3.88,3.88ZM151.76,53.85v1.46h-1.46l1.46-1.46ZM146.17,57.02l-1.03,1.03-1.03-1.03s2.06,0,2.06,0ZM138.52,53.85l1.46,1.46h-1.46v-1.46ZM136.81,49.72l-1.03-1.03,1.03-1.03s0,2.06,0,2.06ZM138.52,43.53v-1.46h1.46l-1.46,1.46ZM144.11,40.36l1.03-1.03,1.03,1.03s-2.06,0-2.06,0ZM151.76,43.53l-1.46-1.46h1.46v1.46ZM153.47,47.66l1.03,1.03-1.03,1.03s0-2.06,0-2.06ZM153.47,40.36v-.82l.82.82h-.82ZM145.14,36.9l-.58-.58h1.16s-.58.58-.58.58ZM136.81,40.36h-.82l.82-.82v.82ZM134.27,42.07h2.53v3.17l-2.24,2.24-1.79-1.79v-2.12s1.5-1.5,1.5-1.5ZM129.38,50.42l-1.73-1.73,1.73-1.73v3.47h0ZM132.77,48.11l.58.58-.58.58v-1.16ZM132.77,51.69l1.79-1.79,2.24,2.24v3.17h-2.53l-1.5-1.5s0-2.12,0-2.12ZM136.81,57.02v.82l-.82-.82h.82ZM145.14,60.47l.58.58h-1.16s.58-.58.58-.58ZM153.47,57.02h.82l-.82.82v-.82ZM156.01,55.31h-2.53v-3.17l2.24-2.24,1.79,1.79v2.12l-1.5,1.5ZM156.92,48.69l.58-.58v1.16s-.58-.58-.58-.58ZM160.9,46.96l1.73,1.73-1.73,1.73v-3.47h0ZM155.06,36.32h2.45v2.45l-2.45-2.45ZM153.47,32.93v-1.94l1.4-1.4c.8-.8,1.7-1.4,2.63-1.83v5.17h-4.03ZM143.41,32.93l1.73-1.73,1.73,1.73h-3.47.01ZM138.61,32.93h-.1v-.23l.16.16-.07.07h0ZM136.81,32.93h-4.03v-5.17c.94.43,1.84,1.04,2.63,1.83l1.4,1.4s0,1.94,0,1.94ZM135.22,36.32l-2.45,2.45v-2.45h2.45ZM129.38,42.16l-.07.07-.16-.16h.23v.1h0ZM128.1,43.44l-2.85,2.85-3.66-3.66c.97-.36,2.03-.57,3.16-.57h1.98l1.37,1.37h0ZM128.1,53.94l-1.37,1.37h-1.98c-1.12,0-2.19-.21-3.16-.57l3.66-3.66,2.85,2.85h0ZM129.32,55.15l.07.07v.1h-.23l.16-.16h0ZM135.22,61.06h-2.45v-2.45l2.45,2.45ZM136.81,64.45v1.94l-1.4,1.4c-.8.8-1.7,1.4-2.63,1.83v-5.17s4.03,0,4.03,0ZM146.87,64.45l-1.73,1.73-1.73-1.73h3.47-.01ZM151.67,64.45h.1v.23l-.16-.16.07-.07h0ZM153.47,64.45h4.03v5.17c-.94-.43-1.84-1.04-2.63-1.83l-1.4-1.4s0-1.94,0-1.94ZM155.05,61.06l2.45-2.45v2.45h-2.45ZM160.9,55.22l.07-.07.16.16h-.23v-.1h0ZM162.17,53.94l2.85-2.85,3.66,3.66c-.97.36-2.03.57-3.16.57h-1.98l-1.37-1.37h0ZM162.17,43.44l1.37-1.37h1.98c1.12,0,2.19.21,3.16.57l-3.66,3.66-2.85-2.85h0ZM160.96,42.23l-.07-.07v-.1h.23l-.16.16h0ZM160.9,32.93v-5.9c1.58.03,3.06.6,4.18,1.71s1.68,2.61,1.71,4.18h-5.9.01ZM151.76,28.3v1.98l-1.37,1.37-2.85-2.85,3.66-3.66c.36.97.57,2.03.57,3.16h-.01ZM145.14,26.41l-4.17-4.17c1.14-1.09,2.59-1.75,4.17-1.75s3.03.66,4.17,1.75c0,0-4.17,4.17-4.17,4.17ZM142.74,28.8l-2.85,2.85-1.37-1.37v-1.98c0-1.12.21-2.19.57-3.16l3.66,3.66h-.01ZM129.38,32.93h-5.9c.03-1.58.6-3.06,1.71-4.18s2.61-1.68,4.18-1.71v5.9h0ZM129.38,36.32v4.03h-1.94l-1.4-1.4c-.8-.8-1.4-1.7-1.83-2.63,0,0,5.17,0,5.17,0ZM122.86,48.69l-4.17,4.17c-1.09-1.14-1.75-2.59-1.75-4.17s.66-3.03,1.75-4.17c0,0,4.17,4.17,4.17,4.17ZM126.04,58.42l1.4-1.4h1.94v4.03h-5.17c.43-.94,1.04-1.84,1.83-2.63ZM129.38,64.45v5.9c-1.58-.03-3.06-.6-4.18-1.71s-1.68-2.61-1.71-4.18h5.9-.01ZM138.52,69.07v-1.98l1.37-1.37,2.85,2.85-3.66,3.66c-.36-.97-.57-2.03-.57-3.16h.01ZM145.14,70.97l4.17,4.17c-1.14,1.09-2.59,1.75-4.17,1.75s-3.03-.66-4.17-1.75c0,0,4.17-4.17,4.17-4.17ZM147.54,68.58l2.85-2.85,1.37,1.37v1.98c0,1.12-.21,2.19-.57,3.16l-3.66-3.66h.01ZM160.9,64.45h5.9c-.03,1.58-.6,3.06-1.71,4.18s-2.61,1.68-4.18,1.71v-5.9h-.01ZM160.9,61.06v-4.03h1.94l1.4,1.4c.8.8,1.4,1.7,1.83,2.63,0,0-5.17,0-5.17,0ZM167.42,48.69l4.17-4.17c1.09,1.14,1.75,2.59,1.75,4.17s-.66,3.03-1.75,4.17c0,0-4.17-4.17-4.17-4.17ZM170.21,41.1c-1.24-.48-2.61-.75-4.06-.75h-.9l.64-.64c1.02-1.02,1.8-2.19,2.34-3.4h.45c1.65,0,3.22.24,4.7.67-.74,1.35-1.69,2.63-2.85,3.8,0,0-.32.32-.32.32ZM145.14,10.56h0c4.29,0,8.07,2.58,10.29,6.5-1.5.89-2.93,1.99-4.24,3.3l-.25.25c-1.5-1.71-3.54-2.77-5.79-2.77s-4.29,1.06-5.79,2.77l-.25-.25c-1.31-1.31-2.74-2.41-4.24-3.3,2.22-3.92,6-6.5,10.29-6.5h-.02ZM118.18,21.73h0c3.04-3.04,7.53-3.88,11.87-2.68-.43,1.69-.67,3.48-.67,5.33v.36c-2.27-.15-4.46.54-6.06,2.14s-2.29,3.79-2.14,6.06h-.36c-1.85,0-3.64.24-5.33.67-1.2-4.34-.36-8.84,2.68-11.87h0ZM107.01,48.69h0c0-4.29,2.58-8.07,6.5-10.29.89,1.5,1.99,2.93,3.3,4.24l.25.25c-1.71,1.5-2.77,3.54-2.77,5.79s1.06,4.29,2.77,5.79l-.25.25c-1.31,1.31-2.41,2.74-3.3,4.24-3.92-2.22-6.5-6-6.5-10.29v.02ZM118.18,75.65h0c-3.04-3.04-3.88-7.53-2.68-11.87,1.69.43,3.48.67,5.33.67h.36c-.15,2.27.54,4.46,2.14,6.06s3.79,2.29,6.06,2.14v.36c0,1.85.24,3.64.67,5.33-4.34,1.2-8.84.36-11.87-2.68h0ZM145.14,86.82h0c-4.29,0-8.07-2.58-10.29-6.5,1.5-.89,2.93-1.99,4.24-3.3l.25-.25c1.5,1.71,3.54,2.77,5.79,2.77s4.29-1.06,5.79-2.77l.25.25c1.31,1.31,2.74,2.41,4.24,3.3-2.22,3.92-6,6.5-10.29,6.5h.02ZM172.1,75.65h0c-3.04,3.04-7.53,3.88-11.87,2.68.43-1.69.67-3.48.67-5.33v-.36c2.27.15,4.46-.54,6.06-2.14s2.29-3.79,2.14-6.06h.36c1.85,0,3.64-.24,5.33-.67,1.2,4.34.36,8.84-2.68,11.87h-.01ZM183.27,48.69c0,4.29-2.58,8.07-6.5,10.29-.89-1.5-1.99-2.93-3.3-4.24l-.25-.25c1.71-1.5,2.77-3.54,2.77-5.79s-1.06-4.29-2.77-5.79l.25-.25c1.31-1.31,2.41-2.74,3.3-4.24,3.92,2.22,6.5,6,6.5,10.29h0v-.02Z"/>
  <g>
    <path class="cls-1" d="M12.07,134.14c-1.88,0-3.56-.29-5.06-.87s-2.76-1.43-3.79-2.55c-1.04-1.12-1.83-2.49-2.38-4.1-.55-1.61-.83-3.47-.83-5.56s.32-3.95.96-5.56c.64-1.61,1.51-2.98,2.62-4.1,1.11-1.12,2.41-1.97,3.9-2.55,1.49-.58,3.1-.87,4.81-.87,1.04,0,1.97.08,2.82.23.84.16,1.58.33,2.2.52.63.19,1.14.4,1.55.61.41.22.7.37.87.47l-1.34,3.72c-.58-.36-1.4-.7-2.48-1.03-1.07-.33-2.23-.49-3.49-.49-1.08,0-2.1.19-3.04.56-.94.37-1.75.93-2.44,1.68-.69.75-1.22,1.69-1.61,2.82-.39,1.13-.58,2.44-.58,3.94,0,1.32.15,2.54.45,3.65s.76,2.07,1.39,2.87c.63.81,1.42,1.43,2.38,1.88.96.45,2.12.67,3.47.67,1.61,0,2.93-.16,3.94-.49s1.79-.63,2.35-.92l1.23,3.72c-.29.19-.68.39-1.17.58-.49.19-1.08.38-1.75.56-.67.18-1.43.33-2.28.43-.84.11-1.75.16-2.71.16Z"/>
    <path class="cls-1" d="M23.77,133.6v-27.32l4.37-.72v9.36c.48-.17,1.04-.31,1.68-.43.64-.12,1.27-.18,1.9-.18,1.52,0,2.78.21,3.78.63,1,.42,1.8,1.01,2.4,1.77.6.76,1.03,1.67,1.28,2.73.25,1.06.38,2.24.38,3.54v10.62h-4.37v-9.94c0-1.01-.07-1.87-.2-2.58-.13-.71-.35-1.29-.65-1.73-.3-.45-.7-.77-1.21-.98-.51-.2-1.13-.31-1.88-.31-.58,0-1.17.06-1.77.18-.6.12-1.05.23-1.34.33v15.03h-4.37Z"/>
    <path class="cls-1" d="M51.09,114.24c1.45,0,2.66.18,3.65.54.99.36,1.78.87,2.37,1.52.59.65,1.01,1.44,1.26,2.37.25.93.38,1.95.38,3.05v11.45c-.67.14-1.69.32-3.05.52-1.36.2-2.9.31-4.61.31-1.13,0-2.17-.11-3.11-.33-.94-.22-1.74-.57-2.4-1.05-.66-.48-1.18-1.11-1.55-1.88-.37-.77-.56-1.72-.56-2.85s.21-2,.63-2.75c.42-.75.99-1.35,1.72-1.82.72-.47,1.56-.81,2.51-1.01.95-.2,1.94-.31,2.98-.31.48,0,.99.03,1.52.09.53.06,1.1.16,1.7.31v-.72c0-.51-.06-.99-.18-1.45-.12-.46-.33-.86-.63-1.21-.3-.35-.7-.62-1.19-.81-.49-.19-1.11-.29-1.86-.29-1.01,0-1.94.07-2.78.22-.84.14-1.53.31-2.06.51l-.54-3.54c.55-.19,1.36-.38,2.42-.58,1.06-.19,2.19-.29,3.4-.29ZM51.45,130.53c1.35,0,2.37-.07,3.07-.22v-4.84c-.24-.07-.59-.14-1.05-.22-.46-.07-.96-.11-1.52-.11-.48,0-.97.04-1.46.11-.49.07-.94.2-1.34.4-.4.19-.72.46-.96.81-.24.35-.36.79-.36,1.32,0,1.04.33,1.75.98,2.15s1.53.6,2.64.6Z"/>
    <path class="cls-1" d="M63.88,109.72l4.37-.72v5.71h6.72v3.65h-6.72v7.7c0,1.52.24,2.6.72,3.25.48.65,1.3.98,2.46.98.8,0,1.5-.08,2.11-.25.61-.17,1.1-.33,1.46-.47l.72,3.47c-.51.22-1.17.44-1.99.67-.82.23-1.78.34-2.89.34-1.35,0-2.47-.18-3.38-.54s-1.62-.89-2.15-1.57c-.53-.69-.9-1.52-1.12-2.49-.22-.98-.33-2.09-.33-3.34v-16.37Z"/>
    <path class="cls-1" d="M103.88,111.38c.39,1.3.8,2.66,1.23,4.06.43,1.41.89,2.82,1.35,4.23.47,1.41.94,2.79,1.41,4.16s.92,2.64,1.35,3.85c.36-1.3.71-2.72,1.05-4.25.34-1.53.67-3.12,1.01-4.77.34-1.65.67-3.33.99-5.04.33-1.71.63-3.4.92-5.06h4.7c-.84,4.53-1.78,8.88-2.81,13.06-1.03,4.18-2.19,8.17-3.46,11.98h-4.38c-1.87-4.87-3.67-10.18-5.42-15.93-.89,2.91-1.8,5.69-2.71,8.31-.92,2.63-1.83,5.17-2.75,7.62h-4.34c-1.3-3.81-2.46-7.8-3.48-11.98-1.02-4.18-1.95-8.53-2.79-13.06h4.88c.29,1.64.6,3.31.92,5.02.33,1.71.66,3.39,1.01,5.04.35,1.65.71,3.25,1.07,4.79.36,1.54.72,2.96,1.08,4.26.46-1.23.92-2.52,1.39-3.88.47-1.36.93-2.75,1.39-4.16.46-1.41.9-2.81,1.32-4.21.42-1.4.81-2.75,1.17-4.05h3.9Z"/>
    <path class="cls-1" d="M137.91,124.14c0,1.49-.22,2.85-.65,4.08s-1.05,2.28-1.84,3.14c-.8.87-1.75,1.54-2.87,2.02-1.12.48-2.35.72-3.7.72s-2.58-.24-3.69-.72c-1.11-.48-2.06-1.16-2.85-2.02s-1.42-1.91-1.86-3.14c-.45-1.23-.67-2.59-.67-4.08s.22-2.85.67-4.07c.45-1.22,1.07-2.26,1.88-3.13.81-.87,1.76-1.54,2.87-2.01,1.11-.47,2.32-.7,3.65-.7s2.55.23,3.67.7c1.12.47,2.08,1.14,2.87,2.01.8.87,1.41,1.91,1.86,3.13.45,1.22.67,2.57.67,4.07ZM133.43,124.14c0-1.88-.4-3.37-1.21-4.46-.81-1.1-1.93-1.64-3.38-1.64s-2.57.55-3.38,1.64c-.81,1.1-1.21,2.58-1.21,4.46s.4,3.41,1.21,4.52c.81,1.11,1.93,1.66,3.38,1.66s2.57-.55,3.38-1.66c.81-1.11,1.21-2.61,1.21-4.52Z"/>
    <path class="cls-1" d="M153.2,118.64c-.36-.12-.86-.25-1.5-.38-.64-.13-1.38-.2-2.22-.2-.48,0-.99.05-1.54.14-.54.1-.92.18-1.14.25v15.14h-4.37v-17.99c.84-.31,1.9-.61,3.16-.89,1.26-.28,2.67-.42,4.21-.42.29,0,.63.02,1.01.05.39.04.77.08,1.16.14.39.06.76.13,1.12.22.36.08.65.16.87.23l-.76,3.69Z"/>
    <path class="cls-1" d="M161.36,122.08c.55-.58,1.14-1.2,1.77-1.86.63-.66,1.24-1.32,1.84-1.99.6-.66,1.17-1.3,1.72-1.92.54-.61,1.01-1.15,1.39-1.61h5.17c-1.2,1.35-2.47,2.75-3.8,4.19-1.33,1.45-2.67,2.85-4.02,4.23.72.6,1.48,1.33,2.27,2.19s1.56,1.76,2.31,2.73c.75.96,1.44,1.93,2.09,2.89s1.19,1.85,1.62,2.67h-5.06c-.43-.75-.93-1.53-1.5-2.35-.57-.82-1.17-1.61-1.82-2.38-.65-.77-1.31-1.5-1.99-2.19-.67-.69-1.34-1.27-1.99-1.75v8.67h-4.37v-27.32l4.37-.72v16.51Z"/>
    <path class="cls-1" d="M181.63,130.46c1.16,0,2-.14,2.53-.42.53-.28.8-.75.8-1.43,0-.63-.28-1.14-.85-1.55-.57-.41-1.5-.86-2.8-1.34-.8-.29-1.52-.6-2.19-.92s-1.23-.7-1.72-1.14c-.48-.43-.86-.96-1.14-1.57-.28-.61-.42-1.37-.42-2.26,0-1.73.64-3.1,1.91-4.1,1.28-1,3.01-1.5,5.2-1.5,1.11,0,2.17.1,3.18.31,1.01.2,1.77.4,2.28.6l-.79,3.54c-.48-.22-1.1-.42-1.84-.6-.75-.18-1.61-.27-2.6-.27-.89,0-1.61.15-2.17.45-.55.3-.83.77-.83,1.39,0,.31.05.59.16.83.11.24.3.46.56.67.26.2.61.41,1.05.61.43.2.96.42,1.59.63,1.04.39,1.91.77,2.64,1.14.72.37,1.32.8,1.79,1.26.47.47.81,1.01,1.03,1.61.22.6.33,1.32.33,2.17,0,1.81-.67,3.17-2.01,4.1-1.34.93-3.25,1.39-5.73,1.39-1.66,0-3-.14-4.01-.42-1.01-.28-1.72-.5-2.13-.67l.76-3.65c.65.27,1.43.52,2.33.76s1.93.36,3.09.36Z"/>
    <path class="cls-1" d="M193.2,109.72l4.37-.72v5.71h6.72v3.65h-6.72v7.7c0,1.52.24,2.6.72,3.25.48.65,1.3.98,2.46.98.8,0,1.5-.08,2.11-.25.61-.17,1.1-.33,1.46-.47l.72,3.47c-.51.22-1.17.44-1.99.67-.82.23-1.78.34-2.89.34-1.35,0-2.47-.18-3.38-.54s-1.62-.89-2.15-1.57c-.53-.69-.9-1.52-1.12-2.49-.22-.98-.33-2.09-.33-3.34v-16.37Z"/>
    <path class="cls-1" d="M214.8,114.24c1.45,0,2.66.18,3.65.54.99.36,1.78.87,2.37,1.52.59.65,1.01,1.44,1.26,2.37.25.93.38,1.95.38,3.05v11.45c-.67.14-1.69.32-3.05.52-1.36.2-2.9.31-4.61.31-1.13,0-2.17-.11-3.11-.33-.94-.22-1.74-.57-2.4-1.05-.66-.48-1.18-1.11-1.55-1.88-.37-.77-.56-1.72-.56-2.85s.21-2,.63-2.75c.42-.75.99-1.35,1.72-1.82.72-.47,1.56-.81,2.51-1.01.95-.2,1.94-.31,2.98-.31.48,0,.99.03,1.52.09.53.06,1.1.16,1.7.31v-.72c0-.51-.06-.99-.18-1.45-.12-.46-.33-.86-.63-1.21-.3-.35-.7-.62-1.19-.81-.49-.19-1.11-.29-1.86-.29-1.01,0-1.94.07-2.78.22-.84.14-1.53.31-2.06.51l-.54-3.54c.55-.19,1.36-.38,2.42-.58,1.06-.19,2.19-.29,3.4-.29ZM215.16,130.53c1.35,0,2.37-.07,3.07-.22v-4.84c-.24-.07-.59-.14-1.05-.22-.46-.07-.96-.11-1.52-.11-.48,0-.97.04-1.46.11-.49.07-.94.2-1.34.4-.4.19-.72.46-.96.81-.24.35-.36.79-.36,1.32,0,1.04.33,1.75.98,2.15s1.53.6,2.64.6Z"/>
    <path class="cls-1" d="M227.59,109.72l4.37-.72v5.71h6.72v3.65h-6.72v7.7c0,1.52.24,2.6.72,3.25.48.65,1.3.98,2.46.98.8,0,1.5-.08,2.11-.25.61-.17,1.1-.33,1.46-.47l.72,3.47c-.51.22-1.17.44-1.99.67-.82.23-1.78.34-2.89.34-1.35,0-2.47-.18-3.38-.54s-1.62-.89-2.15-1.57c-.53-.69-.9-1.52-1.12-2.49-.22-.98-.33-2.09-.33-3.34v-16.37Z"/>
    <path class="cls-1" d="M247.79,109.18c0,.82-.27,1.47-.79,1.95-.53.48-1.16.72-1.88.72s-1.39-.24-1.92-.72c-.53-.48-.79-1.13-.79-1.95s.26-1.51.79-1.99c.53-.48,1.17-.72,1.92-.72s1.35.24,1.88.72c.53.48.79,1.14.79,1.99ZM247.32,133.6h-4.37v-18.9h4.37v18.9Z"/>
    <path class="cls-1" d="M269.98,124.14c0,1.49-.22,2.85-.65,4.08s-1.05,2.28-1.84,3.14c-.8.87-1.75,1.54-2.87,2.02-1.12.48-2.35.72-3.7.72s-2.58-.24-3.69-.72c-1.11-.48-2.06-1.16-2.85-2.02s-1.42-1.91-1.86-3.14c-.45-1.23-.67-2.59-.67-4.08s.22-2.85.67-4.07c.45-1.22,1.07-2.26,1.88-3.13.81-.87,1.76-1.54,2.87-2.01,1.11-.47,2.32-.7,3.65-.7s2.55.23,3.67.7c1.12.47,2.08,1.14,2.87,2.01.8.87,1.41,1.91,1.86,3.13.45,1.22.67,2.57.67,4.07ZM265.5,124.14c0-1.88-.4-3.37-1.21-4.46-.81-1.1-1.93-1.64-3.38-1.64s-2.57.55-3.38,1.64c-.81,1.1-1.21,2.58-1.21,4.46s.4,3.41,1.21,4.52c.81,1.11,1.93,1.66,3.38,1.66s2.57-.55,3.38-1.66c.81-1.11,1.21-2.61,1.21-4.52Z"/>
    <path class="cls-1" d="M274.49,115.32c.84-.24,1.94-.47,3.29-.69,1.35-.22,2.84-.33,4.48-.33,1.54,0,2.83.21,3.87.63,1.04.42,1.86,1.01,2.47,1.77.61.76,1.05,1.67,1.3,2.75.25,1.07.38,2.25.38,3.52v10.62h-4.37v-9.94c0-1.01-.07-1.87-.2-2.58-.13-.71-.35-1.29-.65-1.73-.3-.45-.71-.77-1.23-.98-.52-.2-1.15-.31-1.9-.31-.55,0-1.13.04-1.73.11s-1.05.13-1.34.18v15.25h-4.37v-18.28Z"/>
  </g>
</svg>