<?xml version="1.0" encoding="UTF-8"?>
<svg id="uuid-edb6776a-daf9-499c-b6ff-4f31ab853eb8" xmlns="http://www.w3.org/2000/svg" viewBox="0 0 587.34 97.38">
  <defs>
    <style>
      .cls-1, .cls-2 {
        stroke-width: 0px;
      }

      .cls-2 {
        fill: #0d0d0d;
        fill-rule: evenodd;
      }

      .cls-3 {
        fill: #fff;
        stroke: #fff;
        stroke-miterlimit: 10;
      }
    </style>
  </defs>
  <rect class="cls-3" x=".5" y=".5" width="96.38" height="96.38" rx="11.34" ry="11.34"/>
  <path class="cls-2" d="M81.98,34.9c2.15-5.95,1.24-12.34-2.96-16.54h0c-4.2-4.2-10.6-5.11-16.54-2.96-2.69-5.72-7.85-9.6-13.79-9.6h0c-5.94,0-11.11,3.88-13.79,9.6-5.95-2.15-12.34-1.24-16.54,2.96h0c-4.2,4.2-5.11,10.6-2.96,16.54-5.72,2.69-9.6,7.85-9.6,13.79h0c0,5.94,3.88,11.11,9.6,13.79-2.15,5.95-1.24,12.34,2.96,16.54h0c4.2,4.2,10.6,5.11,16.54,2.96,2.69,5.72,7.85,9.6,13.79,9.6h0c5.94,0,11.11-3.88,13.79-9.6,5.95,2.15,12.34,1.24,16.54-2.96s5.11-10.6,2.96-16.54c5.72-2.69,9.6-7.85,9.6-13.79h0c0-5.94-3.88-11.11-9.6-13.79ZM75.65,21.73h0c3.04,3.04,3.88,7.53,2.68,11.87-1.69-.43-3.48-.67-5.33-.67h-.36c.15-2.27-.54-4.46-2.14-6.06s-3.79-2.29-6.06-2.14v-.36c0-1.85-.24-3.64-.67-5.33,4.34-1.2,8.84-.36,11.87,2.68h0ZM74.08,56.59c1.16,1.16,2.11,2.45,2.85,3.8-1.48.43-3.05.67-4.7.67h-.45c-.54-1.21-1.32-2.37-2.34-3.4l-.64-.64h.9c1.45,0,2.82-.27,4.06-.75,0,0,.32.32.32.32ZM60.39,76.93c-1.35-.74-2.63-1.69-3.8-2.85l-.32-.32c.48-1.24.75-2.61.75-4.06v-.9l.64.64c1.02,1.02,2.19,1.8,3.4,2.34v.45c0,1.65-.24,3.22-.67,4.7ZM36.32,72.23v-.45c1.21-.54,2.37-1.32,3.4-2.34l.64-.64v.9c0,1.45.27,2.82.75,4.06l-.32.32c-1.16,1.16-2.45,2.11-3.8,2.85-.43-1.48-.67-3.05-.67-4.7ZM25.15,61.06c-1.65,0-3.22-.24-4.7-.67.74-1.35,1.69-2.63,2.85-3.8l.32-.32c1.24.48,2.61.75,4.06.75h.9l-.64.64c-1.02,1.02-1.8,2.19-2.34,3.4,0,0-.45,0-.45,0ZM23.3,40.79c-1.16-1.16-2.11-2.45-2.85-3.8,1.48-.43,3.05-.67,4.7-.67h.45c.54,1.21,1.32,2.37,2.34,3.4l.64.64h-.9c-1.45,0-2.82.27-4.06.75,0,0-.32-.32-.32-.32ZM36.99,20.45c1.35.74,2.63,1.69,3.8,2.85l.32.32c-.48,1.24-.75,2.61-.75,4.06v.9l-.64-.64c-1.02-1.02-2.19-1.8-3.4-2.34v-.45c0-1.65.24-3.22.67-4.7ZM61.06,25.15v.45c-1.21.54-2.37,1.32-3.4,2.34l-.64.64v-.9c0-1.45-.27-2.82-.75-4.06l.32-.32c1.16-1.16,2.45-2.11,3.8-2.85.43,1.48.67,3.05.67,4.7ZM66.39,40.36h-1.94v-4.03h5.17c-.43.94-1.04,1.84-1.83,2.63,0,0-1.4,1.4-1.4,1.4ZM42.23,64.51l-.16.16v-.23h.1l.07.07h0ZM55.15,32.87l.16-.16v.23h-.1l-.07-.07h0ZM51.69,61.06l-1.79-1.79,2.24-2.24h3.17v2.53l-1.5,1.5s-2.12,0-2.12,0ZM43.57,61.06l-1.5-1.5v-2.53h3.17l2.24,2.24-1.79,1.79s-2.12,0-2.12,0ZM45.69,36.32l1.79,1.79-2.24,2.24h-3.17v-2.53l1.5-1.5s2.12,0,2.12,0ZM53.81,36.32l1.5,1.5v2.53h-3.17l-2.24-2.24,1.79-1.79s2.12,0,2.12,0ZM61.06,45.69l-1.79,1.79-2.24-2.24v-3.17h2.53l1.5,1.5s0,2.12,0,2.12ZM51.43,55.31h-5.49l-3.88-3.88v-5.49l3.88-3.88h5.49l3.88,3.88v5.49l-3.88,3.88ZM55.31,53.85v1.46h-1.46l1.46-1.46ZM49.72,57.02l-1.03,1.03-1.03-1.03s2.06,0,2.06,0ZM42.07,53.85l1.46,1.46h-1.46v-1.46ZM40.36,49.72l-1.03-1.03,1.03-1.03s0,2.06,0,2.06ZM42.07,43.53v-1.46h1.46l-1.46,1.46ZM47.66,40.36l1.03-1.03,1.03,1.03s-2.06,0-2.06,0ZM55.31,43.53l-1.46-1.46h1.46v1.46ZM57.02,47.66l1.03,1.03-1.03,1.03s0-2.06,0-2.06ZM57.02,40.36v-.82l.82.82h-.82ZM48.69,36.9l-.58-.58h1.16s-.58.58-.58.58ZM40.36,40.36h-.82l.82-.82v.82ZM37.82,42.07h2.53v3.17l-2.24,2.24-1.79-1.79v-2.12s1.5-1.5,1.5-1.5ZM32.93,50.42l-1.73-1.73,1.73-1.73v3.47h0ZM36.32,48.11l.58.58-.58.58v-1.16ZM36.32,51.69l1.79-1.79,2.24,2.24v3.17h-2.53l-1.5-1.5s0-2.12,0-2.12ZM40.36,57.02v.82l-.82-.82h.82ZM48.69,60.47l.58.58h-1.16s.58-.58.58-.58ZM57.02,57.02h.82l-.82.82v-.82ZM59.56,55.31h-2.53v-3.17l2.24-2.24,1.79,1.79v2.12l-1.5,1.5ZM60.47,48.69l.58-.58v1.16s-.58-.58-.58-.58ZM64.45,46.96l1.73,1.73-1.73,1.73v-3.47h0ZM58.61,36.32h2.45v2.45l-2.45-2.45ZM57.02,32.93v-1.94l1.4-1.4c.8-.8,1.7-1.4,2.63-1.83v5.17h-4.03ZM46.96,32.93l1.73-1.73,1.73,1.73h-3.47.01ZM42.16,32.93h-.1v-.23l.16.16-.07.07h0ZM40.36,32.93h-4.03v-5.17c.94.43,1.84,1.04,2.63,1.83l1.4,1.4s0,1.94,0,1.94ZM38.77,36.32l-2.45,2.45v-2.45h2.45ZM32.93,42.16l-.07.07-.16-.16h.23v.1h0ZM31.65,43.44l-2.85,2.85-3.66-3.66c.97-.36,2.03-.57,3.16-.57h1.98l1.37,1.37h0ZM31.65,53.94l-1.37,1.37h-1.98c-1.12,0-2.19-.21-3.16-.57l3.66-3.66,2.85,2.85h0ZM32.87,55.15l.07.07v.1h-.23l.16-.16h0ZM38.77,61.06h-2.45v-2.45l2.45,2.45ZM40.36,64.45v1.94l-1.4,1.4c-.8.8-1.7,1.4-2.63,1.83v-5.17s4.03,0,4.03,0ZM50.42,64.45l-1.73,1.73-1.73-1.73h3.47-.01ZM55.22,64.45h.1v.23l-.16-.16.07-.07h0ZM57.02,64.45h4.03v5.17c-.94-.43-1.84-1.04-2.63-1.83l-1.4-1.4s0-1.94,0-1.94ZM58.6,61.06l2.45-2.45v2.45h-2.45ZM64.45,55.22l.07-.07.16.16h-.23v-.1h0ZM65.72,53.94l2.85-2.85,3.66,3.66c-.97.36-2.03.57-3.16.57h-1.98l-1.37-1.37h0ZM65.72,43.44l1.37-1.37h1.98c1.12,0,2.19.21,3.16.57l-3.66,3.66-2.85-2.85h0ZM64.51,42.23l-.07-.07v-.1h.23l-.16.16h0ZM64.45,32.93v-5.9c1.58.03,3.06.6,4.18,1.71s1.68,2.61,1.71,4.18h-5.9.01ZM55.31,28.3v1.98l-1.37,1.37-2.85-2.85,3.66-3.66c.36.97.57,2.03.57,3.16h-.01ZM48.69,26.41l-4.17-4.17c1.14-1.09,2.59-1.75,4.17-1.75s3.03.66,4.17,1.75c0,0-4.17,4.17-4.17,4.17ZM46.29,28.8l-2.85,2.85-1.37-1.37v-1.98c0-1.12.21-2.19.57-3.16l3.66,3.66h-.01ZM32.93,32.93h-5.9c.03-1.58.6-3.06,1.71-4.18s2.61-1.68,4.18-1.71v5.9h0ZM32.93,36.32v4.03h-1.94l-1.4-1.4c-.8-.8-1.4-1.7-1.83-2.63,0,0,5.17,0,5.17,0ZM26.41,48.69l-4.17,4.17c-1.09-1.14-1.75-2.59-1.75-4.17s.66-3.03,1.75-4.17c0,0,4.17,4.17,4.17,4.17ZM29.59,58.42l1.4-1.4h1.94v4.03h-5.17c.43-.94,1.04-1.84,1.83-2.63ZM32.93,64.45v5.9c-1.58-.03-3.06-.6-4.18-1.71s-1.68-2.61-1.71-4.18h5.9-.01ZM42.07,69.07v-1.98l1.37-1.37,2.85,2.85-3.66,3.66c-.36-.97-.57-2.03-.57-3.16h.01ZM48.69,70.97l4.17,4.17c-1.14,1.09-2.59,1.75-4.17,1.75s-3.03-.66-4.17-1.75c0,0,4.17-4.17,4.17-4.17ZM51.09,68.58l2.85-2.85,1.37,1.37v1.98c0,1.12-.21,2.19-.57,3.16l-3.66-3.66h.01ZM64.45,64.45h5.9c-.03,1.58-.6,3.06-1.71,4.18s-2.61,1.68-4.18,1.71v-5.9h-.01ZM64.45,61.06v-4.03h1.94l1.4,1.4c.8.8,1.4,1.7,1.83,2.63,0,0-5.17,0-5.17,0ZM70.97,48.69l4.17-4.17c1.09,1.14,1.75,2.59,1.75,4.17s-.66,3.03-1.75,4.17c0,0-4.17-4.17-4.17-4.17ZM73.76,41.1c-1.24-.48-2.61-.75-4.06-.75h-.9l.64-.64c1.02-1.02,1.8-2.19,2.34-3.4h.45c1.65,0,3.22.24,4.7.67-.74,1.35-1.69,2.63-2.85,3.8,0,0-.32.32-.32.32ZM48.69,10.56h0c4.29,0,8.07,2.58,10.29,6.5-1.5.89-2.93,1.99-4.24,3.3l-.25.25c-1.5-1.71-3.54-2.77-5.79-2.77s-4.29,1.06-5.79,2.77l-.25-.25c-1.31-1.31-2.74-2.41-4.24-3.3,2.22-3.92,6-6.5,10.29-6.5h-.02ZM21.73,21.73h0c3.04-3.04,7.53-3.88,11.87-2.68-.43,1.69-.67,3.48-.67,5.33v.36c-2.27-.15-4.46.54-6.06,2.14s-2.29,3.79-2.14,6.06h-.36c-1.85,0-3.64.24-5.33.67-1.2-4.34-.36-8.84,2.68-11.87h0ZM10.56,48.69h0c0-4.29,2.58-8.07,6.5-10.29.89,1.5,1.99,2.93,3.3,4.24l.25.25c-1.71,1.5-2.77,3.54-2.77,5.79s1.06,4.29,2.77,5.79l-.25.25c-1.31,1.31-2.41,2.74-3.3,4.24-3.92-2.22-6.5-6-6.5-10.29v.02ZM21.73,75.65h0c-3.04-3.04-3.88-7.53-2.68-11.87,1.69.43,3.48.67,5.33.67h.36c-.15,2.27.54,4.46,2.14,6.06s3.79,2.29,6.06,2.14v.36c0,1.85.24,3.64.67,5.33-4.34,1.2-8.84.36-11.87-2.68h0ZM48.69,86.82h0c-4.29,0-8.07-2.58-10.29-6.5,1.5-.89,2.93-1.99,4.24-3.3l.25-.25c1.5,1.71,3.54,2.77,5.79,2.77s4.29-1.06,5.79-2.77l.25.25c1.31,1.31,2.74,2.41,4.24,3.3-2.22,3.92-6,6.5-10.29,6.5h.02ZM75.65,75.65h0c-3.04,3.04-7.53,3.88-11.87,2.68.43-1.69.67-3.48.67-5.33v-.36c2.27.15,4.46-.54,6.06-2.14s2.29-3.79,2.14-6.06h.36c1.85,0,3.64-.24,5.33-.67,1.2,4.34.36,8.84-2.68,11.87h-.01ZM86.82,48.69c0,4.29-2.58,8.07-6.5,10.29-.89-1.5-1.99-2.93-3.3-4.24l-.25-.25c1.71-1.5,2.77-3.54,2.77-5.79s-1.06-4.29-2.77-5.79l.25-.25c1.31-1.31,2.41-2.74,3.3-4.24,3.92,2.22,6.5,6,6.5,10.29h0v-.02Z"/>
  <g>
    <path class="cls-1" d="M125.35,68.3c-3.12,0-5.92-.48-8.4-1.44s-4.58-2.37-6.3-4.23c-1.72-1.86-3.04-4.13-3.96-6.81-.92-2.68-1.38-5.76-1.38-9.24s.53-6.56,1.59-9.24c1.06-2.68,2.51-4.95,4.35-6.81,1.84-1.86,4-3.27,6.48-4.23,2.48-.96,5.14-1.44,7.98-1.44,1.72,0,3.28.13,4.68.39,1.4.26,2.62.55,3.66.87,1.04.32,1.9.66,2.58,1.02.68.36,1.16.62,1.44.78l-2.22,6.18c-.96-.6-2.33-1.17-4.11-1.71-1.78-.54-3.71-.81-5.79-.81-1.8,0-3.48.31-5.04.93-1.56.62-2.91,1.55-4.05,2.79-1.14,1.24-2.03,2.8-2.67,4.68-.64,1.88-.96,4.06-.96,6.54,0,2.2.25,4.22.75,6.06s1.27,3.43,2.31,4.77c1.04,1.34,2.36,2.38,3.96,3.12,1.6.74,3.52,1.11,5.76,1.11,2.68,0,4.86-.27,6.54-.81s2.98-1.05,3.9-1.53l2.04,6.18c-.48.32-1.13.64-1.95.96-.82.32-1.79.63-2.91.93-1.12.3-2.38.54-3.78.72-1.4.18-2.9.27-4.5.27Z"/>
    <path class="cls-1" d="M144.79,67.4V22.04l7.26-1.2v15.54c.8-.28,1.73-.52,2.79-.72,1.06-.2,2.11-.3,3.15-.3,2.52,0,4.61.35,6.27,1.05,1.66.7,2.99,1.68,3.99,2.94,1,1.26,1.71,2.77,2.13,4.53.42,1.76.63,3.72.63,5.88v17.64h-7.26v-16.5c0-1.68-.11-3.11-.33-4.29-.22-1.18-.58-2.14-1.08-2.88-.5-.74-1.17-1.28-2.01-1.62-.84-.34-1.88-.51-3.12-.51-.96,0-1.94.1-2.94.3-1,.2-1.74.38-2.22.54v24.96h-7.26Z"/>
    <path class="cls-1" d="M190.15,35.24c2.4,0,4.42.3,6.06.9,1.64.6,2.95,1.44,3.93,2.52.98,1.08,1.68,2.39,2.1,3.93.42,1.54.63,3.23.63,5.07v19.02c-1.12.24-2.81.53-5.07.87-2.26.34-4.81.51-7.65.51-1.88,0-3.6-.18-5.16-.54-1.56-.36-2.89-.94-3.99-1.74-1.1-.8-1.96-1.84-2.58-3.12-.62-1.28-.93-2.86-.93-4.74s.35-3.32,1.05-4.56c.7-1.24,1.65-2.25,2.85-3.03,1.2-.78,2.59-1.34,4.17-1.68,1.58-.34,3.23-.51,4.95-.51.8,0,1.64.05,2.52.15.88.1,1.82.27,2.82.51v-1.2c0-.84-.1-1.64-.3-2.4-.2-.76-.55-1.43-1.05-2.01-.5-.58-1.16-1.03-1.98-1.35-.82-.32-1.85-.48-3.09-.48-1.68,0-3.22.12-4.62.36-1.4.24-2.54.52-3.42.84l-.9-5.88c.92-.32,2.26-.64,4.02-.96,1.76-.32,3.64-.48,5.64-.48ZM190.75,62.3c2.24,0,3.94-.12,5.1-.36v-8.04c-.4-.12-.98-.24-1.74-.36-.76-.12-1.6-.18-2.52-.18-.8,0-1.61.06-2.43.18-.82.12-1.56.34-2.22.66-.66.32-1.19.77-1.59,1.35-.4.58-.6,1.31-.6,2.19,0,1.72.54,2.91,1.62,3.57s2.54.99,4.38.99Z"/>
    <path class="cls-1" d="M211.39,27.74l7.26-1.2v9.48h11.16v6.06h-11.16v12.78c0,2.52.4,4.32,1.2,5.4.8,1.08,2.16,1.62,4.08,1.62,1.32,0,2.49-.14,3.51-.42,1.02-.28,1.83-.54,2.43-.78l1.2,5.76c-.84.36-1.94.73-3.3,1.11-1.36.38-2.96.57-4.8.57-2.24,0-4.11-.3-5.61-.9s-2.69-1.47-3.57-2.61c-.88-1.14-1.5-2.52-1.86-4.14-.36-1.62-.54-3.47-.54-5.55v-27.18Z"/>
    <path class="cls-1" d="M277.81,30.5c.64,2.16,1.32,4.41,2.04,6.75.72,2.34,1.47,4.68,2.25,7.02.78,2.34,1.56,4.64,2.34,6.9s1.53,4.39,2.25,6.39c.6-2.16,1.18-4.51,1.74-7.05.56-2.54,1.12-5.18,1.68-7.92.56-2.74,1.11-5.53,1.65-8.37.54-2.84,1.05-5.64,1.53-8.4h7.8c-1.4,7.52-2.96,14.75-4.67,21.69-1.72,6.94-3.63,13.57-5.75,19.89h-7.27c-3.1-8.08-6.1-16.9-9-26.46-1.48,4.84-2.98,9.44-4.51,13.8-1.52,4.36-3.04,8.58-4.57,12.66h-7.21c-2.16-6.32-4.08-12.95-5.78-19.89-1.7-6.94-3.24-14.17-4.64-21.69h8.1c.48,2.72.99,5.5,1.53,8.34.54,2.84,1.1,5.63,1.68,8.37.58,2.74,1.17,5.39,1.77,7.95.6,2.56,1.2,4.92,1.8,7.08.76-2.04,1.53-4.19,2.31-6.45.78-2.26,1.55-4.56,2.31-6.9.76-2.34,1.49-4.67,2.19-6.99.7-2.32,1.35-4.56,1.95-6.72h6.48Z"/>
    <path class="cls-1" d="M334.33,51.68c0,2.48-.36,4.74-1.08,6.78s-1.74,3.78-3.06,5.22c-1.32,1.44-2.91,2.56-4.77,3.36-1.86.8-3.91,1.2-6.15,1.2s-4.28-.4-6.12-1.2c-1.84-.8-3.42-1.92-4.74-3.36s-2.35-3.18-3.09-5.22c-.74-2.04-1.11-4.3-1.11-6.78s.37-4.73,1.11-6.75c.74-2.02,1.78-3.75,3.12-5.19,1.34-1.44,2.93-2.55,4.77-3.33,1.84-.78,3.86-1.17,6.06-1.17s4.23.39,6.09,1.17c1.86.78,3.45,1.89,4.77,3.33,1.32,1.44,2.35,3.17,3.09,5.19.74,2.02,1.11,4.27,1.11,6.75ZM326.89,51.68c0-3.12-.67-5.59-2.01-7.41-1.34-1.82-3.21-2.73-5.61-2.73s-4.27.91-5.61,2.73c-1.34,1.82-2.01,4.29-2.01,7.41s.67,5.66,2.01,7.5c1.34,1.84,3.21,2.76,5.61,2.76s4.27-.92,5.61-2.76c1.34-1.84,2.01-4.34,2.01-7.5Z"/>
    <path class="cls-1" d="M359.71,42.56c-.6-.2-1.43-.41-2.49-.63-1.06-.22-2.29-.33-3.69-.33-.8,0-1.65.08-2.55.24-.9.16-1.53.3-1.89.42v25.14h-7.26v-29.88c1.4-.52,3.15-1.01,5.25-1.47,2.1-.46,4.43-.69,6.99-.69.48,0,1.04.03,1.68.09.64.06,1.28.14,1.92.24.64.1,1.26.22,1.86.36.6.14,1.08.27,1.44.39l-1.26,6.12Z"/>
    <path class="cls-1" d="M373.27,48.26c.92-.96,1.9-1.99,2.94-3.09,1.04-1.1,2.06-2.2,3.06-3.3,1-1.1,1.95-2.16,2.85-3.18.9-1.02,1.67-1.91,2.31-2.67h8.58c-2,2.24-4.1,4.56-6.32,6.96-2.21,2.4-4.44,4.74-6.67,7.02,1.2,1,2.45,2.21,3.77,3.63s2.59,2.93,3.83,4.53c1.24,1.6,2.39,3.2,3.47,4.8s1.98,3.08,2.69,4.44h-8.4c-.72-1.24-1.55-2.54-2.49-3.9-.94-1.36-1.95-2.68-3.03-3.96-1.08-1.28-2.18-2.49-3.3-3.63-1.12-1.14-2.22-2.11-3.3-2.91v14.4h-7.26V22.04l7.26-1.2v27.42Z"/>
    <path class="cls-1" d="M406.93,62.18c1.92,0,3.32-.23,4.2-.69.88-.46,1.32-1.25,1.32-2.37,0-1.04-.47-1.9-1.41-2.58-.94-.68-2.49-1.42-4.65-2.22-1.32-.48-2.53-.99-3.63-1.53s-2.05-1.17-2.85-1.89c-.8-.72-1.43-1.59-1.89-2.61-.46-1.02-.69-2.27-.69-3.75,0-2.88,1.06-5.15,3.18-6.81,2.12-1.66,5-2.49,8.64-2.49,1.84,0,3.6.17,5.28.51,1.68.34,2.94.67,3.78.99l-1.32,5.88c-.8-.36-1.82-.69-3.06-.99-1.24-.3-2.68-.45-4.32-.45-1.48,0-2.68.25-3.6.75-.92.5-1.38,1.27-1.38,2.31,0,.52.09.98.27,1.38.18.4.49.77.93,1.11.44.34,1.02.68,1.74,1.02.72.34,1.6.69,2.64,1.05,1.72.64,3.18,1.27,4.38,1.89,1.2.62,2.19,1.32,2.97,2.1.78.78,1.35,1.67,1.71,2.67.36,1,.54,2.2.54,3.6,0,3-1.11,5.27-3.33,6.81-2.22,1.54-5.39,2.31-9.51,2.31-2.76,0-4.98-.23-6.66-.69-1.68-.46-2.86-.83-3.54-1.11l1.26-6.06c1.08.44,2.37.86,3.87,1.26s3.21.6,5.13.6Z"/>
    <path class="cls-1" d="M426.13,27.74l7.26-1.2v9.48h11.16v6.06h-11.16v12.78c0,2.52.4,4.32,1.2,5.4.8,1.08,2.16,1.62,4.08,1.62,1.32,0,2.49-.14,3.51-.42,1.02-.28,1.83-.54,2.43-.78l1.2,5.76c-.84.36-1.94.73-3.3,1.11-1.36.38-2.96.57-4.8.57-2.24,0-4.11-.3-5.61-.9s-2.69-1.47-3.57-2.61c-.88-1.14-1.5-2.52-1.86-4.14-.36-1.62-.54-3.47-.54-5.55v-27.18Z"/>
    <path class="cls-1" d="M462.01,35.24c2.4,0,4.42.3,6.06.9,1.64.6,2.95,1.44,3.93,2.52.98,1.08,1.68,2.39,2.1,3.93.42,1.54.63,3.23.63,5.07v19.02c-1.12.24-2.81.53-5.07.87-2.26.34-4.81.51-7.65.51-1.88,0-3.6-.18-5.16-.54-1.56-.36-2.89-.94-3.99-1.74-1.1-.8-1.96-1.84-2.58-3.12-.62-1.28-.93-2.86-.93-4.74s.35-3.32,1.05-4.56c.7-1.24,1.65-2.25,2.85-3.03,1.2-.78,2.59-1.34,4.17-1.68,1.58-.34,3.23-.51,4.95-.51.8,0,1.64.05,2.52.15.88.1,1.82.27,2.82.51v-1.2c0-.84-.1-1.64-.3-2.4-.2-.76-.55-1.43-1.05-2.01-.5-.58-1.16-1.03-1.98-1.35-.82-.32-1.85-.48-3.09-.48-1.68,0-3.22.12-4.62.36-1.4.24-2.54.52-3.42.84l-.9-5.88c.92-.32,2.26-.64,4.02-.96,1.76-.32,3.64-.48,5.64-.48ZM462.61,62.3c2.24,0,3.94-.12,5.1-.36v-8.04c-.4-.12-.98-.24-1.74-.36-.76-.12-1.6-.18-2.52-.18-.8,0-1.61.06-2.43.18-.82.12-1.56.34-2.22.66-.66.32-1.19.77-1.59,1.35-.4.58-.6,1.31-.6,2.19,0,1.72.54,2.91,1.62,3.57s2.54.99,4.38.99Z"/>
    <path class="cls-1" d="M483.25,27.74l7.26-1.2v9.48h11.16v6.06h-11.16v12.78c0,2.52.4,4.32,1.2,5.4.8,1.08,2.16,1.62,4.08,1.62,1.32,0,2.49-.14,3.51-.42,1.02-.28,1.83-.54,2.43-.78l1.2,5.76c-.84.36-1.94.73-3.3,1.11-1.36.38-2.96.57-4.8.57-2.24,0-4.11-.3-5.61-.9s-2.69-1.47-3.57-2.61c-.88-1.14-1.5-2.52-1.86-4.14-.36-1.62-.54-3.47-.54-5.55v-27.18Z"/>
    <path class="cls-1" d="M516.79,26.84c0,1.36-.44,2.44-1.32,3.24-.88.8-1.92,1.2-3.12,1.2s-2.3-.4-3.18-1.2c-.88-.8-1.32-1.88-1.32-3.24s.44-2.5,1.32-3.3c.88-.8,1.94-1.2,3.18-1.2s2.24.4,3.12,1.2c.88.8,1.32,1.9,1.32,3.3ZM516.01,67.4h-7.26v-31.38h7.26v31.38Z"/>
    <path class="cls-1" d="M553.62,51.68c0,2.48-.36,4.74-1.08,6.78s-1.74,3.78-3.06,5.22c-1.32,1.44-2.91,2.56-4.77,3.36-1.86.8-3.91,1.2-6.15,1.2s-4.28-.4-6.12-1.2c-1.84-.8-3.42-1.92-4.74-3.36s-2.35-3.18-3.09-5.22c-.74-2.04-1.11-4.3-1.11-6.78s.37-4.73,1.11-6.75c.74-2.02,1.78-3.75,3.12-5.19,1.34-1.44,2.93-2.55,4.77-3.33,1.84-.78,3.86-1.17,6.06-1.17s4.23.39,6.09,1.17c1.86.78,3.45,1.89,4.77,3.33,1.32,1.44,2.35,3.17,3.09,5.19.74,2.02,1.11,4.27,1.11,6.75ZM546.18,51.68c0-3.12-.67-5.59-2.01-7.41-1.34-1.82-3.21-2.73-5.61-2.73s-4.27.91-5.61,2.73c-1.34,1.82-2.01,4.29-2.01,7.41s.67,5.66,2.01,7.5c1.34,1.84,3.21,2.76,5.61,2.76s4.27-.92,5.61-2.76c1.34-1.84,2.01-4.34,2.01-7.5Z"/>
    <path class="cls-1" d="M561.12,37.04c1.4-.4,3.22-.78,5.46-1.14,2.24-.36,4.72-.54,7.44-.54,2.56,0,4.7.35,6.42,1.05,1.72.7,3.09,1.68,4.11,2.94,1.02,1.26,1.74,2.78,2.16,4.56.42,1.78.63,3.73.63,5.85v17.64h-7.26v-16.5c0-1.68-.11-3.11-.33-4.29-.22-1.18-.58-2.14-1.08-2.88-.5-.74-1.18-1.28-2.04-1.62-.86-.34-1.91-.51-3.15-.51-.92,0-1.88.06-2.88.18s-1.74.22-2.22.3v25.32h-7.26v-30.36Z"/>
  </g>
</svg>