<?xml version="1.0" encoding="UTF-8"?>
<svg id="ChatOPTLogo" data-name="ChatOPT" xmlns="http://www.w3.org/2000/svg" viewBox="0 0 104.89 104.89">
  <defs>
    <style>
      .cls-1 {
        fill: none;
        stroke: #0b0b0b;
        stroke-miterlimit: 10;
        stroke-width: 7px;
      }
    </style>
  </defs>
  <path class="cls-1" d="M98.35,52.26c-1.4,1.77-3.25,3.23-5.47,4.16l-15.19,6.36,6.36,15.19c.93,2.23,1.23,4.56.98,6.81,4.8-.57,9.16-3.65,11.12-8.44l4.2-10.26c1.96-4.79,1.02-10.04-2-13.81Z"/>
  <path class="cls-1" d="M20.83,26.91c-.93-2.23-1.23-4.56-.98-6.81-4.8.57-9.16,3.65-11.12,8.44l-4.2,10.26c-1.96,4.79-1.02,10.04,2,13.81,1.4-1.77,3.25-3.23,5.47-4.16l15.19-6.36-6.36-15.19Z"/>
  <path class="cls-1" d="M78.22,83.85l-15.24-6.24-6.24,15.24c-.92,2.24-2.36,4.1-4.12,5.51,3.8,2.99,9.06,3.89,13.83,1.89l10.23-4.29c4.77-2,7.82-6.38,8.35-11.18-2.24.27-4.58-.01-6.81-.93Z"/>
  <path class="cls-1" d="M38.43,4.64l-10.23,4.29c-4.77,2-7.82,6.38-8.35,11.18,2.24-.27,4.58.01,6.81.93l15.24,6.24,6.24-15.24c.92-2.24,2.36-4.1,4.12-5.51-3.8-2.99-9.06-3.89-13.83-1.89Z"/>
  <path class="cls-1" d="M27.28,62.98l-15.24-6.24c-2.24-.92-4.1-2.36-5.51-4.12-2.99,3.8-3.89,9.06-1.89,13.83l4.29,10.23c2,4.77,6.38,7.82,11.18,8.35-.27-2.24.01-4.58.93-6.81l6.24-15.24Z"/>
  <path class="cls-1" d="M100.25,38.43l-4.29-10.23c-2-4.77-6.38-7.82-11.18-8.35.27,2.24-.01,4.58-.93,6.81l-6.24,15.24,15.24,6.24c2.24.92,4.1,2.36,5.51,4.12,2.99-3.8,3.89-9.06,1.89-13.83Z"/>
  <path class="cls-1" d="M76.34,8.73l-10.26-4.2c-4.79-1.96-10.04-1.02-13.81,2,1.77,1.4,3.23,3.25,4.16,5.47l6.36,15.19,15.19-6.36c2.23-.93,4.56-1.23,6.81-.98-.57-4.8-3.65-9.16-8.44-11.12Z"/>
  <path class="cls-1" d="M48.47,92.88l-6.36-15.19-15.19,6.36c-2.23.93-4.56,1.23-6.81.98.57,4.8,3.65,9.16,8.44,11.12l10.26,4.2c4.79,1.96,10.04,1.02,13.81-2-1.77-1.4-3.23-3.25-4.16-5.47Z"/>
  <polygon class="cls-1" points="52.53 73.32 62.98 77.61 67.27 67.15 52.53 73.32"/>
  <polygon class="cls-1" points="41.9 27.28 37.62 37.74 52.36 31.56 41.9 27.28"/>
  <polygon class="cls-1" points="31.56 52.53 27.28 62.98 37.74 67.27 31.56 52.53"/>
  <polygon class="cls-1" points="67.15 37.62 73.32 52.36 77.61 41.9 67.15 37.62"/>
</svg>