<?xml version="1.0" encoding="UTF-8"?>
<svg id="uuid-b45fc2fd-52f9-459f-b702-ef6fc90a4f13"  data-name="ChatWorkstation" xmlns="http://www.w3.org/2000/svg" viewBox="0 0 97.38 97.38">
  <defs>
    <style>
      .uuid-6e66b64e-eefc-4415-b7d5-230752a48d63 {
        fill: #fff;
        stroke: #fff;
        stroke-width: 1
        stroke-miterlimit: 1;


      }

      .uuid-6e66b64e-eefc-4415-b7d5-230752a48d63, .uuid-6588f23d-73a2-4f33-b381-56efeacccd1a, .uuid-5eee65ba-7b4c-485a-95b1-8800295bc04e {
        stroke-miterlimit: 5;
        stroke-width: 1

      }

      .uuid-6588f23d-73a2-4f33-b381-56efeacccd1a, .uuid-5eee65ba-7b4c-485a-95b1-8800295bc04e {
        fill: none;
        stroke: #0d0d0d;
        stroke-width:7px;
        stroke-miterlimit: 3;
      }

      .uuid-5eee65ba-7b4c-485a-95b1-8800295bc04e {
        stroke-width: 7px;
        stroke-miterlimit: 2;

      }
    </style>
  </defs>
  <rect class="uuid-6e66b64e-eefc-4415-b7d5-230752a48d63" x=".5" y=".5" width="96.38" height="96.38" rx="11.34" ry="11.34"/>
  <g>
    <g>
      <path class="uuid-5eee65ba-7b4c-485a-95b1-8800295bc04e" d="M69.65,74.02l-12.34-5.04-5.04,12.34c-.74,1.81-1.9,3.32-3.33,4.46,3.08,2.42,7.33,3.14,11.2,1.52l8.28-3.48c3.86-1.62,6.32-5.17,6.75-9.06-1.81.22-3.7,0-5.52-.75Z"/>
      <path class="uuid-5eee65ba-7b4c-485a-95b1-8800295bc04e" d="M37.37,9.94l-8.28,3.48c-3.86,1.62-6.33,5.17-6.75,9.06,1.81-.22,3.7,0,5.52.75l12.34,5.04,5.04-12.34c.74-1.81,1.9-3.32,3.33-4.46-3.08-2.42-7.33-3.14-11.2-1.52Z"/>
      <path class="uuid-5eee65ba-7b4c-485a-95b1-8800295bc04e" d="M45.57,81.36l-5.16-12.29-12.29,5.16c-1.8.76-3.69,1-5.51.8.46,3.88,2.96,7.41,6.84,8.99l8.31,3.39c3.88,1.58,8.13.82,11.18-1.63-1.44-1.13-2.62-2.62-3.37-4.43Z"/>
      <path class="uuid-5eee65ba-7b4c-485a-95b1-8800295bc04e" d="M68.06,13.22l-8.31-3.39c-3.88-1.58-8.13-.82-11.18,1.63,1.44,1.13,2.62,2.62,3.37,4.43l5.16,12.29,12.29-5.16c1.8-.76,3.69-1,5.51-.8-.46-3.88-2.96-7.41-6.84-8.99Z"/>
      <path class="uuid-5eee65ba-7b4c-485a-95b1-8800295bc04e" d="M23.14,27.99c-.76-1.8-1-3.69-.8-5.51-3.88.46-7.41,2.96-8.99,6.84l-3.39,8.31c-1.58,3.88-.82,8.13,1.63,11.18,1.13-1.44,2.62-2.62,4.43-3.37l12.29-5.16-5.16-12.29Z"/>
      <path class="uuid-5eee65ba-7b4c-485a-95b1-8800295bc04e" d="M85.91,48.44c-1.13,1.44-2.62,2.62-4.43,3.37l-12.29,5.16,5.16,12.29c.76,1.8,1,3.69.8,5.51,3.88-.46,7.41-2.96,8.99-6.84l3.39-8.31c1.58-3.88.82-8.13-1.63-11.18Z"/>
      <path class="uuid-5eee65ba-7b4c-485a-95b1-8800295bc04e" d="M87.44,37.24l-3.48-8.28c-1.62-3.86-5.17-6.32-9.06-6.75.22,1.81,0,3.7-.75,5.52l-5.04,12.34,12.34,5.04c1.81.74,3.32,1.9,4.46,3.33,2.42-3.08,3.14-7.33,1.52-11.2Z"/>
      <path class="uuid-5eee65ba-7b4c-485a-95b1-8800295bc04e" d="M28.39,57.18l-12.34-5.04c-1.81-.74-3.32-1.9-4.46-3.33-2.42,3.08-3.14,7.33-1.52,11.2l3.48,8.28c1.62,3.86,5.17,6.32,9.06,6.75-.22-1.81,0-3.7.75-5.52l5.04-12.34Z"/>
      <polygon class="uuid-5eee65ba-7b4c-485a-95b1-8800295bc04e" points="36.86 60.64 40.41 69.07 48.84 65.53 36.86 60.64"/>
      <polygon class="uuid-5eee65ba-7b4c-485a-95b1-8800295bc04e" points="57.1 28.18 48.67 31.72 60.64 36.61 57.1 28.18"/>
      <polygon class="uuid-5eee65ba-7b4c-485a-95b1-8800295bc04e" points="28.31 40.28 31.85 48.71 36.74 36.73 28.31 40.28"/>
      <polygon class="uuid-5eee65ba-7b4c-485a-95b1-8800295bc04e" points="65.65 48.54 60.77 60.52 69.2 56.97 65.65 48.54"/>
    </g>
    <g>
      <path class="uuid-6588f23d-73a2-4f33-b381-56efeacccd1a" d="M69.52,74.15l-12.34-5.04-5.04,12.34c-.74,1.81-1.9,3.32-3.33,4.46,3.08,2.42,7.33,3.14,11.2,1.52l8.28-3.48c3.86-1.62,6.33-5.17,6.75-9.06-1.81.22-3.7,0-5.52-.75Z"/>
      <path class="uuid-6588f23d-73a2-4f33-b381-56efeacccd1a" d="M37.24,10.07l-8.28,3.48c-3.86,1.62-6.32,5.17-6.75,9.06,1.81-.22,3.7,0,5.52.75l12.34,5.04,5.04-12.34c.74-1.81,1.9-3.32,3.33-4.46-3.08-2.42-7.33-3.14-11.2-1.52Z"/>
      <path class="uuid-6588f23d-73a2-4f33-b381-56efeacccd1a" d="M45.44,81.49l-5.16-12.29-12.29,5.16c-1.8.76-3.69,1-5.51.8.46,3.88,2.96,7.41,6.84,8.99l8.31,3.39c3.88,1.58,8.13.82,11.18-1.63-1.44-1.13-2.62-2.62-3.37-4.43Z"/>
      <path class="uuid-6588f23d-73a2-4f33-b381-56efeacccd1a" d="M67.93,13.35l-8.31-3.39c-3.88-1.58-8.13-.82-11.18,1.63,1.44,1.13,2.62,2.62,3.37,4.43l5.16,12.29,12.29-5.16c1.8-.76,3.69-1,5.51-.8-.46-3.88-2.96-7.41-6.84-8.99Z"/>
      <path class="uuid-6588f23d-73a2-4f33-b381-56efeacccd1a" d="M23.02,28.12c-.76-1.8-1-3.69-.8-5.51-3.88.46-7.41,2.96-8.99,6.84l-3.39,8.31c-1.58,3.88-.82,8.13,1.63,11.18,1.13-1.44,2.62-2.62,4.43-3.37l12.29-5.16-5.16-12.29Z"/>
      <path class="uuid-6588f23d-73a2-4f33-b381-56efeacccd1a" d="M85.79,48.56c-1.13,1.44-2.62,2.62-4.43,3.37l-12.29,5.16,5.16,12.29c.76,1.8,1,3.69.8,5.51,3.88-.46,7.41-2.96,8.99-6.84l3.39-8.31c1.58-3.88.82-8.13-1.63-11.18Z"/>
      <path class="uuid-6588f23d-73a2-4f33-b381-56efeacccd1a" d="M87.31,37.37l-3.48-8.28c-1.62-3.86-5.17-6.32-9.06-6.75.22,1.81,0,3.7-.75,5.52l-5.04,12.34,12.34,5.04c1.81.74,3.32,1.9,4.46,3.33,2.42-3.08,3.14-7.33,1.52-11.2Z"/>
      <path class="uuid-6588f23d-73a2-4f33-b381-56efeacccd1a" d="M28.27,57.31l-12.34-5.04c-1.81-.74-3.32-1.9-4.46-3.33-2.42,3.08-3.14,7.33-1.52,11.2l3.48,8.28c1.62,3.86,5.17,6.32,9.06,6.75-.22-1.81,0-3.7.75-5.52l5.04-12.34Z"/>
      <polygon class="uuid-6588f23d-73a2-4f33-b381-56efeacccd1a" points="36.73 60.77 40.28 69.2 48.71 65.65 36.73 60.77"/>
      <polygon class="uuid-6588f23d-73a2-4f33-b381-56efeacccd1a" points="56.97 28.31 48.54 31.85 60.52 36.74 56.97 28.31"/>
      <polygon class="uuid-6588f23d-73a2-4f33-b381-56efeacccd1a" points="28.18 40.41 31.72 48.84 36.61 36.86 28.18 40.41"/>
      <polygon class="uuid-6588f23d-73a2-4f33-b381-56efeacccd1a" points="65.53 48.67 60.64 60.64 69.07 57.1 65.53 48.67"/>
    </g>
  </g>
</svg>