<?xml version="1.0" encoding="UTF-8"?>
<svg id="uuid-f8ef1de0-b1d9-4942-913e-fb9c6dc72abb" data-name="ChatOPTLogo" xmlns="http://www.w3.org/2000/svg" viewBox="0 0 97.71 97.71">
  <g>
    <path d="M91.4,48.68c-1.29,1.64-3.01,2.99-5.07,3.86l-14.08,5.9,5.9,14.08c.87,2.07,1.14,4.23.91,6.31,4.45-.53,8.48-3.38,10.3-7.82l3.9-9.51c1.82-4.44.94-9.31-1.86-12.8Z" style="fill: none; stroke: #0b0b0b; stroke-miterlimit: 10; stroke-width: 7px;"/>
    <path d="M19.56,25.2c-.87-2.07-1.14-4.23-.91-6.31-4.45.53-8.48,3.38-10.3,7.82l-3.9,9.51c-1.82,4.44-.94,9.31,1.86,12.8,1.29-1.64,3.01-2.99,5.07-3.86l14.08-5.9-5.9-14.08Z" style="fill: none; stroke: #0b0b0b; stroke-miterlimit: 10; stroke-width: 7px;"/>
    <path d="M72.74,77.96l-14.12-5.78-5.78,14.12c-.85,2.07-2.18,3.8-3.82,5.1,3.52,2.77,8.39,3.61,12.82,1.75l9.48-3.97c4.42-1.85,7.25-5.91,7.74-10.36-2.08.25-4.24-.01-6.31-.86Z" style="fill: none; stroke: #0b0b0b; stroke-miterlimit: 10; stroke-width: 7px;"/>
    <path d="M35.87,4.55l-9.48,3.97c-4.42,1.85-7.25,5.91-7.74,10.36,2.08-.25,4.24.01,6.31.86l14.12,5.78,5.78-14.12c.85-2.07,2.18-3.8,3.82-5.1-3.52-2.77-8.39-3.61-12.82-1.75Z" style="fill: none; stroke: #0b0b0b; stroke-miterlimit: 10; stroke-width: 7px;"/>
    <path d="M25.54,58.62l-14.12-5.78c-2.07-.85-3.8-2.18-5.1-3.82-2.77,3.52-3.61,8.39-1.75,12.82l3.97,9.48c1.85,4.42,5.91,7.25,10.36,7.74-.25-2.08.01-4.24.86-6.31l5.78-14.12Z" style="fill: none; stroke: #0b0b0b; stroke-miterlimit: 10; stroke-width: 7px;"/>
    <path d="M93.15,35.87l-3.97-9.48c-1.85-4.42-5.91-7.25-10.36-7.74.25,2.08-.01,4.24-.86,6.31l-5.78,14.12,14.12,5.78c2.07.85,3.8,2.18,5.1,3.82,2.77-3.52,3.61-8.39,1.75-12.82Z" style="fill: none; stroke: #0b0b0b; stroke-miterlimit: 10; stroke-width: 7px;"/>
    <path d="M71,8.35l-9.51-3.9c-4.44-1.82-9.31-.94-12.8,1.86,1.64,1.29,2.99,3.01,3.86,5.07l5.9,14.08,14.08-5.9c2.07-.87,4.23-1.14,6.31-.91-.53-4.45-3.38-8.48-7.82-10.3Z" style="fill: none; stroke: #0b0b0b; stroke-miterlimit: 10; stroke-width: 7px;"/>
    <path d="M45.17,86.33l-5.9-14.08-14.08,5.9c-2.07.87-4.23,1.14-6.31.91.53,4.45,3.38,8.48,7.82,10.3l9.51,3.9c4.44,1.82,9.31.94,12.8-1.86-1.64-1.29-2.99-3.01-3.86-5.07Z" style="fill: none; stroke: #0b0b0b; stroke-miterlimit: 10; stroke-width: 7px;"/>
    <polygon points="48.93 68.2 58.62 72.17 62.59 62.48 48.93 68.2" style="fill: none; stroke: #0b0b0b; stroke-miterlimit: 10; stroke-width: 7px;"/>
    <polygon points="39.09 25.54 35.12 35.23 48.78 29.5 39.09 25.54" style="fill: none; stroke: #0b0b0b; stroke-miterlimit: 10; stroke-width: 7px;"/>
    <polygon points="29.5 48.93 25.54 58.62 35.23 62.59 29.5 48.93" style="fill: none; stroke: #0b0b0b; stroke-miterlimit: 10; stroke-width: 7px;"/>
    <polygon points="62.48 35.12 68.2 48.78 72.17 39.09 62.48 35.12" style="fill: none; stroke: #0b0b0b; stroke-miterlimit: 10; stroke-width: 7px;"/>
  </g>
  <g>
    <path d="M91.4,48.89c-1.29,1.64-3.01,2.99-5.07,3.86l-14.08,5.9,5.9,14.08c.87,2.07,1.14,4.23.91,6.31,4.45-.53,8.48-3.38,10.3-7.82l3.9-9.51c1.82-4.44.94-9.31-1.86-12.8Z" style="fill: none; stroke: #fff; stroke-miterlimit: 10;"/>
    <path d="M19.56,25.4c-.87-2.07-1.14-4.23-.91-6.31-4.45.53-8.48,3.38-10.3,7.82l-3.9,9.51c-1.82,4.44-.94,9.31,1.86,12.8,1.29-1.64,3.01-2.99,5.07-3.86l14.08-5.9-5.9-14.08Z" style="fill: none; stroke: #fff; stroke-miterlimit: 10;"/>
    <path d="M72.74,78.16l-14.12-5.78-5.78,14.12c-.85,2.07-2.18,3.8-3.82,5.1,3.52,2.77,8.39,3.61,12.82,1.75l9.48-3.97c4.42-1.85,7.25-5.91,7.74-10.36-2.08.25-4.24-.01-6.31-.86Z" style="fill: none; stroke: #fff; stroke-miterlimit: 10;"/>
    <path d="M35.87,4.76l-9.48,3.97c-4.42,1.85-7.25,5.91-7.74,10.36,2.08-.25,4.24.01,6.31.86l14.12,5.78,5.78-14.12c.85-2.07,2.18-3.8,3.82-5.1-3.52-2.77-8.39-3.61-12.82-1.75Z" style="fill: none; stroke: #fff; stroke-miterlimit: 10;"/>
    <path d="M25.54,58.83l-14.12-5.78c-2.07-.85-3.8-2.18-5.1-3.82-2.77,3.52-3.61,8.39-1.75,12.82l3.97,9.48c1.85,4.42,5.91,7.25,10.36,7.74-.25-2.08.01-4.24.86-6.31l5.78-14.12Z" style="fill: none; stroke: #fff; stroke-miterlimit: 10;"/>
    <path d="M93.15,36.08l-3.97-9.48c-1.85-4.42-5.91-7.25-10.36-7.74.25,2.08-.01,4.24-.86,6.31l-5.78,14.12,14.12,5.78c2.07.85,3.8,2.18,5.1,3.82,2.77-3.52,3.61-8.39,1.75-12.82Z" style="fill: none; stroke: #fff; stroke-miterlimit: 10;"/>
    <path d="M71,8.55l-9.51-3.9c-4.44-1.82-9.31-.94-12.8,1.86,1.64,1.29,2.99,3.01,3.86,5.07l5.9,14.08,14.08-5.9c2.07-.87,4.23-1.14,6.31-.91-.53-4.45-3.38-8.48-7.82-10.3Z" style="fill: none; stroke: #fff; stroke-miterlimit: 10;"/>
    <path d="M45.17,86.53l-5.9-14.08-14.08,5.9c-2.07.87-4.23,1.14-6.31.91.53,4.45,3.38,8.48,7.82,10.3l9.51,3.9c4.44,1.82,9.31.94,12.8-1.86-1.64-1.29-2.99-3.01-3.86-5.07Z" style="fill: none; stroke: #fff; stroke-miterlimit: 10;"/>
    <polygon points="48.93 68.41 58.62 72.38 62.59 62.69 48.93 68.41" style="fill: none; stroke: #fff; stroke-miterlimit: 10;"/>
    <polygon points="39.09 25.74 35.12 35.43 48.78 29.71 39.09 25.74" style="fill: none; stroke: #fff; stroke-miterlimit: 10;"/>
    <polygon points="29.5 49.14 25.54 58.83 35.23 62.8 29.5 49.14" style="fill: none; stroke: #fff; stroke-miterlimit: 10;"/>
    <polygon points="62.48 35.32 68.2 48.98 72.17 39.29 62.48 35.32" style="fill: none; stroke: #fff; stroke-miterlimit: 10;"/>
  </g>
</svg>